/* XPM */
static char * placar1_xpm[] = {
"48 100 203 2",
"  	c None",
". 	c #000000",
"+ 	c #050505",
"@ 	c #020202",
"# 	c #403F40",
"$ 	c #9E9D9E",
"% 	c #3E3E3E",
"& 	c #232322",
"* 	c #878686",
"= 	c #A5A4A5",
"- 	c #3F3E3F",
"; 	c #010101",
"> 	c #3D3C3C",
", 	c #838283",
"' 	c #C8C7C7",
") 	c #C4C3C4",
"! 	c #494949",
"~ 	c #424242",
"{ 	c #888687",
"] 	c #F4F4F4",
"^ 	c #D8D7D8",
"/ 	c #504F50",
"( 	c #8E8E8E",
"_ 	c #C9C8C8",
": 	c #F3F3F3",
"< 	c #FFFFFF",
"[ 	c #C9C8C9",
"} 	c #474646",
"| 	c #3E3D3D",
"1 	c #848384",
"2 	c #CACACA",
"3 	c #464646",
"4 	c #494848",
"5 	c #8E8C8D",
"6 	c #C6C6C6",
"7 	c #F1F1F1",
"8 	c #D5D4D4",
"9 	c #4D4D4D",
"0 	c #8F8E8E",
"a 	c #CECDCD",
"b 	c #F3F4F3",
"c 	c #C7C6C6",
"d 	c #464545",
"e 	c #6E6D6D",
"f 	c #C1C1C1",
"g 	c #F0F0F0",
"h 	c #CBCACA",
"i 	c #484748",
"j 	c #676767",
"k 	c #F8F8F8",
"l 	c #D6D5D6",
"m 	c #4E4D4E",
"n 	c #686868",
"o 	c #F7F7F7",
"p 	c #D5D4D5",
"q 	c #656565",
"r 	c #C5C5C5",
"s 	c #666666",
"t 	c #C4C4C4",
"u 	c #626262",
"v 	c #989898",
"w 	c #CECECE",
"x 	c #D1D1D1",
"y 	c #4B4B4B",
"z 	c #686768",
"A 	c #A2A1A2",
"B 	c #C7C7C7",
"C 	c #D0CFD0",
"D 	c #4A4A4A",
"E 	c #636363",
"F 	c #C8C8C9",
"G 	c #CCCBCC",
"H 	c #494849",
"I 	c #060606",
"J 	c #5F5E5F",
"K 	c #A19FA0",
"L 	c #C5C4C4",
"M 	c #CBCACB",
"N 	c #030102",
"O 	c #5E5D5D",
"P 	c #A2A1A1",
"Q 	c #C9C9C9",
"R 	c #474747",
"S 	c #030303",
"T 	c #636262",
"U 	c #9B9A9A",
"V 	c #C8C6C7",
"W 	c #4B4A4A",
"X 	c #626263",
"Y 	c #9C9B9B",
"Z 	c #ADABAD",
"` 	c #414041",
" .	c #6A6A6A",
"..	c #7A797A",
"+.	c #2C2B2C",
"@.	c #2F2D2F",
"#.	c #0F0E0F",
"$.	c #060707",
"%.	c #545454",
"&.	c #1E1E1E",
"*.	c #575657",
"=.	c #9C9C9C",
"-.	c #3D3D3D",
";.	c #080807",
">.	c #A7A6A6",
",.	c #8B8A8B",
"'.	c #2F2F2F",
").	c #0F0E0E",
"!.	c #4E4D4D",
"~.	c #DADADA",
"{.	c #9F9E9E",
"].	c #343434",
"^.	c #121211",
"/.	c #5C5B5B",
"(.	c #AAA8A9",
"_.	c #D3D3D3",
":.	c #8D8C8C",
"<.	c #222222",
"[.	c #4C4C4C",
"}.	c #A6A5A6",
"|.	c #DAD9D9",
"1.	c #908E8E",
"2.	c #252424",
"3.	c #555555",
"4.	c #A5A5A5",
"5.	c #D7D7D7",
"6.	c #FEFEFE",
"7.	c #908E8F",
"8.	c #040304",
"9.	c #5D5B5C",
"0.	c #A4A2A2",
"a.	c #FDFDFD",
"b.	c #8F8D8E",
"c.	c #242323",
"d.	c #5C5C5C",
"e.	c #A7A7A7",
"f.	c #DCDBDB",
"g.	c #FCFCFC",
"h.	c #232223",
"i.	c #646464",
"j.	c #BFBFBF",
"k.	c #8D8D8C",
"l.	c #232222",
"m.	c #605F60",
"n.	c #C2C2C2",
"o.	c #8D8D8D",
"p.	c #616061",
"q.	c #C2C1C1",
"r.	c #626161",
"s.	c #908F8F",
"t.	c #9D9C9C",
"u.	c #2D2D2D",
"v.	c #A2A2A2",
"w.	c #313030",
"x.	c #9C9B9C",
"y.	c #2D2C2D",
"z.	c #8E8D8D",
"A.	c #232323",
"B.	c #959494",
"C.	c #282828",
"D.	c #313031",
"E.	c #A2A0A1",
"F.	c #A3A2A2",
"G.	c #313131",
"H.	c #A6A4A4",
"I.	c #333232",
"J.	c #ABA8A9",
"K.	c #363535",
"L.	c #626162",
"M.	c #9B9899",
"N.	c #2C2A2B",
"O.	c #C3C3C3",
"P.	c #F9F9F9",
"Q.	c #9E9C9C",
"R.	c #2E2D2D",
"S.	c #B8B7B8",
"T.	c #FAFAFA",
"U.	c #908F90",
"V.	c #CFCFCF",
"W.	c #929090",
"X.	c #272525",
"Y.	c #040404",
"Z.	c #464445",
"`.	c #949393",
" +	c #F6F6F6",
".+	c #969494",
"++	c #292828",
"@+	c #3B3B3B",
"#+	c #939292",
"$+	c #333333",
"%+	c #B1B1B1",
"&+	c #FDFCFC",
"*+	c #989697",
"=+	c #2B292A",
"-+	c #959595",
";+	c #272626",
">+	c #1D1D1D",
",+	c #999999",
"'+	c #919090",
")+	c #1F1F1F",
"!+	c #919191",
"~+	c #393939",
"{+	c #0F0F0F",
". . . . . . . . . . . . . . . . . . . . . . . . . . . . . . . . . . . . . . . . . . . . . . . . ",
". . . . . . . . . . . . . . . . . . . . . . . . . . . . . . . . . . . . . . . . . + + . . . . . ",
". . . . . . . . . . . . . . . . . . . . . . . . . . . . . . . . . . . . . . . . . . . . . . . . ",
". . . . . . . . . . . . . . . . . . . . . . . . . . . . . . @ . . . . . . . . . . . . . . . . . ",
". . . . . . . . . . . . . . . . . . . . . . . . . . . # $ % . . . . . . . . . . . . . . . . . . ",
". . . . . . . . . . . . . . . . . . . . . . . . . . & * = - . . . . . . . . . . . . . . . . . . ",
". . . . . . . . . . . . . . . . . . . . . . ; . . > , ' ) ! . . . . . . . . . . . . . . . . . . ",
". . . . . . . . . . . . . . . . . . . . . ; . . ~ { ' ] ^ / . . . . . . . . . . . . . . . . . . ",
". . . . . . . . . . . . . . . . . . . . ; . . - ( _ : < [ } . . . . . . . . . . . . . . . . . . ",
". . . . . . . . . . . . . . . . . . . ; . . | 1 2 : < < ' 3 . . . . . . . . . . . . . . . . . . ",
". . . . . . . . . . . . . . . . . . . . . 4 5 6 7 < < < 8 9 . . . . . . . . . . . . . . . . . . ",
". . . . . . . . . . . . . . . . . . . . % 0 a b < < < < c d . . . . . . . . . . . . . . . . . . ",
". . . . . . . . . . . . . . . . . . . . e f g < < < < < h i . . . . . . . . . . . . . . . . . . ",
". . . . . . . . . . . . . . . . . . . . j 6 k < < < < < l m . . . . . . . . . . . . . . . . . . ",
". . . . . . . . . . . . . . . . . . . . n 6 o < < < < < p 9 . . . . . . . . . . . . . . . . . . ",
". . . . . . . . . . . . . . . . . . . . n 6 o < < < < < p 9 . . . . . . . . . . . . . . . . . . ",
". . . . . . . . . . . . . . . . . . . . n 6 o < < < < < p 9 . . . . . . . . . . . . . . . . . . ",
". . . . . . . . . . . . . . . . . . . . n 6 o < < < < < 8 9 . . . . . . . . . . . . . . . . . . ",
". . . . . . . . . . . . . . . . . . . . n 6 o < < < < < p 9 . . . . . . . . . . . . . . . . . . ",
". . . . . . . . . . . . . . . . . . . . n 6 o < < < < < p 9 . . . . . . . . . . . . . . . . . . ",
". . . . . . . . . . . . . . . . . . . . n 6 o < < < < < p 9 . . . . . . . . . . . . . . . . . . ",
". . . . . . . . . . . . . . . . . . . . n 6 o < < < < < p 9 . . . . . . . . . . . . . . . . . . ",
". . . . . . . . . . . . . . . . . . . . n 6 o < < < < < p 9 . . . . . . . . . . . . . . . . . . ",
". . . . . . . . . . . . . . . . . . . . n 6 o < < < < < p 9 . . . . . . . . . . . . . . . . . . ",
". . . . . . . . . . . . . . . . . . . . n 6 o < < < < < p 9 . . . . . . . . . . . . . . . . . . ",
". . . . . . . . . . . . . . . . . . . . n 6 o < < < < < p 9 . . . . . . . . . . . . . . . . . . ",
". . . . . . . . . . . . . . . . . . . . n 6 o < < < < < p 9 . . . . . . . . . . . . . . . . . . ",
". . . . . . . . . . . . . . . . . . . . n 6 o < < < < < p 9 . . . . . . . . . . . . . . . . . . ",
". . . . . . . . . . . . . . . . . . . . n 6 o < < < < < p 9 . . . . . . . . . . . . . . . . . . ",
". . . . . . . . . . . . . . . . . . . . n 6 o < < < < < p 9 . . . . . . . . . . . . . . . . . . ",
". . . . . . . . . . . . . . . . . . . . n 6 o < < < < < p 9 . . . . . . . . . . . . . . . . . . ",
". . . . . . . . . . . . . . . . . . . . n 6 o < < < < < p 9 . . . . . . . . . . . . . . . . . . ",
". . . . . . . . . . . . . . . . . . . . n 6 o < < < < < p 9 . . . . . . . . . . . . . . . . . . ",
". . . . . . . . . . . . . . . . . . . . n 6 o < < < < < p 9 . . . . . . . . . . . . . . . . . . ",
". . . . . . . . . . . . . . . . . . . . n 6 o < < < < < p 9 . . . . . . . . . . . . . . . . . . ",
". . . . . . . . . . . . . . . . . . . . n 6 o < < < < < p 9 . . . . . . . . . . . . . . . . . . ",
". . . . . . . . . . . . . . . . . . . . n 6 o < < < < < p 9 . . . . . . . . . . . . . . . . . . ",
". . . . . . . . . . . . . . . . . . . . n 6 o < < < < < p 9 . . . . . . . . . . . . . . . . . . ",
". . . . . . . . . . . . . . . . . . . . n 6 o < < < < < p 9 . . . . . . . . . . . . . . . . . . ",
". . . . . . . . . . . . . . . . . . . . q r k < < < < < p 9 . . . . . . . . . . . . . . . . . . ",
". . . . . . . . . . . . . . . . . . . . s t o < < < < < p 9 . . . . . . . . . . . . . . . . . . ",
". . . . . . . . . . . . . . . . . . . . u v w < < < < < x y . . . . . . . . . . . . . . . . . . ",
". . . . . . . . . . . . . . . . . . . . . z A B < < < < C D . . . . . . . . . . . . . . . . . . ",
". . . . . . . . . . . . . . . . . . . ; . . E = F < < < G H . . . . . . . . . . . . . . . . . . ",
". . . . . . . . . . . . . . . . . . . . ; . I J K L < < M i . . . . . . . . . . . . . . . . . . ",
". . . . . . . . . . . . . . . . . . . . . @ . N O P Q < h R . . . . . . . . . . . . . . . . . . ",
". . . . . . . . . . . . . . . . . . . . . . @ . S T U a V W . . . . . . . . . . . . . . . . . . ",
". . . . . . . . . . . . . . . . . . . . . . . @ . . X Y Z ` . . . . . . . . . . . . . . . . . . ",
". . . . . . . . . . . . . . . . . . . . . . . . ; . .  ...+.. . . . . . . . . . . . . . . . . . ",
". . . . . . . . . . . . . . . . . . . . . . . . . ; . . @.#.. . . . . . . . . . . . . . . . . . ",
". . . . . . . . . . . . . . . . . . . . . . . . . . . $.%.&.. . . . . . . . . . . . . . . . . . ",
". . . . . . . . . . . . . . . . . . . . . . . . . . . *.=.-.. . . . . . . . . . . . . . . . . . ",
". . . . . . . . . . . . . . . . . . . . . . . . . ;.W >.,.'.. . . . . . . . . . . . . . . . . . ",
". . . . . . . . . . . . . . . . . . . . . . . . ).!.>.~.{.].. . . . . . . . . . . . . . . . . . ",
". . . . . . . . . . . . . . . . . . . . . . . ^./.(._.< :.<.. . . . . . . . . . . . . . . . . . ",
". . . . . . . . . . . . . . . . . . . . . . . [.}.|.< < 1.2.. . . . . . . . . . . . . . . . . . ",
". . . . . . . . . . . . . . . . . . . ; . . 3.4.5.6.< < 7.2.. . . . . . . . . . . . . . . . . . ",
". . . . . . . . . . . . . . . . . . . . 8.9.0.|.a.< < < b.c.. . . . . . . . . . . . . . . . . . ",
". . . . . . . . . . . . . . . . . . . . d.e.f.g.< < < < 5 h.. . . . . . . . . . . . . . . . . . ",
". . . . . . . . . . . . . . . . . . . . i.j.] < < < < < k.l.. . . . . . . . . . . . . . . . . . ",
". . . . . . . . . . . . . . . . . . . . m.n.k < < < < < o.l.. . . . . . . . . . . . . . . . . . ",
". . . . . . . . . . . . . . . . . . . . p.q.o < < < < < o.l.. . . . . . . . . . . . . . . . . . ",
". . . . . . . . . . . . . . . . . . . . r.q.o < < < < < o.l.. . . . . . . . . . . . . . . . . . ",
". . . . . . . . . . . . . . . . . . . . r.n.o < < < < < :.l.. . . . . . . . . . . . . . . . . . ",
". . . . . . . . . . . . . . . . . . . . u n.o < < < < < s.2.. . . . . . . . . . . . . . . . . . ",
". . . . . . . . . . . . . . . . . . . . r.q.o < < < < < t.u.. . . . . . . . . . . . . . . . . . ",
". . . . . . . . . . . . . . . . . . . . u n.o < < < < < v.w.. . . . . . . . . . . . . . . . . . ",
". . . . . . . . . . . . . . . . . . . . r.q.o < < < < < P w.. . . . . . . . . . . . . . . . . . ",
". . . . . . . . . . . . . . . . . . . . r.q.o < < < < < x.y.. . . . . . . . . . . . . . . . . . ",
". . . . . . . . . . . . . . . . . . . . u n.o < < < < < 0 c.. . . . . . . . . . . . . . . . . . ",
". . . . . . . . . . . . . . . . . . . . r.q.o < < < < < :.l.. . . . . . . . . . . . . . . . . . ",
". . . . . . . . . . . . . . . . . . . . r.n.o < < < < < o.l.. . . . . . . . . . . . . . . . . . ",
". . . . . . . . . . . . . . . . . . . . r.n.o < < < < < o.l.. . . . . . . . . . . . . . . . . . ",
". . . . . . . . . . . . . . . . . . . . r.q.o < < < < < o.l.. . . . . . . . . . . . . . . . . . ",
". . . . . . . . . . . . . . . . . . . . r.n.o < < < < < o.l.. . . . . . . . . . . . . . . . . . ",
". . . . . . . . . . . . . . . . . . . . r.n.o < < < < < o.l.. . . . . . . . . . . . . . . . . . ",
". . . . . . . . . . . . . . . . . . . . r.n.o < < < < < o.l.. . . . . . . . . . . . . . . . . . ",
". . . . . . . . . . . . . . . . . . . . u n.o < < < < < :.l.. . . . . . . . . . . . . . . . . . ",
". . . . . . . . . . . . . . . . . . . . r.q.o < < < < < z.A.. . . . . . . . . . . . . . . . . . ",
". . . . . . . . . . . . . . . . . . . . r.q.o < < < < < B.C.. . . . . . . . . . . . . . . . . . ",
". . . . . . . . . . . . . . . . . . . . u n.o < < < < < A D.. . . . . . . . . . . . . . . . . . ",
". . . . . . . . . . . . . . . . . . . . r.q.o < < < < < E.w.. . . . . . . . . . . . . . . . . . ",
". . . . . . . . . . . . . . . . . . . . u n.o < < < < < F.G.. . . . . . . . . . . . . . . . . . ",
". . . . . . . . . . . . . . . . . . . . u n.o < < < < < H.I.. . . . . . . . . . . . . . . . . . ",
". . . . . . . . . . . . . . . . . . . . p.f o < < < < < J.K.. . . . . . . . . . . . . . . . . . ",
". . . . . . . . . . . . . . . . . . . . L.n.o < < < < < M.N.. . . . . . . . . . . . . . . . . . ",
". . . . . . . . . . . . . . . . . . . . m.O.P.< a.< < < Q.R.. . . . . . . . . . . . . . . . . . ",
". . . . . . . . . . . . . . . . . . . . m.S.g < T.6.< < Q.R.. . . . . . . . . . . . . . . . . . ",
". . . . . . . . . . . . . . . . . . . . - U.V.: < 6.< < W.X.. . . . . . . . . . . . . . . . . . ",
". . . . . . . . . . . . . . . . . . . Y.. Z.`.Q  +< < < .+++. . . . . . . . . . . . . . . . . . ",
". . . . . . . . . . . . . . . . . . . . + . @+#+O.: < < t.R.. . . . . . . . . . . . . . . . . . ",
". . . . . . . . . . . . . . . . . . . . . Y.. $+:.%+g.< 0 c.. . . . . . . . . . . . . . . . . . ",
". . . . . . . . . . . . . . . . . . . . . . @ . u.=._.&+*+=+. . . . . . . . . . . . . . . . . . ",
". . . . . . . . . . . . . . . . . . . . . . . ; . &.-+8 * ;+. . . . . . . . . . . . . . . . . . ",
". . . . . . . . . . . . . . . . . . . . . . . . . . >+,+'+$+. . . . . . . . . . . . . . . . . . ",
". . . . . . . . . . . . . . . . . . . . . . . . . . . )+!+~+. . . . . . . . . . . . . . . . . . ",
". . . . . . . . . . . . . . . . . . . . . . . . . . . . $+{+. . . . . . . . . . . . . . . . . . ",
". . . . . . . . . . . . . . . . . . . . . . . . . . . . . . . . . . . . . . . . . . . . . . . . ",
". . . . . . . . . . . . . . . . . . . . . . . . . . . . . . . . . . . . . . . . . . . . . . . . ",
". . . . . . . . . . . . . . . . . . . . . . . . . . . . . . . . . . . . . . . . . . . . . . . . "};
