/* XPM */
static char * placar4_xpm[] = {
"47 100 206 2",
"  	c None",
". 	c #000000",
"+ 	c #626161",
"@ 	c #626262",
"# 	c #020202",
"$ 	c #434343",
"% 	c #747374",
"& 	c #646364",
"* 	c #B1B0B1",
"= 	c #4C4C4C",
"- 	c #2E2D2E",
"; 	c #817F80",
"> 	c #7E7C7D",
", 	c #666465",
"' 	c #F0F0F0",
") 	c #B7B7B7",
"! 	c #555454",
"~ 	c #030303",
"{ 	c #010101",
"] 	c #393738",
"^ 	c #9E9E9E",
"/ 	c #D8D8D8",
"( 	c #787677",
"_ 	c #656465",
": 	c #FFFFFF",
"< 	c #FEFEFE",
"[ 	c #B7B6B6",
"} 	c #585657",
"| 	c #353535",
"1 	c #9D9C9C",
"2 	c #FAFAFA",
"3 	c #E2E2E2",
"4 	c #797878",
"5 	c #B9B8B8",
"6 	c #4E4E4E",
"7 	c #383838",
"8 	c #9F9F9F",
"9 	c #F8F8F8",
"0 	c #666565",
"a 	c #FCFCFC",
"b 	c #B6B6B6",
"c 	c #5C5B5B",
"d 	c #404040",
"e 	c #9F9E9E",
"f 	c #787778",
"g 	c #666566",
"h 	c #525252",
"i 	c #323131",
"j 	c #9E9D9D",
"k 	c #FBFBFB",
"l 	c #BAB9B9",
"m 	c #363636",
"n 	c #A3A1A2",
"o 	c #F9F9F9",
"p 	c #C7C7C7",
"q 	c #AAA9A9",
"r 	c #7A7879",
"s 	c #C8C7C7",
"t 	c #444344",
"u 	c #AAAAAA",
"v 	c #797778",
"w 	c #777576",
"x 	c #787777",
"y 	c #656364",
"z 	c #C7C6C7",
"A 	c #434242",
"B 	c #A8A6A7",
"C 	c #C5C5C5",
"D 	c #424141",
"E 	c #9C9B9B",
"F 	c #9B9A9A",
"G 	c #F1F1F1",
"H 	c #F7F7F7",
"I 	c #ABAAAA",
"J 	c #3F403F",
"K 	c #161516",
"L 	c #8D8C8C",
"M 	c #ACABAB",
"N 	c #393939",
"O 	c #222222",
"P 	c #939292",
"Q 	c #EFEFEF",
"R 	c #121212",
"S 	c #515151",
"T 	c #676767",
"U 	c #696969",
"V 	c #646464",
"W 	c #616161",
"X 	c #5C5C5C",
"Y 	c #585858",
"Z 	c #5A5A5A",
"` 	c #5F5F5F",
" .	c #606060",
"..	c #5B5B5B",
"+.	c #575757",
"@.	c #464646",
"#.	c #8F8E8F",
"$.	c #656464",
"%.	c #F5F5F5",
"&.	c #ADACAC",
"*.	c #424242",
"=.	c #636262",
"-.	c #B8B8B8",
";.	c #FDFDFD",
">.	c #DFDFDF",
",.	c #ABABAB",
"'.	c #494848",
").	c #222322",
"!.	c #8C8B8C",
"~.	c #686667",
"{.	c #E7E7E7",
"].	c #2C2C2C",
"^.	c #6F6E6F",
"/.	c #DDDDDD",
"(.	c #D9D8D9",
"_.	c #959494",
":.	c #0A0A0A",
"<.	c #908F8F",
"[.	c #CFCECF",
"}.	c #7C7B7C",
"|.	c #737272",
"1.	c #3B3A3A",
"2.	c #343333",
"3.	c #969596",
"4.	c #E6E5E5",
"5.	c #E5E5E5",
"6.	c #888787",
"7.	c #474646",
"8.	c #040304",
"9.	c #464546",
"0.	c #B0B0B0",
"a.	c #3C3C3C",
"b.	c #2B2B2B",
"c.	c #262626",
"d.	c #B0AFAF",
"e.	c #B8B7B7",
"f.	c #6B6A6B",
"g.	c #757475",
"h.	c #A9A8A9",
"i.	c #242424",
"j.	c #2E2E2E",
"k.	c #191919",
"l.	c #A8A7A8",
"m.	c #E6E6E6",
"n.	c #ADACAD",
"o.	c #171616",
"p.	c #858384",
"q.	c #878686",
"r.	c #D7D6D7",
"s.	c #F3F3F3",
"t.	c #CACACA",
"u.	c #252525",
"v.	c #989797",
"w.	c #D4D4D4",
"x.	c #858485",
"y.	c #888687",
"z.	c #D2D2D2",
"A.	c #ACACAC",
"B.	c #757474",
"C.	c #949393",
"D.	c #F4F4F4",
"E.	c #E3E3E3",
"F.	c #878586",
"G.	c #2F2F2F",
"H.	c #797979",
"I.	c #6D6D6D",
"J.	c #717171",
"K.	c #939393",
"L.	c #B9B9B9",
"M.	c #BBBBBB",
"N.	c #BDBDBD",
"O.	c #C2C2C2",
"P.	c #C4C4C4",
"Q.	c #C3C3C3",
"R.	c #C1C1C1",
"S.	c #B4B4B4",
"T.	c #8D8D8D",
"U.	c #7F7F7F",
"V.	c #747474",
"W.	c #565656",
"X.	c #232323",
"Y.	c #0B0B0B",
"Z.	c #1A1A1A",
"`.	c #969595",
" +	c #141414",
".+	c #1C1C1C",
"++	c #1E1E1E",
"@+	c #0D0D0D",
"#+	c #979797",
"$+	c #222121",
"%+	c #F6F6F6",
"&+	c #9A999A",
"*+	c #868485",
"=+	c #9E9D9E",
"-+	c #9E9C9D",
";+	c #868586",
">+	c #858484",
",+	c #868585",
"'+	c #B2B1B2",
")+	c #1B1B1B",
"!+	c #2B2A2A",
"~+	c #838182",
"{+	c #898788",
"]+	c #212121",
"^+	c #9B9A9B",
"/+	c #6A696A",
". . . . . . . . . . . . . . . . . . . . . . . . . . . . . . . . . . . . . . . . . . . . . . . ",
". . . . . . . . . . . . . . . . . . . . . . . . . . . . . . . . . . . . . . . . . . . . . . . ",
". . . . . . . . . . . . . . . . . . . . . . . . . . . . . . . . . . . . . . . . . . . . . . . ",
". . . . . . . . . . . . . . . . . . . . . . . . . . . . . . . . . . . . . . . . . . . . . . . ",
". . . . . . . . . . . . . . . . . . . . . . . . . . . . . . . . . . . . . . . . . . . . . . . ",
". . . . . . . . . . . . . . . . . . . . . . . . . . . . . . . . . . . . . . . . . . . . . . . ",
". . . . . . . . . . . . . . . . . . . . . . . . . . . . . . . . . . . . . . . . . . . . . . . ",
". . . . . . . . . . . . . . . . . . . . . . . . . . . . . . . . . . . . . . . . . . . . . . . ",
". . . . . . . . . . . . . . . . . . . . . . . . . . . . . . . . . . . . . . . . . . . . . . . ",
". . . . . . . . . . . . . . . . . . . . . . . . . . . . . . . . . . . . . . . . . . . . . . . ",
"+ @ # . . . . . . . . . . . . . . . . . . . . . . . . . . . . . . . . . . . . . . . . . $ % . ",
"& * = . . . . . . . . . . . . . . . . . . . . . . . . . . . . . . . . . . . . . . . . - ; > . ",
", ' ) ! ~ . . . . . . . . . . . . . . . . . . . . . . . . . . . . . . . . . . . . { ] ^ / ( . ",
"_ : < [ } . . . . . . . . . . . . . . . . . . . . . . . . . . . . . . . . . . . . | 1 2 3 4 . ",
"_ : : : 5 6 { . . . . . . . . . . . . . . . . . . . . . . . . . . . . . . . . { 7 8 9 : 3 ( . ",
"0 : : : a b c ~ . . . . . . . . . . . . . . . . . . . . . . . . . . . . . . { d e 9 : : 3 f . ",
"g : : : : : ) h . . . . . . . . . . . . . . . . . . . . . . . . . . . . . . i j k : : : 3 ( . ",
"g : : : : : < l m . . . . . . . . . . . . . . . . . . . . . . . . . . . . . n o : : : : 3 ( . ",
", : : : : : : p $ . . . . . . . . . . . . . . . . . . . . . . . . . . . . . q : : : : : 3 r . ",
"g : : : : : : s t . . . . . . . . . . . . . . . . . . . . . . . . . . . . . u : : : : : 3 ( . ",
"g : : : : : : s t . . . . . . . . . . . . . . . . . . . . . . . . . . . . . u : : : : : 3 v . ",
"g : : : : : : s t . . . . . . . . . . . . . . . . . . . . . . . . . . . . . u : : : : : 3 w . ",
", : : : : : : s t . . . . . . . . . . . . . . . . . . . . . . . . . . . . . u : : : : : 3 v . ",
", : : : : : : s t . . . . . . . . . . . . . . . . . . . . . . . . . . . . . u : : : : : 3 ( . ",
"g : : : : : : s t . . . . . . . . . . . . . . . . . . . . . . . . . . . . . u : : : : : 3 ( . ",
"g : : : : : : s t . . . . . . . . . . . . . . . . . . . . . . . . . . . . . u : : : : : 3 x . ",
"g : : : : : : s t . . . . . . . . . . . . . . . . . . . . . . . . . . . . . u : : : : : 3 v . ",
", : : : : : : s t . . . . . . . . . . . . . . . . . . . . . . . . . . . . . u : : : : : 3 ( . ",
"_ : : : : : : s t . . . . . . . . . . . . . . . . . . . . . . . . . . . . . u : : : : : 3 v . ",
"g : : : : : : s t . . . . . . . . . . . . . . . . . . . . . . . . . . . . . u : : : : : 3 v . ",
"g : : : : : : s t . . . . . . . . . . . . . . . . . . . . . . . . . . . . . u : : : : : 3 v . ",
"g : : : : : : s t . . . . . . . . . . . . . . . . . . . . . . . . . . . . . u : : : : : 3 v . ",
"0 : : : : : : s t . . . . . . . . . . . . . . . . . . . . . . . . . . . . . u : : : : : 3 w . ",
"y : : : : : : s t . . . . . . . . . . . . . . . . . . . . . . . . . . . . . u : : : : : 3 v . ",
"g : : : : : : s t . . . . . . . . . . . . . . . . . . . . . . . . . . . . . u : : : : : 3 ( . ",
"g : : : : : : s t . . . . . . . . . . . . . . . . . . . . . . . . . . . . . u : : : : : 3 x . ",
"g : : : : : : s t . . . . . . . . . . . . . . . . . . . . . . . . . . . . . u : : : : : 3 v . ",
"0 : : : : : : s t . . . . . . . . . . . . . . . . . . . . . . . . . . . . . u : : : : : 3 w . ",
"_ : : : : : : s t . . . . . . . . . . . . . . . . . . . . . . . . . . . . . u : : : : : 3 ( . ",
"g : : : : : : s t . . . . . . . . . . . . . . . . . . . . . . . . . . . . . u : : : : : 3 v . ",
"g : : : : : : s t . . . . . . . . . . . . . . . . . . . . . . . . . . . . . u : : : : : 3 x . ",
"g : : : : : : s t . . . . . . . . . . . . . . . . . . . . . . . . . . . . . u : : : : : 3 v . ",
"_ : : : : : : z A . . . . . . . . . . . . . . . . . . . . . . . . . . . . . B : : : : : 3 v . ",
"_ : : : : : : C D . . . . . . . . . . . . . . . . . . . . . . . . . . . . . u : : : : : 3 v . ",
"0 : : : : : 2 E . . . . . . . . . . . . . . . . . . . . . . . . . . . . . . F G : : : : 3 v . ",
"g : : : : H I J { . . . . . . . . . . . . . . . . . . . . . . . . . . . . . K L G : : : 3 v . ",
", : : : H M N { . . . . . . . . . . . . . . . . . . . . . . . . . . . . . . . O P Q : : 3 ( . ",
"g : : o M m . . . R S @ T U V W X Y Z ` @ V T T V @  ...Y +.+.+.+.@.| . . . . . . #.G : 3 v . ",
"$.: %.&.*.{ . . =.-.Q k ;.: : : : : : : : : : : : : : : : : : : : 9 Q >.,.'.. . . ).!.Q 3 x . ",
"~.{.&.].{ . . ^./.: : : : : : : : : : : : : : : : : : : : : : : : : : : < (._.. . . :.<.[.}.. ",
"|.M 1.. { 2.3.4.: : : : : : : : : : : : : : : : : : : : : : : : : : : : : : 5.6.7.{ . 8.> !.. ",
"9.d { . _ 0.H : : : : : : : : : : : : : : : : : : : : : : : : : : : : : : : : ;.* a.. . b.h . ",
". . . c.d.: : : : : : : : : : : : : : : : : : : : : : : : : : : : : : : : : : : a e.f.. . . . ",
". . . . g.I Q H : : : : : : : : : : : : : : : : : : : : : : : : : : : : : : : o h.i.. . *.j.. ",
". . . . . k.l.%.: : : : : : : : : : : : : : : : : : : : : : : : : : : : : : m.n.*.{ . o.p.q.. ",
". . . . . . . } r.< : : : : : : : : : : : : : : : : : : : : : : : : < a s.t.L . . { u.v.w.x.. ",
". . . . . . . . y.z.: : : < < : : : : : : : : : : : : : : : : : ;.o : m.A.B.. . . b.C.D.E.F.. ",
". . . . . . . . # G.U H.I.J.K.,.L.L.L.L.M.N.O.P.Q.Q.R.S.8 T.U.V...W.@.X.Y.. . . Z.`.%.: E.F.. ",
". . . . . . . . . . . . . . . . . . . . . . {  +.+O ++@+. . . . . . . . . . { | #+s.: : E.p.. ",
". . . . . . . . . . . . . . . . . . . . . . . . . . . . . . . . . . . . . . $+C.%+: : : E.F.. ",
". . . . . . . . . . . . . . . . . . . . . . . . . . . . . . . . . . . . . . &+%.: : : : E.p.. ",
". . . . . . . . . . . . . . . . . . . . . . . . . . . . . . . . . . . . . . 1 : : : : : E.*+. ",
". . . . . . . . . . . . . . . . . . . . . . . . . . . . . . . . . . . . . . F : : : : : E.x.. ",
". . . . . . . . . . . . . . . . . . . . . . . . . . . . . . . . . . . . . . =+: : : : : E.q.. ",
". . . . . . . . . . . . . . . . . . . . . . . . . . . . . . . . . . . . . . j : : : : : E.F.. ",
". . . . . . . . . . . . . . . . . . . . . . . . . . . . . . . . . . . . . . -+: : : : : E.;+. ",
". . . . . . . . . . . . . . . . . . . . . . . . . . . . . . . . . . . . . . j : : : : : E.*+. ",
". . . . . . . . . . . . . . . . . . . . . . . . . . . . . . . . . . . . . . -+: : : : : E.x.. ",
". . . . . . . . . . . . . . . . . . . . . . . . . . . . . . . . . . . . . . j : : : : : E.q.. ",
". . . . . . . . . . . . . . . . . . . . . . . . . . . . . . . . . . . . . . j : : : : : E.q.. ",
". . . . . . . . . . . . . . . . . . . . . . . . . . . . . . . . . . . . . . j : : : : : E.F.. ",
". . . . . . . . . . . . . . . . . . . . . . . . . . . . . . . . . . . . . . j : : : : : E.F.. ",
". . . . . . . . . . . . . . . . . . . . . . . . . . . . . . . . . . . . . . -+: : : : : E.F.. ",
". . . . . . . . . . . . . . . . . . . . . . . . . . . . . . . . . . . . . . j : : : : : E.>+. ",
". . . . . . . . . . . . . . . . . . . . . . . . . . . . . . . . . . . . . . -+: : : : : E.F.. ",
". . . . . . . . . . . . . . . . . . . . . . . . . . . . . . . . . . . . . . ^ : : : : : E.F.. ",
". . . . . . . . . . . . . . . . . . . . . . . . . . . . . . . . . . . . . . j : : : : : E.*+. ",
". . . . . . . . . . . . . . . . . . . . . . . . . . . . . . . . . . . . . . -+: : : : : E.,+. ",
". . . . . . . . . . . . . . . . . . . . . . . . . . . . . . . . . . . . . . j : : : : : E.>+. ",
". . . . . . . . . . . . . . . . . . . . . . . . . . . . . . . . . . . . . . j : : : : : E.F.. ",
". . . . . . . . . . . . . . . . . . . . . . . . . . . . . . . . . . . . . . -+: : : : : E.x.. ",
". . . . . . . . . . . . . . . . . . . . . . . . . . . . . . . . . . . . . . j : : : : : E.F.. ",
". . . . . . . . . . . . . . . . . . . . . . . . . . . . . . . . . . . . . . j : : : : : E.x.. ",
". . . . . . . . . . . . . . . . . . . . . . . . . . . . . . . . . . . . . . -+: : : : : E.p.. ",
". . . . . . . . . . . . . . . . . . . . . . . . . . . . . . . . . . . . . . j : : : : : E.*+. ",
". . . . . . . . . . . . . . . . . . . . . . . . . . . . . . . . . . . . . . -+: : : : : E.x.. ",
". . . . . . . . . . . . . . . . . . . . . . . . . . . . . . . . . . . . . . F : : : : : E.F.. ",
". . . . . . . . . . . . . . . . . . . . . . . . . . . . . . . . . . . . . . '+%+: : : : E.F.. ",
". . . . . . . . . . . . . . . . . . . . . . . . . . . . . . . . . . . . . { )+;+H : : : E.;+. ",
". . . . . . . . . . . . . . . . . . . . . . . . . . . . . . . . . . . . . . . !+6.a : : E.~+. ",
". . . . . . . . . . . . . . . . . . . . . . . . . . . . . . . . . . . . . . . . Z.L %.: E.{+. ",
". . . . . . . . . . . . . . . . . . . . . . . . . . . . . . . . . . . . . . . . . i.q.%.E.q.. ",
". . . . . . . . . . . . . . . . . . . . . . . . . . . . . . . . . . . . . . . . . { ]+^+w.*+. ",
". . . . . . . . . . . . . . . . . . . . . . . . . . . . . . . . . . . . . . . . . . .  +/+T.. ",
". . . . . . . . . . . . . . . . . . . . . . . . . . . . . . . . . . . . . . . . . . . . | _ . ",
". . . . . . . . . . . . . . . . . . . . . . . . . . . . . . . . . . . . . . . . . . . . . . . ",
". . . . . . . . . . . . . . . . . . . . . . . . . . . . . . . . . . . . . . . . . . . . . . . ",
". . . . . . . . . . . . . . . . . . . . . . . . . . . . . . . . . . . . . . . . . . . . . . . ",
"                                                                                              ",
"                                                                                              "};
