/* XPM */
static char * placar3_xpm[] = {
"49 102 274 2",
"  	c None",
". 	c #000000",
"+ 	c #090909",
"@ 	c #908E8F",
"# 	c #B7B6B6",
"$ 	c #CACACA",
"% 	c #CBCACB",
"& 	c #CBCACA",
"* 	c #CAC9CA",
"= 	c #CAC9C9",
"- 	c #C5C5C5",
"; 	c #969596",
"> 	c #181818",
", 	c #242424",
"' 	c #888787",
") 	c #F0F0F0",
"! 	c #FFFFFF",
"~ 	c #F7F7F7",
"{ 	c #AEADAD",
"] 	c #484748",
"^ 	c #020202",
"/ 	c #020001",
"( 	c #979797",
"_ 	c #EFEFEF",
": 	c #FAFAFA",
"< 	c #343434",
"[ 	c #010101",
"} 	c #888788",
"| 	c #F8F8F8",
"1 	c #ADACAC",
"2 	c #424142",
"3 	c #666666",
"4 	c #5F5E5E",
"5 	c #919191",
"6 	c #EEEEEE",
"7 	c #B7B5B6",
"8 	c #3B3B3B",
"9 	c #8C8B8B",
"0 	c #B9B7B8",
"a 	c #676667",
"b 	c #3C3B3C",
"c 	c #868686",
"d 	c #F9F9F9",
"e 	c #ADABAC",
"f 	c #343333",
"g 	c #8F8E8E",
"h 	c #E1E1E1",
"i 	c #C9C9C9",
"j 	c #1A191A",
"k 	c #8A898A",
"l 	c #EBEBEB",
"m 	c #EDECEC",
"n 	c #EDEDED",
"o 	c #EDECED",
"p 	c #EEEDEE",
"q 	c #ECECEC",
"r 	c #ACACAC",
"s 	c #3F3F3F",
"t 	c #919091",
"u 	c #E0E0E0",
"v 	c #4D4D4D",
"w 	c #232222",
"x 	c #323131",
"y 	c #2E2E2E",
"z 	c #302F30",
"A 	c #2F2E2F",
"B 	c #302F2F",
"C 	c #2F2F2F",
"D 	c #313031",
"E 	c #2D2C2D",
"F 	c #D2D1D1",
"G 	c #4C4B4C",
"H 	c #1E1D1E",
"I 	c #918F90",
"J 	c #908F90",
"K 	c #D0CFD0",
"L 	c #686667",
"M 	c #E3E2E3",
"N 	c #767575",
"O 	c #F3F3F3",
"P 	c #4D4D4E",
"Q 	c #232122",
"R 	c #F4F4F4",
"S 	c #4C4C4D",
"T 	c #252224",
"U 	c #C9C8C8",
"V 	c #414142",
"W 	c #252324",
"X 	c #262425",
"Y 	c #4D4C4D",
"Z 	c #262325",
"` 	c #C9C8C9",
" .	c #262626",
"..	c #262324",
"+.	c #444445",
"@.	c #3D3C3D",
"#.	c #252223",
"$.	c #2A2A2A",
"%.	c #282929",
"&.	c #494949",
"*.	c #CBC9CA",
"=.	c #2A2A2B",
"-.	c #424242",
";.	c #434343",
">.	c #2C2C2C",
",.	c #454344",
"'.	c #545353",
").	c #E9E9E9",
"!.	c #9F9D9E",
"~.	c #EAEAEA",
"{.	c #4C4C4C",
"].	c #9C9A9B",
"^.	c #CBCBCB",
"/.	c #0D0D0D",
"(.	c #989797",
"_.	c #010000",
":.	c #777576",
"<.	c #666565",
"[.	c #656465",
"}.	c #666465",
"|.	c #656464",
"1.	c #676666",
"2.	c #828081",
"3.	c #646363",
"4.	c #898788",
"5.	c #1A1A1A",
"6.	c #4B4A4B",
"7.	c #504F4F",
"8.	c #929191",
"9.	c #E2E1E1",
"0.	c #DFDFDF",
"a.	c #9F9E9E",
"b.	c #201F1F",
"c.	c #969595",
"d.	c #CDCDCD",
"e.	c #3B3A3A",
"f.	c #A3A2A3",
"g.	c #848383",
"h.	c #686868",
"i.	c #030303",
"j.	c #979697",
"k.	c #5F5E5F",
"l.	c #7A7879",
"m.	c #BFBFBF",
"n.	c #FCFCFC",
"o.	c #B8B7B7",
"p.	c #545253",
"q.	c #060505",
"r.	c #7F7E7E",
"s.	c #9B9A9A",
"t.	c #D8D8D8",
"u.	c #FEFEFE",
"v.	c #CFCECE",
"w.	c #848384",
"x.	c #F1F1F1",
"y.	c #A9A8A8",
"z.	c #202020",
"A.	c #403F3F",
"B.	c #DDDDDD",
"C.	c #D7D6D7",
"D.	c #464646",
"E.	c #807F80",
"F.	c #AAA8A9",
"G.	c #555455",
"H.	c #C3C2C2",
"I.	c #FDFDFD",
"J.	c #A4A3A4",
"K.	c #807F7F",
"L.	c #838282",
"M.	c #D5D5D5",
"N.	c #737273",
"O.	c #BFBEBF",
"P.	c #C0BFBF",
"Q.	c #C0BFC0",
"R.	c #C7C6C6",
"S.	c #DCDBDB",
"T.	c #B2B1B2",
"U.	c #484848",
"V.	c #D8D7D7",
"W.	c #CFCECF",
"X.	c #3C3C3C",
"Y.	c #6B696A",
"Z.	c #6B6A6A",
"`.	c #6A6A6A",
" +	c #DADADA",
".+	c #838182",
"++	c #BFBEBE",
"@+	c #868586",
"#+	c #5A5A5A",
"$+	c #DEDDDD",
"%+	c #989798",
"&+	c #F2F2F2",
"*+	c #9A9899",
"=+	c #989697",
"-+	c #979596",
";+	c #9A9898",
">+	c #989596",
",+	c #CFCFCF",
"'+	c #999798",
")+	c #999898",
"!+	c #D0CFCF",
"~+	c #989696",
"{+	c #9A9999",
"]+	c #8F8D8E",
"^+	c #1E1E1E",
"/+	c #8D8C8D",
"(+	c #8B8A8B",
"_+	c #171717",
":+	c #898889",
"<+	c #6A6969",
"[+	c #9E9D9D",
"}+	c #A3A1A2",
"|+	c #A2A1A1",
"1+	c #A2A0A1",
"2+	c #A2A0A0",
"3+	c #A2A1A2",
"4+	c #A1A0A1",
"5+	c #A19FA0",
"6+	c #A1A0A0",
"7+	c #A3A2A2",
"8+	c #A5A4A4",
"9+	c #5D5C5C",
"0+	c #0C0C0C",
"a+	c #888888",
"b+	c #7A7979",
"c+	c #DCDBDC",
"d+	c #B9B9B9",
"e+	c #525051",
"f+	c #878686",
"g+	c #CCCBCB",
"h+	c #777475",
"i+	c #DDDCDC",
"j+	c #BEBDBE",
"k+	c #5A5859",
"l+	c #191919",
"m+	c #AEADAE",
"n+	c #7B797A",
"o+	c #BBBABB",
"p+	c #595859",
"q+	c #818181",
"r+	c #7A797A",
"s+	c #DEDDDE",
"t+	c #BDBCBD",
"u+	c #525151",
"v+	c #777676",
"w+	c #DEDEDE",
"x+	c #BEBDBD",
"y+	c #5B5B5B",
"z+	c #030202",
"A+	c #797979",
"B+	c #FDFEFE",
"C+	c #FBFBFB",
"D+	c #585958",
"E+	c #040404",
"F+	c #8F8F8F",
"G+	c #BABABA",
"H+	c #B3B3B3",
"I+	c #B2B0B1",
"J+	c #B1B0B0",
"K+	c #B9B8B8",
"L+	c #B4B2B3",
"M+	c #B0AFAF",
"N+	c #A6A5A5",
"O+	c #B8B8B8",
"P+	c #B0B0B0",
"Q+	c #B2B1B1",
"R+	c #A6A6A6",
"S+	c #B6B5B5",
"T+	c #A7A7A7",
"U+	c #AAAAAA",
"V+	c #B7B7B7",
"W+	c #B6B5B6",
"X+	c #B4B4B4",
"Y+	c #8F8E8F",
". . . . . . . . . . . . . . . . . . . . . . . . . . . . . . . . . . . . . . . . . . . . . . . .   ",
". . . . . . . . . . . . . . . . . . . . . . . . . . . . . . . . . . . . . . . . . . . . . . . .   ",
". . . . . . . . . . . . . . . . . . . . . . . . . . . . . . . . . . . . . . . . . . . . . . . .   ",
". . . . . . . . . . . . . . . . . . . . . . . . . . . . . . . . . . . . . . . . . . . . . . . .   ",
". . . . . . . . . . . . . . . . . . . . . . . . . . . . . . . . . . . . . . . . . . . . . . . .   ",
". . + @ # $ % & * * $ $ * * $ $ $ = $ $ = $ * = $ $ * = $ $ $ $ = $ * $ $ = $ * $ & - ; > . . .   ",
". . . , ' ) ! ! ! ! ! ! ! ! ! ! ! ! ! ! ! ! ! ! ! ! ! ! ! ! ! ! ! ! ! ! ! ! ! ! ! ~ { ] ^ . . .   ",
". . . . / ( _ ! ! ! ! ! ! ! ! ! ! ! ! ! ! ! ! ! ! ! ! ! ! ! ! ! ! ! ! ! ! ! ! ! : { < . . . . .   ",
". . . . [ . } ) ! ! ! ! ! ! ! ! ! ! ! ! ! ! ! ! ! ! ! ! ! ! ! ! ! ! ! ! ! ! ! | 1 2 . . . 3 . .   ",
". . . . . . 4 5 6 ! ! ! ! ! ! ! ! ! ! ! ! ! ! ! ! ! ! ! ! ! ! ! ! ! ! ! ! ! ~ 7 8 ^ . . 9 0 a .   ",
". . . . . . . b c _ ! ! ! ! ! ! ! ! ! ! ! ! ! ! ! ! ! ! ! ! ! ! ! ! ! ! ! d e f . . . g h i . .   ",
". . . . . . . . j k l m n n n n n n n n n n o n n n n n n n n n n o p q 6 r s [ . . t u ! % v .   ",
". . . . . . . . . w x y z A B z A z A B C A A B A A A B A A A A B A D E y A [ . . g F ! ! & G .   ",
". . . . . . . . H y . . . . . . . . . . . . . . . . . . . . . . . . . . . . . . I h ! ! ! & G .   ",
". . . . . . . . . . . . . . . . . . . . . . . . . . . . . . . . . . . . . . . J K ! ! ! ! & G .   ",
". . . . . . . . . . . . . . . . . . . . . . . . . . . . . . . . . . . . . . L M ! ! ! ! ! = < .   ",
". . . . . . . . . . . . . . . . . . . . . . . . . . . . . . . . . . . . . . N O ! ! ! ! ! % P .   ",
". . . . . . . . . . . . . . . . . . . . . . . . . . . . . . . . . . . . . . Q R ! ! ! ! ! & S .   ",
". . . . . . . . . . . . . . . . . . . . . . . . . . . . . . . . . . . . . . T R ! ! ! ! ! U . .   ",
". . . . . . . . . . . . . . . . . . . . . . . . . . . . . . . . . . . . . . T R ! ! ! ! ! & V .   ",
". . . . . . . . . . . . . . . . . . . . . . . . . . . . . . . . . . . . . . W R ! ! ! ! ! = < .   ",
". . . . . . . . . . . . . . . . . . . . . . . . . . . . . . . . . . . . . . X R ! ! ! ! ! % v .   ",
". . . . . . . . . . . . . . . . . . . . . . . . . . . . . . . . . . . . . . T R ! ! ! ! ! % Y .   ",
". . . . . . . . . . . . . . . . . . . . . . . . . . . . . . . . . . . . . . Z R ! ! ! ! ! ` . .   ",
". . . . . . . . . . . . . . . . . . . . . . . . . . . . . . . . . . . . . . T R ! ! ! ! ! % v .   ",
". . . . . . . . . . . . . . . . . . . . . . . . . . . . . . . . . . . . . . T R ! ! ! ! ! & G .   ",
". . . . . . . . . . . . . . . . . . . . . . . . . . . . . . . . . . . . . . Z R ! ! ! ! ! =  ..   ",
". . . . . . . . . . . . . . . . . . . . . . . . . . . . . . . . . . . . . . ..R ! ! ! ! ! & +..   ",
". . . . . . . . . . . . . . . . . . . . . . . . . . . . . . . . . . . . . . X R ! ! ! ! ! & ] .   ",
". . . . . . . . . . . . . . . . . . . . . . . . . . . . . . . . . . . . . . T R ! ! ! ! ! & @..   ",
". . . . . . . . . . . . . . . . . . . . . . . . . . . . . . . . . . . . . . X R ! ! ! ! ! & G .   ",
". . . . . . . . . . . . . . . . . . . . . . . . . . . . . . . . . . . . . . #.R ! ! ! ! ! = $..   ",
". . . . . . . . . . . . . . . . . . . . . . . . . . . . . . . . . . . . . . Z R ! ! ! ! ! = %..   ",
". . . . . . . . . . . . . . . . . . . . . . . . . . . . . . . . . . . . . . X R ! ! ! ! ! & &..   ",
". . . . . . . . . . . . . . . . . . . . . . . . . . . . . . . . . . . . . . T R ! ! ! ! ! *.8 .   ",
". . . . . . . . . . . . . . . . . . . . . . . . . . . . . . . . . . . . . . T R ! ! ! ! ! & G .   ",
". . . . . . . . . . . . . . . . . . . . . . . . . . . . . . . . . . . . . . T R ! ! ! ! ! = =..   ",
". . . . . . . . . . . . . . . . . . . . . . . . . . . . . . . . . . . . . . W R ! ! ! ! ! & -..   ",
". . . . . . . . . . . . . . . . . . . . . . . . . . . . . . . . . . . . . . X R ! ! ! ! ! = < .   ",
". . . . . . . . . . . . . . . . . . . . . . . . . . . . . . . . . . . . . . T R ! ! ! ! ! & ;..   ",
". . . . . . . . . . . . . . . . . . . . . . . . . . . . . . . . . . . . . . X R ! ! ! ! ! = >..   ",
". . . . . . . . . . . . . . . . . . . . . . . . . . . . . . . . . . . . . . ,.R ! ! ! ! ! & G .   ",
". . . . . . . . . . . . . . . . . . . . . . . . . . . . . . . . . . . . . . '.).! ! ! ! ! % G .   ",
". . . . . . . . . . . . . . . . . . . . . . . . . . . . . . . . . . . . . . . !.~.! ! ! ! = {..   ",
". . . . . . . . . . . . . . . . . . . . . . . . . . . . . . . . . . . . . . . . ].~.! ! ! ^.G .   ",
". . . . . . . . . . . . . . . . . . . . . . . . . . . . . . . . . . . . [ . . . /.(.).! ! ^.G .   ",
". . . . . . . _.. :.<.[.}.<.<.<.<.[.|.|.|.|.|.}.|.[.}.[.[.|.<.|.<.<.1.2.3.4.5.. . . ].).! ^.6..   ",
". . . . . . ^ 7.8.9.! ! ! ! ! ! ! ! ! ! ! ! ! ! ! ! ! ! ! ! ! ! ! ! ! ! ! 0.a.b.. . . c.~.d.a .   ",
". . . . . . e.f.| ! ! ! ! ! ! ! ! ! ! ! ! ! ! ! ! ! ! ! ! ! ! ! ! ! ! ! ! ! _ g.h.. . i.j.{ k..   ",
". . . ^ . l.m.n.! ! ! ! ! ! ! ! ! ! ! ! ! ! ! ! ! ! ! ! ! ! ! ! ! ! ! ! ! n.! ! o.p.q.. . r.. .   ",
". . . . s.t.! ! ! ! ! ! ! ! ! ! ! ! ! ! ! ! ! ! ! ! ! ! ! ! ! ! ! ! ! ! ! ! ! ! u.v.w.. . . . .   ",
". . . . [.{ l ! ! ! ! ! ! ! ! ! ! ! ! ! ! ! ! ! ! ! ! ! ! ! ! ! ! ! ! ! ! ! ! ! x.y.z.. . A.. .   ",
". . . . i.. s.B.! ! ! ! ! ! ! ! ! ! ! ! ! ! ! ! ! ! ! ! ! ! ! ! ! ! ! ! ! ! ! C.}.D.. . E.F.. .   ",
". . . . . . , G.H.! ! ! ! ! ! ! ! ! ! ! ! ! ! ! ! ! ! ! ! ! ! ! ! ! ! ! ! I.J.K.. . . L.M.i . .   ",
". . . . . . . [ N.a.% O.P.P.P.P.P.P.P.P.P.P.P.P.P.P.P.P.P.P.P.P.P.P.Q.R.S.T.U.. . . L.V.! W.. .   ",
". . . . . . . . . X.Y.Z.Z.Z.Z.Z.`.Z.Z.Z.Z.`.Z.Z.Z.Z.Z.Z.Z.Z.Z.`.Z.Z.Z.L a Y ^ . . L. +u.! W.. .   ",
". . . . . . . . . . . . . . . . . . . . . . . . . . . . . . . . . . . . . . . . .+++! ! ! W.. .   ",
". . . . . . . . . . . . . . . . . . . . . . . . . . . . . . . . . . . . . . . @+$ ! ! ! ! W.. .   ",
". . . . . . . . . . . . . . . . . . . . . . . . . . . . . . . . . . . . . . #+$+u.! ! ! ! W.. .   ",
". . . . . . . . . . . . . . . . . . . . . . . . . . . . . . . . . . . . . . %+&+! ! ! ! ! W.. .   ",
". . . . . . . . . . . . . . . . . . . . . . . . . . . . . . . . . . . . . . *+&+! ! ! ! ! W.. .   ",
". . . . . . . . . . . . . . . . . . . . . . . . . . . . . . . . . . . . . . =+&+! ! ! ! ! W.. .   ",
". . . . . . . . . . . . . . . . . . . . . . . . . . . . . . . . . . . . . . =+&+! ! ! ! ! W.. .   ",
". . . . . . . . . . . . . . . . . . . . . . . . . . . . . . . . . . . . . . -+&+! ! ! ! ! W.. .   ",
". . . . . . . . . . . . . . . . . . . . . . . . . . . . . . . . . . . . . . ;+&+! ! ! ! ! W.. .   ",
". . . . . . . . . . . . . . . . . . . . . . . . . . . . . . . . . . . . . . >+&+! ! ! ! ! ,+. .   ",
". . . . . . . . . . . . . . . . . . . . . . . . . . . . . . . . . . . . . . ;+&+! ! ! ! ! W.. .   ",
". . . . . . . . . . . . . . . . . . . . . . . . . . . . . . . . . . . . . . ;+&+! ! ! ! ! W.. .   ",
". . . . . . . . . . . . . . . . . . . . . . . . . . . . . . . . . . . . . . ;+&+! ! ! ! ! W.. .   ",
". . . . . . . . . . . . . . . . . . . . . . . . . . . . . . . . . . . . . . '+&+! ! ! ! ! W.. .   ",
". . . . . . . . . . . . . . . . . . . . . . . . . . . . . . . . . . . . . . =+&+! ! ! ! ! W.. .   ",
". . . . . . . . . . . . . . . . . . . . . . . . . . . . . . . . . . . . . . ;+&+! ! ! ! ! W.. .   ",
". . . . . . . . . . . . . . . . . . . . . . . . . . . . . . . . . . . . . . ;+&+! ! ! ! ! W.. .   ",
". . . . . . . . . . . . . . . . . . . . . . . . . . . . . . . . . . . . . . )+&+! ! ! ! ! W.. .   ",
". . . . . . . . . . . . . . . . . . . . . . . . . . . . . . . . . . . . . . ;+&+! ! ! ! ! W.. .   ",
". . . . . . . . . . . . . . . . . . . . . . . . . . . . . . . . . . . . . . ;+&+! ! ! ! ! W.. .   ",
". . . . . . . . . . . . . . . . . . . . . . . . . . . . . . . . . . . . . . ;+&+! ! ! ! ! W.. .   ",
". . . . . . . . . . . . . . . . . . . . . . . . . . . . . . . . . . . . . . *+&+! ! ! ! ! !+. .   ",
". . . . . . . . . . . . . . . . . . . . . . . . . . . . . . . . . . . . . . ~+&+! ! ! ! ! W.. .   ",
". . . . . . . . . . . . . . . . . . . . . . . . . . . . . . . . . . . . . . '+&+! ! ! ! ! W.. .   ",
". . . . . . . . . . . . . . . . . . . . . . . . . . . . . . . . . . . . . . '+&+! ! ! ! ! W.. .   ",
". . . . . . . . . . . . . . . . . . . . . . . . . . . . . . . . . . . . . . ;+&+! ! ! ! ! W.. .   ",
". . . . . . . . . . . . . . . . . . . . . . . . . . . . . . . . . . . . . . (.&+! ! ! ! ! W.. .   ",
". . . . . . . . . . . . . . . . . . . . . . . . . . . . . . . . . . . . . . '+&+! ! ! ! ! W.. .   ",
". . . . . . . . . . . . . . . . . . . . . . . . . . . . . . . . . . . . . . {+&+! ! ! ! ! W.. .   ",
". . . . . . . . . . . . . . . . . . . . . . . . . . . . . . . . . . . . . . ]+~.! ! ! ! ! W.. .   ",
". . . . . . . . . . . . . . . . . . . . . . . . . . . . . . . . . . . . . . ^+/+n ! ! ! ! W.. .   ",
". . . . . . . . . . . . . . . . . . . . . . . . . . . . . . . . . . . . . . . . (+6 ! ! ! W.. .   ",
". . . . . . . . . . . . . . . . . . . . . . . . . . . . . . . . . . . . . . . . _+:+6 ! ! W.. .   ",
". . . . . . . . . <+[+}+}+|+1+1+2+|+}+3+4+3+|+5+|+2+|+4+3+1+6+1+2+}+!.7+8+9+. . . 0+a+q ! W.. .   ",
". . . . . . . . b+c+! ! ! ! ! ! ! ! ! ! ! ! ! ! ! ! ! ! ! ! ! ! ! ! ! ! ! d+e+. . . . f+n g+. .   ",
". . . . . . . h+i+! ! ! ! ! ! ! ! ! ! ! ! ! ! ! ! ! ! ! ! ! ! ! ! ! ! ! ! ! j+k+[ . . l+f+m+. .   ",
". . . . . . n+B.! ! ! ! ! ! ! ! ! ! ! ! ! ! ! ! ! ! ! ! ! ! ! ! ! ! ! ! ! ! ! o+p+. . . . q+. .   ",
". . . . . r+s+! ! ! ! ! ! ! ! ! ! ! ! ! ! ! ! ! ! ! ! ! ! ! ! ! ! ! ! ! ! ! ! ! t+u+. . . . . .   ",
". . . . v+w+! ! ! ! ! ! ! ! ! ! ! ! ! ! ! ! ! ! ! ! ! ! ! ! ! ! ! ! ! ! ! ! ! ! ! x+y+[ . . . .   ",
". . z+A+u n.u.I.n.! B+n.| ! ! n.! ! ! ! I.| C+! ! ! ! ! ! ! ! ! ! ! d : I.! n.! ! u.d+D+. . . .   ",
". . E+F+G+1 H+I+J+K+L+M+N+o.O+P+O+O+K+O+Q+R+{ S+K+O+K+o.o.K+O+O+O+K+T+U+J+V+M+K+W+y.X+Y+. . . .   ",
". . . . . . . . . . . . . . . . . . . . . . . . . . . . . . . . . . . . . . . . . . . . . . . .   ",
". . . . . . . . . . . . . . . . . . . . . . . . . . . . . . . . . . . . . . . . . . . . . . . .   ",
". . . . . . . . . . . . . . . . . . . . . . . . . . . . . . . . . . . . . . . . . . . . . . . .   ",
"                                                                                                  ",
"                                                                                                  "};
