/* XPM */
static char * placar0_xpm[] = {
"51 104 316 2",
"  	c None",
". 	c #000000",
"+ 	c #3B3C3B",
"@ 	c #8B8B8B",
"# 	c #8C8B8B",
"$ 	c #8C8B8C",
"% 	c #8B898A",
"& 	c #8B8A8A",
"* 	c #8A898A",
"= 	c #8A8989",
"- 	c #848484",
"; 	c #7D7D7D",
"> 	c #8C8C8C",
", 	c #8B8C8B",
"' 	c #343334",
") 	c #5C5B5C",
"! 	c #A5A5A5",
"~ 	c #C4C4C4",
"{ 	c #C2C2C2",
"] 	c #C3C2C2",
"^ 	c #C1C1C1",
"/ 	c #C0C0C0",
"( 	c #C3C3C3",
"_ 	c #979797",
": 	c #818081",
"< 	c #282829",
"[ 	c #DFDEDE",
"} 	c #FFFFFF",
"| 	c #DADADA",
"1 	c #7B7B7B",
"2 	c #323232",
"3 	c #5B595A",
"4 	c #D8D7D8",
"5 	c #7F7E7E",
"6 	c #191818",
"7 	c #2D2D2D",
"8 	c #010101",
"9 	c #6E6C6D",
"0 	c #D9D9D9",
"a 	c #7F7F80",
"b 	c #303030",
"c 	c #363636",
"d 	c #969595",
"e 	c #B2B2B2",
"f 	c #474747",
"g 	c #020202",
"h 	c #575657",
"i 	c #D4D4D4",
"j 	c #D7D6D7",
"k 	c #7B7A7B",
"l 	c #565555",
"m 	c #8F8E8F",
"n 	c #A6A5A6",
"o 	c #828181",
"p 	c #F5F5F5",
"q 	c #B7B7B7",
"r 	c #444344",
"s 	c #323132",
"t 	c #353535",
"u 	c #D4D3D3",
"v 	c #D6D6D6",
"w 	c #7C7B7B",
"x 	c #7F7E7F",
"y 	c #F4F4F4",
"z 	c #908F8F",
"A 	c #585858",
"B 	c #F9F9F9",
"C 	c #FAFAFA",
"D 	c #C2C1C2",
"E 	c #444444",
"F 	c #CCCCCC",
"G 	c #DFDFDF",
"H 	c #F8F8F8",
"I 	c #F7F7F7",
"J 	c #F8F7F7",
"K 	c #797677",
"L 	c #807F80",
"M 	c #FCFCFC",
"N 	c #8D8B8B",
"O 	c #B9B9B9",
"P 	c #4F504F",
"Q 	c #2F2F2F",
"R 	c #777676",
"S 	c #585758",
"T 	c #575556",
"U 	c #555454",
"V 	c #565455",
"W 	c #555455",
"X 	c #575555",
"Y 	c #656364",
"Z 	c #292929",
"` 	c #9A999A",
" .	c #BAB9B9",
"..	c #060606",
"+.	c #090909",
"@.	c #989898",
"#.	c #F3F2F3",
"$.	c #8E8C8D",
"%.	c #BDBCBD",
"&.	c #494A4A",
"*.	c #030303",
"=.	c #505050",
"-.	c #989798",
";.	c #BBBBBB",
">.	c #9B9A9A",
",.	c #414141",
"'.	c #C9C9C9",
").	c #434443",
"!.	c #BAB9BA",
"~.	c #CBCACB",
"{.	c #ACABAC",
"].	c #565656",
"^.	c #C8C7C7",
"/.	c #ACAAAB",
"(.	c #8F8C8D",
"_.	c #A4A3A4",
":.	c #A2A1A2",
"<.	c #908E8F",
"[.	c #595959",
"}.	c #A3A1A2",
"|.	c #404040",
"1.	c #4D4D4D",
"2.	c #989697",
"3.	c #4F4F4F",
"4.	c #A3A2A3",
"5.	c #ABA9AA",
"6.	c #484848",
"7.	c #A5A3A4",
"8.	c #545454",
"9.	c #ADABAC",
"0.	c #424242",
"a.	c #9F9E9F",
"b.	c #8F8D8E",
"c.	c #494949",
"d.	c #A5A4A4",
"e.	c #535353",
"f.	c #A2A1A1",
"g.	c #CAC8C9",
"h.	c #202120",
"i.	c #A4A2A3",
"j.	c #ABAAAB",
"k.	c #343232",
"l.	c #525252",
"m.	c #383838",
"n.	c #CCCBCB",
"o.	c #3D3D3D",
"p.	c #A9A8A9",
"q.	c #8F8E8E",
"r.	c #4A4A4A",
"s.	c #CAC9C9",
"t.	c #838282",
"u.	c #575757",
"v.	c #CAC9CA",
"w.	c #2E2E2E",
"x.	c #AEADAE",
"y.	c #4D4C4D",
"z.	c #CECECE",
"A.	c #4C4B4B",
"B.	c #393939",
"C.	c #F6F6F6",
"D.	c #3B3B3B",
"E.	c #CFCFCF",
"F.	c #232323",
"G.	c #8D8D8D",
"H.	c #B5B4B5",
"I.	c #828081",
"J.	c #1E1E1E",
"K.	c #8E8E8E",
"L.	c #3C3C3C",
"M.	c #171616",
"N.	c #3E3E3E",
"O.	c #1F1F1F",
"P.	c #8E8D8E",
"Q.	c #757676",
"R.	c #7E7D7D",
"S.	c #2B2B2B",
"T.	c #EFEFEF",
"U.	c #AFAEAF",
"V.	c #656464",
"W.	c #262626",
"X.	c #868585",
"Y.	c #989797",
"Z.	c #6C6B6B",
"`.	c #252525",
" +	c #5C5B5B",
".+	c #9D9C9D",
"++	c #727272",
"@+	c #3F3F3F",
"#+	c #7A7979",
"$+	c #888687",
"%+	c #9A9899",
"&+	c #969596",
"*+	c #CACACA",
"=+	c #787878",
"-+	c #181818",
";+	c #767475",
">+	c #9E9F9E",
",+	c #959495",
"'+	c #D4D3D4",
")+	c #686768",
"!+	c #0F0F0F",
"~+	c #161616",
"{+	c #848383",
"]+	c #D2D2D2",
"^+	c #DEDEDE",
"/+	c #9B9B9B",
"(+	c #969797",
"_+	c #727172",
":+	c #1B1B1B",
"<+	c #343535",
"[+	c #626262",
"}+	c #FDFDFD",
"|+	c #F1F1F1",
"1+	c #99999A",
"2+	c #959696",
"3+	c #D5D5D5",
"4+	c #171717",
"5+	c #525152",
"6+	c #656465",
"7+	c #545354",
"8+	c #D1D1D1",
"9+	c #9D9D9D",
"0+	c #828182",
"a+	c #FAF9F9",
"b+	c #9C9A9B",
"c+	c #7C7B7C",
"d+	c #9C9C9C",
"e+	c #D0CFD0",
"f+	c #605D5E",
"g+	c #9D9C9C",
"h+	c #959596",
"i+	c #CFCECF",
"j+	c #9D9B9C",
"k+	c #9C9B9C",
"l+	c #5F5D5D",
"m+	c #9C9B9B",
"n+	c #706E6E",
"o+	c #969696",
"p+	c #6F6D6D",
"q+	c #5F5C5D",
"r+	c #5D5A5B",
"s+	c #9B9A9B",
"t+	c #605E5E",
"u+	c #605E5F",
"v+	c #9A9999",
"w+	c #5F5D5E",
"x+	c #D0CFCF",
"y+	c #7F7D7E",
"z+	c #5E5C5D",
"A+	c #797778",
"B+	c #646263",
"C+	c #7E7C7D",
"D+	c #B2B1B2",
"E+	c #C0BFBF",
"F+	c #727171",
"G+	c #E3E2E3",
"H+	c #777777",
"I+	c #B3B2B3",
"J+	c #E8E8E8",
"K+	c #D7D6D6",
"L+	c #808181",
"M+	c #DAD9D9",
"N+	c #141515",
"O+	c #575656",
"P+	c #3B3A3A",
"Q+	c #6B6A6A",
"R+	c #ABAAAA",
"S+	c #F3F3F3",
"T+	c #E1E0E1",
"U+	c #B6B5B5",
"V+	c #D1D0D0",
"W+	c #CECDCE",
"X+	c #CFCECE",
"Y+	c #BBBABA",
"Z+	c #4B4A4A",
"`+	c #716F70",
" @	c #E0DFE0",
".@	c #686767",
"+@	c #434243",
"@@	c #B4B3B3",
"#@	c #FDFCFC",
"$@	c #434343",
"%@	c #AAA9AA",
"&@	c #CDCCCC",
"*@	c #858585",
"=@	c #4B4B4B",
"-@	c #B7B8B8",
";@	c #4C4D4D",
">@	c #333333",
",@	c #373737",
"'@	c #A09FA0",
")@	c #898889",
"!@	c #4B494A",
"~@	c #BABABA",
"{@	c #4F4E4F",
"]@	c #1C1C1C",
"^@	c #767676",
"/@	c #AFADAD",
"(@	c #FBFBFB",
"_@	c #BCBABB",
":@	c #595859",
"<@	c #ACACAC",
"[@	c #B9B7B8",
"}@	c #535252",
"|@	c #A8A7A8",
"1@	c #B7B6B7",
"2@	c #AEADAD",
"3@	c #939493",
"4@	c #949594",
"5@	c #949394",
"6@	c #959494",
"7@	c #959394",
"8@	c #969495",
"9@	c #949393",
"0@	c #909291",
"a@	c #B0B1B1",
". . . . . . . . . . . . . . . . . . . . . . . . . . . . . . . . . . . . . . . . . . . . . . . .       ",
". . . . . . . . . . . . . . . . . . . . . . . . . . . . . . . . . . . . . . . . . . . . . . . .       ",
". . . . . . . . . . . . . . . . . . . . . . . . . . . . . . . . . . . . . . . . . . . . . . . .       ",
". . . . . . . . . . . . . . . . . . . . . . . . . . . . . . . . . . . . . . . . . . . . . . . .       ",
". . . . . . . . . . . . . . . . . . . . . . . . . . . . . . . . . . . . . . . . . . . . . . . .       ",
". . . . . . . . . . . . . . . . . . . . . . . . . . . . . . . . . . . . . . . . . . . . . . . .       ",
". . . + @ # # $ % & * * * * * * * * * * * = & * = * * = * * * * * * * & & = = & - ; > , ' . . .       ",
". . . ) ! ~ { ] { { { { { { { { { { { { { { { { { { { { { { { { { { { { { { { { ^ / ( _ : . . .       ",
". . . . < [ } } } } } } } } } } } } } } } } } } } } } } } } } } } } } } } } } } } } | 1 2 . . .       ",
". . . . . 3 [ } } } } } } } } } } } } } } } } } } } } } } } } } } } } } } } } } } 4 5 . . . . .       ",
". 6 7 8 . . 9 0 } } } } } } } } } } } } } } } } } } } } } } } } } } } } } } } } 0 a . . . b c .       ",
". d e f g . h ) i } } } } } } } } } } } } } } } } } } } } } } } } } } } } } } j k . . . l m n .       ",
". o p q r . s . t u } } } } } } } } } } } } } } } } } } } } } } } } } } } } v w . . . . x y z .       ",
". A B C D E g . . . F G H I I I J I J I I J I J I I I J I J J I I J I I J [ K . . 8 . L M B N .       ",
". A B } B O P 8 . Q R S T U U U V U V U U V U V U U U V U V V U U V W W X Y Z . . . ` I } B m .       ",
". A B } } M  .r . . ... . . . . . . . . . . . . . . . . . . . . . . . . . . . . +.@.#.} } B $..       ",
". A B } } } B %.&.*.. . . . . . . . . . . . . . . . . . . . . . . . . . . . *.=.-.y } } } B m .       ",
". A B } } } } M ;.. . . . . . . . . . . . . . . . . . . . . . . . . . . . . . >.y } } } } B m .       ",
". ,.B } } } } } '.).. . . . . . . . . . . . . . . . . . . . . . . . . . . . . !.} } } } } B m .       ",
". f B } } } } } ~.2 . . . . . . . . . . . . . . . . . . . . . . . . . . . . . {.} } } } } B m .       ",
". ].B } } } } } ^.. . . . . . . . . . . . . . . . . . . . . . . . . . . . . . /.} } } } } B (..       ",
". A B } } } } } ^.. . . . . . . . . . . . . . . . . . . . . . . . . . . . . . _.} } } } } B m .       ",
". A B } } } } } ^.. . . . . . . . . . . . . . . . . . . . . . . . . . . . . . :.} } } } } B m .       ",
". A B } } } } } ^.. . . . . . . . . . . . . . . . . . . . . . . . . . . . . . {.} } } } } B <..       ",
". [.B } } } } } ^.. . . . . . . . . . . . . . . . . . . . . . . . . . . . . . }.} } } } } B m .       ",
". |.B } } } } } ^.. . . . . . . . . . . . . . . . . . . . . . . . . . . . . . {.} } } } } B <..       ",
". 1.B } } } } } ^.. . . . . . . . . . . . . . . . . . . . . . . . . . . . . . 2.} } } } } B m .       ",
". 3.B } } } } } ^.. . . . . . . . . . . . . . . . . . . . . . . . . . . . . . 4.} } } } } B m .       ",
". A B } } } } } ^.. . . . . . . . . . . . . . . . . . . . . . . . . . . . . . 5.} } } } } B $..       ",
". 6.B } } } } } ^.. . . . . . . . . . . . . . . . . . . . . . . . . . . . . . 7.} } } } } B z .       ",
". 8.B } } } } } ^.. . . . . . . . . . . . . . . . . . . . . . . . . . . . . . 9.} } } } } B m .       ",
". 0.B } } } } } ^.. . . . . . . . . . . . . . . . . . . . . . . . . . . . . . :.} } } } } B m .       ",
". A B } } } } } ^.. . . . . . . . . . . . . . . . . . . . . . . . . . . . . . }.} } } } } B m .       ",
". A B } } } } } ^.. . . . . . . . . . . . . . . . . . . . . . . . . . . . . . a.} } } } } B b..       ",
". c.B } } } } } ^.. . . . . . . . . . . . . . . . . . . . . . . . . . . . . . d.} } } } } B <..       ",
". e.B } } } } } ^.. . . . . . . . . . . . . . . . . . . . . . . . . . . . . . f.} } } } } B m .       ",
". A B } } } } } ^.. . . . . . . . . . . . . . . . . . . . . . . . . . . . . . 9.} } } } } B m .       ",
". A B } } } } } g.h.. . . . . . . . . . . . . . . . . . . . . . . . . . . . . i.} } } } } B m .       ",
". ].B } } } } } ^.. . . . . . . . . . . . . . . . . . . . . . . . . . . . . . j.} } } } } B m .       ",
". k.B } } } } } ^.. . . . . . . . . . . . . . . . . . . . . . . . . . . . . . 4.} } } } } B m .       ",
". l.B } } } } } ^.. . . . . . . . . . . . . . . . . . . . . . . . . . . . . . 9.} } } } } B m .       ",
". m.B } } } } } n.o.. . . . . . . . . . . . . . . . . . . . . . . . . . . . . p.} } } } } B q..       ",
". r.B } } } } } s.c . . . . . . . . . . . . . . . . . . . . . . . . . . . . . t.} } } } } B b..       ",
". u.B } } } } } v.w.. . . . . . . . . . . . . . . . . . . . . . . . . . . . . a.} } } } } B m .       ",
". E B } } } } } x.y.. . . . . . . . . . . . . . . . . . . . . . . . . . . . . 2.I } } } } B m .       ",
". 0.B } } } } z.A.. . . . . . . . . . . . . . . . . . . . . . . . . . . . . . B.q.C.} } } B m .       ",
". D.B } } C E.6.. . . . . . . . . . . . . . . . . . . . . . . . . . . . . . . . F.G.H } } B m .       ",
". . B } } H.I.. . . . . . . . . . . . . . . . . . . . . . . . . . . . . . . . . J.E K.p } B $..       ",
". L.B } ^.M.. . . . . . . . . . . . . . . . . . . . . . . . . . . . . . . . . . N.. O.P.C.B P..       ",
". Q.C n.R.. . . . . . . . . . . . . . . . . . . . . . . . . . . . . . . . . . . . . . S.> T.m .       ",
". 9 U.V.. . . . . . . . . . . . . . . . . . . . . . . . . . . . . . . . . . . . . . . 8 W.X.Y..       ",
". Z.r.. . . . . . . . . . . . . . . . . . . . . . . . . . . . . . . . . . . . . . . . . . `. +.       ",
". . . . . . . . . . . . . . . . . . . . . . . . . . . . . . . . . . . . . . . . . . . . . . . .       ",
". . . . . . . . . . . . . . . . . . . . . . . . . . . . . . . . . . . . . . . . . . . . . . . .       ",
". .+++@+. . . . . . . . . . . . . . . . . . . . . . . . . . . . . . . . . . . . . . . . #+$+%+.       ",
". &+*+=+-+. . . . . . . . . . . . . . . . . . . . . . . . . . . . . . . . . . . . . . . ;+F >+.       ",
". ,+B '+)+!+. . . . . . . . . . . . . . . . . . . . . . . . . . . . . . . . . . . . ~+{+]+^+/+.       ",
". (+B } i _+:+. . . . . . . . . . . . . . . . . . . . . . . . . . . . . . . . . . <+[+z.}+|+1+.       ",
". 2+B } } 3+w 4+. . . . . . . . . . . . . . . . . . . . . . . . . . . . . . . . . 5+i }+M p /+.       ",
". ,+B } } } i 6+-+. . . . . . . . . . . . . . . . . . . . . . . . . . . . . 8 . 7+8+} } } B 9+.       ",
". ,+B } } } } 3+0+. . . . . . . . . . . . . . . . . . . . . . . . . . . . . . # ]+} } } } a+b+.       ",
". ,+B } } } } } ~.. . . . . . . . . . . . . . . . . . . . . . . . . . . . . . c+} } M } } C.d+.       ",
". ,+B } } } } } e+. . . . . . . . . . . . . . . . . . . . . . . . . . . . . . f+} }+M } } B g+.       ",
". h+B } } } } } i+. . . . . . . . . . . . . . . . . . . . . . . . . . . . . . f+} } } } } B j+.       ",
". ,+B } } } } } i+. . . . . . . . . . . . . . . . . . . . . . . . . . . . . . f+} } } } } B j+.       ",
". ,+B } } } } } E.. . . . . . . . . . . . . . . . . . . . . . . . . . . . . . f+} } } } } B k+.       ",
". ,+B } } } } } i+. . . . . . . . . . . . . . . . . . . . . . . . . . . . . . l+} } } } } B m+.       ",
". ,+B } } } } } i+. . . . . . . . . . . . . . . . . . . . . . . . . . . . . . n+} } } } } C.g+.       ",
". o+B } } } } } i+. . . . . . . . . . . . . . . . . . . . . . . . . . . . . . p+} } } } } B j+.       ",
". ,+B } } } } } i+. . . . . . . . . . . . . . . . . . . . . . . . . . . . . . q+} } } } } B j+.       ",
". ,+B } } } } } i+. . . . . . . . . . . . . . . . . . . . . . . . . . . . . . r+} } } } } B s+.       ",
". ,+B } } } } } E.. . . . . . . . . . . . . . . . . . . . . . . . . . . . . . 5 } } } } } C.m+.       ",
". ,+B } } } } } E.. . . . . . . . . . . . . . . . . . . . . . . . . . . . . . q+} } } } } H b+.       ",
". h+B } } } } } i+. . . . . . . . . . . . . . . . . . . . . . . . . . . . . . q+} } } } } H k+.       ",
". ,+B } } } } } i+. . . . . . . . . . . . . . . . . . . . . . . . . . . . . . t+} } } } } B m+.       ",
". ,+B } } } } } E.. . . . . . . . . . . . . . . . . . . . . . . . . . . . . . q+} } } } } I j+.       ",
". ,+B } } } } } E.. . . . . . . . . . . . . . . . . . . . . . . . . . . . . . u+} } } } } B v+.       ",
". ,+B } } } } } i+. . . . . . . . . . . . . . . . . . . . . . . . . . . . . . l+} } } } } B k+.       ",
". &+B } } } } } E.. . . . . . . . . . . . . . . . . . . . . . . . . . . . . . f+} } } } } B b+.       ",
". ,+B } } } } } i+. . . . . . . . . . . . . . . . . . . . . . . . . . . . . . f+} } } } } B b+.       ",
". ,+B } } } } } i+. . . . . . . . . . . . . . . . . . . . . . . . . . . . . . w+} } } } } B j+.       ",
". ,+B } } } } } x+. . . . . . . . . . . . . . . . . . . . . . . . . . . . . . y+} } } } } B m+.       ",
". ,+B } } } } } i+. . . . . . . . . . . . . . . . . . . . . . . . . . . . . . z+} } } } } B m+.       ",
". h+B } } } } } E.. . . . . . . . . . . . . . . . . . . . . . . . . . . . . . A+} } } } } I m+.       ",
". ,+B } } } } } E.. . . . . . . . . . . . . . . . . . . . . . . . . . . . . . B+} } } } } B k+.       ",
". ,+B } } } } } E.. . . . . . . . . . . . . . . . . . . . . . . . . . . . . . C+} } } } } B j+.       ",
". ,+B } } } } } D+O.. . . . . . . . . . . . . . . . . . . . . . . . . . . . . q+} }+} } } B m+.       ",
". ,+B } } } } } E+. . . . . . . . . . . . . . . . . . . . . . . . . . . . . . F+|+B } } } C.j+.       ",
". h+B } } } } G+H+. . . . . . . . . . . . . . . . . . . . . . . . . . . . . . q.I+|+J+} } B k+.       ",
". ,+B } } } K+L+. . . . . . . . . . . . . . . . . . . . . . . . . . . . . . . . K.H.M } } B s+.       ",
". ,+B } } M+# . . g . N+. . . . . . . . . . . . . . . . . . . . . . . . . . O+P+. Q+R+p }+S+b+.       ",
". ,+B } T+l.. . 8 f U+V+i+z.W+W+i+W+W+W+i+z.W+W+W+X+z.i+W+W+W+W+W+W+W+W+X+Y+Z+. . 8 `+{.|+B %+.       ",
". 2+B  @.@. . . +@@@M } } } } } } } } } } } } } } } } } } } } } } } } } } #@O $@. . @+7+%@C.m+.       ",
". h+&@*@. . g =@D+B } } } } } } } } } } } } } } } } } } } } } } } } } } } } B -@;@>@,@. c.e '@.       ",
". )@o . . . !@/.M } } } } } } } } } } } } } } } } } } } } } } } } } } } } } } M ~@{@]@. . ^@# .       ",
". . . . 8 0./@(@} } } } } } } } } } } } } } } } } } } } } } } } } } } } } } } } M _@c.8 . . . .       ",
". . . g :@<@C } } } } } } } } } } } } } } } } } } } } } } } } } } } } } } } } } } C [@}@g . . .       ",
". . . 6.|@B C C C C C C C C C C C C C C C C C C C C C C C C C C C C C C C C C C C C (@1@3.@+. .       ",
". . . g+2@3@4@5@5@,+d d d 6@6@d 7@d d d 8@9@d d d d 9@d d 6@8@d d d 6@,+d &+d 4@4@0@a@d+k . 8 .       ",
". . . . . . . . . . . . . . . . . . . . . . . . . . . . . . . . . . . . . . . . . . . . . . . .       ",
"                                                                                                      ",
"                                                                                                      ",
"                                                                                                      ",
"                                                                                                      "};
