/* XPM */
static char * placar8_xpm[] = {
"50 102 334 2",
"  	c None",
". 	c #000000",
"+ 	c #111010",
"@ 	c #3F3E3E",
"# 	c #3E3E3E",
"$ 	c #3E3D3E",
"% 	c #3E3D3D",
"& 	c #3D3C3C",
"* 	c #3D3D3D",
"= 	c #4A4A4A",
"- 	c #020202",
"; 	c #363636",
"> 	c #A5A3A4",
", 	c #B4B4B4",
"' 	c #B2B2B2",
") 	c #B3B2B2",
"! 	c #A7A7A7",
"~ 	c #B3B3B3",
"{ 	c #B2B1B1",
"] 	c #B2B1B2",
"^ 	c #ACABAB",
"/ 	c #A2A1A2",
"( 	c #060707",
"_ 	c #6F6F6F",
": 	c #D0CFD0",
"< 	c #FFFFFF",
"[ 	c #FEFEFE",
"} 	c #C1C1C1",
"| 	c #535252",
"1 	c #030303",
"2 	c #6E6E6E",
"3 	c #CFCFCF",
"4 	c #FBFBFB",
"5 	c #BEBDBD",
"6 	c #656465",
"7 	c #403F3F",
"8 	c #6A6A6A",
"9 	c #F7F7F7",
"0 	c #FCFCFC",
"a 	c #C0C0C0",
"b 	c #4F4E4F",
"c 	c #2F2E2E",
"d 	c #777676",
"e 	c #9D9C9C",
"f 	c #717171",
"g 	c #6C6B6B",
"h 	c #F5F5F5",
"i 	c #FDFDFD",
"j 	c #BEBDBE",
"k 	c #505050",
"l 	c #7A7979",
"m 	c #858484",
"n 	c #8D8D8D",
"o 	c #C9C8C8",
"p 	c #4E4D4E",
"q 	c #666565",
"r 	c #D1D0D1",
"s 	c #F0F0F0",
"t 	c #F6F6F6",
"u 	c #BDBCBD",
"v 	c #575757",
"w 	c #7B7A7A",
"x 	c #D4D4D4",
"y 	c #A4A4A4",
"z 	c #C7C7C7",
"A 	c #C8C7C7",
"B 	c #717070",
"C 	c #010101",
"D 	c #676666",
"E 	c #9B9A9A",
"F 	c #C8C8C8",
"G 	c #C7C7C6",
"H 	c #C7C6C6",
"I 	c #C6C6C6",
"J 	c #B8B7B7",
"K 	c #7D7D7D",
"L 	c #D5D5D5",
"M 	c #A09FA0",
"N 	c #8F8F8F",
"O 	c #C6C4C5",
"P 	c #706E6E",
"Q 	c #0D0D0C",
"R 	c #999999",
"S 	c #979696",
"T 	c #969596",
"U 	c #2E2E2E",
"V 	c #7C7B7B",
"W 	c #D5D4D5",
"X 	c #9F9F9F",
"Y 	c #8E8D8D",
"Z 	c #CFCECE",
"` 	c #6D6C6C",
" .	c #A0A0A0",
"..	c #767676",
"+.	c #3A3A3A",
"@.	c #7F7D7E",
"#.	c #D6D5D6",
"$.	c #5C5B5B",
"%.	c #747473",
"&.	c #D7D6D6",
"*.	c #F1F1F1",
"=.	c #4C4B4B",
"-.	c #727171",
";.	c #474646",
">.	c #4A494A",
",.	c #484848",
"'.	c #494748",
").	c #706F70",
"!.	c #8D8C8C",
"~.	c #716F70",
"{.	c #706E6F",
"].	c #8E8E8E",
"^.	c #4A4949",
"/.	c #484948",
"(.	c #4A4849",
"_.	c #8F908F",
":.	c #494849",
"<.	c #484748",
"[.	c #848383",
"}.	c #464746",
"|.	c #484747",
"1.	c #494848",
"2.	c #6F6E6E",
"3.	c #DFDFDF",
"4.	c #636263",
"5.	c #939192",
"6.	c #E7E7E7",
"7.	c #DADADA",
"8.	c #747373",
"9.	c #828182",
"0.	c #DAD9D9",
"a.	c #8A898A",
"b.	c #0D0C0C",
"c.	c #838282",
"d.	c #E6E6E6",
"e.	c #787677",
"f.	c #7C7A7B",
"g.	c #8E8D8E",
"h.	c #D8D7D7",
"i.	c #757474",
"j.	c #272626",
"k.	c #969595",
"l.	c #9C9B9B",
"m.	c #A5A4A4",
"n.	c #A4A3A3",
"o.	c #A4A3A4",
"p.	c #949393",
"q.	c #949293",
"r.	c #989797",
"s.	c #737373",
"t.	c #807F7F",
"u.	c #A1A0A1",
"v.	c #D8D8D8",
"w.	c #767575",
"x.	c #4B4A4A",
"y.	c #323232",
"z.	c #B7B7B7",
"A.	c #DDDDDD",
"B.	c #FAFAFA",
"C.	c #C7C6C7",
"D.	c #848484",
"E.	c #E5E5E5",
"F.	c #909090",
"G.	c #A09F9F",
"H.	c #777576",
"I.	c #666666",
"J.	c #A7A6A6",
"K.	c #EEEEEE",
"L.	c #828181",
"M.	c #7E7E7E",
"N.	c #807F80",
"O.	c #121212",
"P.	c #D5D4D4",
"Q.	c #BEBEBE",
"R.	c #656464",
"S.	c #B0AEAF",
"T.	c #AAA9AA",
"U.	c #4E4D4D",
"V.	c #4B4B4B",
"W.	c #C3C2C3",
"X.	c #AFAEAE",
"Y.	c #504F50",
"Z.	c #706F6F",
"`.	c #8C8A8B",
" +	c #918F90",
".+	c #EAEAEA",
"++	c #E3E2E2",
"@+	c #1D1D1D",
"#+	c #858384",
"$+	c #8B8A8A",
"%+	c #ADACAC",
"&+	c #030404",
"*+	c #AAA9A9",
"=+	c #E4E4E4",
"-+	c #CCCCCC",
";+	c #949394",
">+	c #CCCBCC",
",+	c #8A8989",
"'+	c #C3C2C2",
")+	c #1C1D1C",
"!+	c #707070",
"~+	c #D6D6D6",
"{+	c #D6D5D5",
"]+	c #CAC9CA",
"^+	c #737272",
"/+	c #CDCCCD",
"(+	c #817F80",
"_+	c #A3A2A3",
":+	c #A1A1A1",
"<+	c #A3A2A2",
"[+	c #A1A0A0",
"}+	c #A3A3A3",
"|+	c #A2A0A1",
"1+	c #A2A2A2",
"2+	c #CBCACA",
"3+	c #A6A6A6",
"4+	c #EBEBEB",
"5+	c #888787",
"6+	c #0C0C0C",
"7+	c #A6A5A5",
"8+	c #C3C3C3",
"9+	c #EDEDED",
"0+	c #CFCECF",
"a+	c #A5A5A5",
"b+	c #838182",
"c+	c #232323",
"d+	c #CECDCE",
"e+	c #D0D0D0",
"f+	c #6A6969",
"g+	c #5B5A5B",
"h+	c #5F5E5E",
"i+	c #5A595A",
"j+	c #D2D1D2",
"k+	c #D2D2D2",
"l+	c #636262",
"m+	c #616061",
"n+	c #5C5A5B",
"o+	c #8C8C8C",
"p+	c #626061",
"q+	c #A6A5A6",
"r+	c #616161",
"s+	c #8A8A8A",
"t+	c #616060",
"u+	c #5D5B5C",
"v+	c #D3D3D3",
"w+	c #595758",
"x+	c #646363",
"y+	c #8B8A8B",
"z+	c #E6E5E5",
"A+	c #5A5959",
"B+	c #E5E4E5",
"C+	c #626161",
"D+	c #D3D2D3",
"E+	c #E6E5E6",
"F+	c #DDDCDD",
"G+	c #737172",
"H+	c #EBEAEB",
"I+	c #5F5D5E",
"J+	c #595859",
"K+	c #585758",
"L+	c #605F5F",
"M+	c #E3E3E3",
"N+	c #CECECE",
"O+	c #6E6D6D",
"P+	c #696868",
"Q+	c #7F7E7E",
"R+	c #C1C0C1",
"S+	c #E2E2E2",
"T+	c #848283",
"U+	c #CECCCD",
"V+	c #E2E1E1",
"W+	c #7E7D7E",
"X+	c #C2C2C2",
"Y+	c #E1E0E0",
"Z+	c #252424",
"`+	c #615F60",
" @	c #908F90",
".@	c #8F8E8F",
"+@	c #919091",
"@@	c #909091",
"#@	c #939292",
"$@	c #6E6C6D",
"%@	c #030202",
"&@	c #686767",
"*@	c #CAC9C9",
"=@	c #E0E0E0",
"-@	c #828081",
";@	c #5E5D5D",
">@	c #717071",
",@	c #525151",
"'@	c #898888",
")@	c #7E7C7D",
"!@	c #5E5D5E",
"~@	c #454444",
"{@	c #8D8C8D",
"]@	c #232223",
"^@	c #5B5C5B",
"/@	c #DCDDDD",
"(@	c #C9C8C9",
"_@	c #6C6B6C",
":@	c #727272",
"<@	c #767576",
"[@	c #CDCDCD",
"}@	c #6B6A6A",
"|@	c #434444",
"1@	c #696A6A",
"2@	c #B4B2B3",
"3@	c #B5B6B5",
"4@	c #B6B5B5",
"5@	c #B4B1B2",
"6@	c #B4B2B2",
"7@	c #B3B1B2",
"8@	c #B1B0B1",
"9@	c #B5B4B5",
"0@	c #B0AFAF",
"a@	c #A3A1A1",
"b@	c #999798",
"c@	c #B5B4B4",
"d@	c #A9A9A9",
"e@	c #AEACAD",
"f@	c #ABA9AA",
"g@	c #B7B6B6",
"h@	c #A7A5A6",
"i@	c #A2A0A0",
"j@	c #B5B3B4",
"k@	c #B4B3B4",
"l@	c #B0ADAE",
"m@	c #AAA8A9",
"n@	c #AEADAD",
"o@	c #B6B6B6",
"p@	c #9E9B9C",
"q@	c #AFADAE",
"r@	c #A4A2A3",
"s@	c #A2A1A1",
". . . . . . . . . . . . . . . . . . . . . . . . . . . . . . . . . . . . . . . . . . . . . . . .     ",
". . . . . . . . . . . . . . . . . . . . . . . . . . . . . . . . . . . . . . . . . . . . . . . .     ",
". . . . . . . . . . . . . . . . . . . . . . . . . . . . . . . . . . . . . . . . . . . . . . . .     ",
". . . . . . . . . . . . . . . . . . . . . . . . . . . . . . . . . . . . . . . . . . . . . . . .     ",
". . . . . . . . . . . . . . . . . . . . . . . . . . . . . . . . . . . . . . . . . . . . . . . .     ",
". . . + @ # $ $ % # # # # # # $ # # & # # # # # # $ # $ # # # # # # # % * * * # # # $ # = - . .     ",
". . . ; > , ' ) ! ~ ) ) ) ) ) ' ) ) { ) ) ) ) ) ) ' ) ) ) ) ) ) ) ) ) ' ] ] ] ) ) ) ' ^ / ( . .     ",
". . . . _ : < < [ < < < < < < < < < < < < < < < < < < < < < < < < < < < < < < < < < < } | . . .     ",
". . . . 1 2 3 [ < < < < < < < < < < < < < < < < < < < < < < < < < < < < < < < < < 4 5 6 - . . .     ",
". . 7 - . . 8 3 < < < < < < < < < < < < < < < < < < < < < < < < < < < < < 9 < < 0 a b c . . . .     ",
". d e f . . . g 3 < < < < < < < < < < < < < < < < < < < < < < < < < < < < h < i j k . . . l m .     ",
". n o 5 p . . - q r s < < < < < < < < < < < < < < < < < < < < < < < < < < t 4 u v 1 . . w x y .     ",
". n z < A B C . . D E F G H H H H H H H H H H H H H H H H H H H H H H H H I J = . . . K L < M .     ",
". N z < < O P Q . 1 . R S S S S S S S S S S S S S S S S S S S S S S S S S T U C . . V W < < X .     ",
". Y z < < < Z ` . . . . . . . . . . . . . . . . . . . . . . . . . . . . . . . . . l L < < <  ..     ",
". N z < < < < A ..+.. . . . . . . . . . . . . . . . . . . . . . . . . . . . . . @.#.< < < < M .     ",
". N z < < < < < J $.. . . . . . . . . . . . . . . . . . . . . . . . . . . . . %.&.< < < < <  ..     ",
". N z < < < < < *.=.. . . . . . . . . . . . . . . . . . . . . . . . . . . . . -.< < < < < <  ..     ",
". N z < < < < < 9 ;.. . . . . . . . . . . . . . . . . . . . . . . . . . . . . B < < < < < <  ..     ",
". N z < < < < < 9 >.. . . . . . . . . . . . . . . . . . . . . . . . . . . . . B < < < < < <  ..     ",
". N z < < < < < 9 ,.. . . . . . . . . . . . . . . . . . . . . . . . . . . . . B < < < < < <  ..     ",
". N z < < < < < 9 '.. . . . . . . . . . . . . . . . . . . . . . . . . . . . . B < < < < < <  ..     ",
". N z < < < < < 9 '.. . . . . . . . . . . . . . . . . . . . . . . . . . . . . B < < < < < <  ..     ",
". n z < < < < < 9 '.. . . . . . . . . . . . . . . . . . . . . . . . . . . . . ).< < < < < <  ..     ",
". !.z < < < < < 9 '.. . . . . . . . . . . . . . . . . . . . . . . . . . . . . ~.< < < < < <  ..     ",
". N z < < < < < 9 ,.. . . . . . . . . . . . . . . . . . . . . . . . . . . . . {.< < < < < <  ..     ",
". N z < < < < < 9 '.. . . . . . . . . . . . . . . . . . . . . . . . . . . . . B < < < < < <  ..     ",
". ].z < < < < < 9 ^.. . . . . . . . . . . . . . . . . . . . . . . . . . . . . B < < < < < <  ..     ",
". N z < < < < < 9 '.. . . . . . . . . . . . . . . . . . . . . . . . . . . . . B < < < < < < M .     ",
". N z < < < < < 9 '.. . . . . . . . . . . . . . . . . . . . . . . . . . . . . B < < < < < <  ..     ",
". N z < < < < < 9 /.. . . . . . . . . . . . . . . . . . . . . . . . . . . . . ).< < < < < <  ..     ",
". ].z < < < < < 9 (.. . . . . . . . . . . . . . . . . . . . . . . . . . . . . B < < < < < < M .     ",
". _.z < < < < < 9 '.. . . . . . . . . . . . . . . . . . . . . . . . . . . . . B < < < < < <  ..     ",
". N A < < < < < 9 ,.. . . . . . . . . . . . . . . . . . . . . . . . . . . . . B < < < < < < M .     ",
". N z < < < < < 9 ,.. . . . . . . . . . . . . . . . . . . . . . . . . . . . . B < < < < < <  ..     ",
". N z < < < < < 9 :.. . . . . . . . . . . . . . . . . . . . . . . . . . . . . ).< < < < < <  ..     ",
". N z < < < < < 9 <.. . . . . . . . . . . . . . . . . . . . . . . . . . . . . [.< < < < < <  ..     ",
". ].z < < < < < 9 }.. . . . . . . . . . . . . . . . . . . . . . . . . . . . . ~.< < < < < <  ..     ",
". ].z < < < < < 9 >.. . . . . . . . . . . . . . . . . . . . . . . . . . . . . B < < < < < <  ..     ",
". N A < < < < < 9 '.. . . . . . . . . . . . . . . . . . . . . . . . . . . . . B < < < < < <  ..     ",
". N z < < < < < 9 |.. . . . . . . . . . . . . . . . . . . . . . . . . . . . . ).< < < < < <  ..     ",
". N z < < < < < 9 |.. . . . . . . . . . . . . . . . . . . . . . . . . . . . . B < < < < < <  ..     ",
". N z < < < < < 9 1.. . . . . . . . . . . . . . . . . . . . . . . . . . . . C 2.< < < < < <  ..     ",
". N z < < < < < 3.4.. . . . . . . . . . . . . . . . . . . . . . . . . . . . . 5.6.< < < < <  ..     ",
". N z < < < < 7.8.. . . . . . . . . . . . . . . . . . . . . . . . . . . . . . . 9.6.< < < <  ..     ",
". N z < < < 0.a.. . . . . . . . . . . . . . . . . . . . . . . . . . . . . . . . b.c.d.< < <  ..     ",
". N z < < 7.e.. . . . . . . . . . . . . . . . . . . . . . . . . . . . . . . . . . . f.6.< <  ..     ",
". g.z < h.i.. . - j.l k.l.m.n.o.o.o.o.m.o.o.o.o.m.p.> o.o.o.o.o.m.m.o.q.r.g.s.. . . . t.s < u..     ",
". ].A v.w.. . x.y.z.A.4 4 0 0 0 0 0 0 0 0 0 0 0 0 B.0 0 0 0 0 0 0 0 0 B.B.B.C.D.. . . . m E. ..     ",
". F.G.H.. . . I.J.9 < < < < < < < < < < < < < < < < < < < < < < < < < < < < < K.p.. . . . L.M..     ",
". ; N.. . O.[.P.< < < < < < < < < < < < < < < < < < < < < < < < < < < < < < < < t Q.R.C . . i..     ",
". . . . . S.v.< < < < < < < < < < < < < < < < < < < < < < < < < < < < < < < < < < < T.U.. . . .     ",
". . . C 1 V.W.s < < < < < < < < < < < < < < < < < < < < < < < < < < < < < < < < < d.X.Y.. . . C     ",
". Z.`.. . . R. +.+< < < < < < < < < < < < < < < < < < < < < < < < < < < < < < < ++V @+C . 8.#+.     ",
". $+%+[.&+. . . *+=+< < < < < < < < < < < < < < < < < < < < < < < < < < < < i -+;+. . . q.>+T..     ",
". ,+'+*.-.. . . )+!+Z L ~+{+L L {+L {+L L {+L L {+~+{+L L {+L L {+{+L {+#.h.]+| . . . ^+/+< J..     ",
". $+W.< *.(+. . . . | _+:+y y y <+y y y y [+y y }+}+y y y y y y }+|+1+y y e . . . . w.2+< < 3+.     ",
". ,+'+< < 4+5+6+. . . . . . . . . . . . . . . . . . . . . . . . . . . . . . . . . w.Z < < < 7+.     ",
". $+8+< < < 9+N.. . . . . . . . . . . . . . . . . . . . . . . . . . . . . . . C l 0+< < < < a+.     ",
". $+W.< < < < .+b+c+. . . . . . . . . . . . . . . . . . . . . . . . . . . . . ).d+< < < < < 7+.     ",
". ,+8+< < < < < e+f+. . . . . . . . . . . . . . . . . . . . . . . . . . . . . g+< < < < < < 7+.     ",
". ,+8+< < < < < d.h+. . . . . . . . . . . . . . . . . . . . . . . . . . . . . i+< < < < < < 7+.     ",
". ,+8+< < < < < j+R.. . . . . . . . . . . . . . . . . . . . . . . . . . . . . i+< < < < < < 7+.     ",
". ,+8+< < < < < k+l+. . . . . . . . . . . . . . . . . . . . . . . . . . . . . i+< < < < < < a+.     ",
". ,+8+< < < < < d.m+. . . . . . . . . . . . . . . . . . . . . . . . . . . . . i+< < < < < < a+.     ",
". ,+8+< < < < < j+R.. . . . . . . . . . . . . . . . . . . . . . . . . . . . . n+< < < < < < 7+.     ",
". o+8+< < < < < d.p+. . . . . . . . . . . . . . . . . . . . . . . . . . . . . i+< < < < < < q+.     ",
". a.8+< < < < < =+r+. . . . . . . . . . . . . . . . . . . . . . . . . . . . . i+< < < < < < 7+.     ",
". s+8+< < < < < =+t+. . . . . . . . . . . . . . . . . . . . . . . . . . . . . u+< < < < < < 7+.     ",
". ,+8+< < < < < v+l+. . . . . . . . . . . . . . . . . . . . . . . . . . . . . w+< < < < < < 7+.     ",
". ,+8+< < < < < j+x+. . . . . . . . . . . . . . . . . . . . . . . . . . . . . i+< < < < < < 7+.     ",
". y+8+< < < < < z+m+. . . . . . . . . . . . . . . . . . . . . . . . . . . . . A+< < < < < < 7+.     ",
". s+8+< < < < < B+C+. . . . . . . . . . . . . . . . . . . . . . . . . . . . . ).< < < < < < 7+.     ",
". s+W.< < < < < v+x+. . . . . . . . . . . . . . . . . . . . . . . . . . . . . -.< < < < < < 7+.     ",
". y+8+< < < < < d.t+. . . . . . . . . . . . . . . . . . . . . . . . . . . . . i+< < < < < < 7+.     ",
". ,+'+< < < < < e+R.. . . . . . . . . . . . . . . . . . . . . . . . . . . . . i+< < < < < < a+.     ",
". ,+8+< < < < < E.t+. . . . . . . . . . . . . . . . . . . . . . . . . . . . . i+< < < < < < 7+.     ",
". ,+8+< < < < < D+R.. . . . . . . . . . . . . . . . . . . . . . . . . . . . . i+< < < < < < a+.     ",
". ,+8+< < < < < B+r+. . . . . . . . . . . . . . . . . . . . . . . . . . . . . i+< < < < < < a+.     ",
". ,+8+< < < < < E+h+. . . . . . . . . . . . . . . . . . . . . . . . . . . . . i+< < < < < < 7+.     ",
". ,+8+< < < < < F+l+. . . . . . . . . . . . . . . . . . . . . . . . . . . . . G+< < < < < < a+.     ",
". $+8+< < < < < H+I+. . . . . . . . . . . . . . . . . . . . . . . . . . . . C J+< < < < < < 7+.     ",
". ,+8+< < < < < B+p+. . . . . . . . . . . . . . . . . . . . . . . . . . . . . G+< < < < < < 7+.     ",
". ,+8+< < < < < e+x+. . . . . . . . . . . . . . . . . . . . . . . . . . . . C K+< < < < < < a+.     ",
". y+8+< < < < < d.L+. . . . . . . . . . . . . . . . . . . . . . . . . . . . . i+< < < < < < q+.     ",
". ,+'+< < < < < M+t+. . . . . . . . . . . . . . . . . . . . . . . . . . . . . i+< < < < < < 7+.     ",
". o+8+< < < < < N+O+. . . . . . . . . . . . . . . . . . . . . . . . . . . . . P+< < < < < < 7+.     ",
". $+'+< < < < M+Q+. . . . . . . . . . . . . . . . . . . . . . . . . . . . . . ` R+< < < < < a+.     ",
". y+8+< < < S+T+. . . . . . . . . . . . . . . . . . . . . . . . . . . . . . . C 6 U+< < < < 7+.     ",
". ,+'+< < V+W+- . . . . . . . . . . . . . . . . . . . . . . . . . . . . . . . . . L+2+< < < 7+.     ",
". s+X+< Y+l . . . Z+`+ @.@+@+@+@+@+@+@@@+@+@@@+@+@+@+@+@+@+@+@+@+@+@+@@@#@l $@. . %@&@*@[ < 7+.     ",
". s+8+=@-@. . . . ;@N+< < < < < < < < < < < < < < < < < < < < < < < < < < h 2+>@C . . ,@'+< 3+.     ",
". '@r.)@. . . . I.A.< < < < < < < < < < < < < < < < < < < < < < < < < < < < < H -.. . . !@o a+.     ",
". ~@{@. . . ]@^@/@< < < < < < < < < < < < < < < < < < < < < < < < < < < < < < < (@_@. . 1 r+c..     ",
". C . . . . Q+x < < < < < < < < < < < < < < < < < < < < < < < < < < < < < < < < < (@:@C . . . .     ",
". . . . . <@[@< < < < < < < < < < < < < < < < < < < < < < < < < < < < < < < < < < < *@}@. . . .     ",
". . . |@1@L < < < < < < < < < < < < < < < < < < < < < < < < < < < < < < < < < < < < < 3 &@. . .     ",
". . . <.2@3@4@5@6@7@4@8@9@0@a@b@c@d@e@%+9@f@{ g@h@i@j@X.k@l@4@2@m@n@|+) 8@o@p@q@a@J <+r@s@. . .     ",
". . . - . . . . . . . . . . . . . . . . . . . . . . . . . . . . . . . . . . . . . . . . . . . .     ",
". . . . . . . . . . . . . . . . . . . . . . . . . . . . . . . . . . . . . . . . . . . . . . . .     ",
"                                                                                                    ",
"                                                                                                    "};
