/* XPM */
static char * placar5_xpm[] = {
"49 101 256 2",
"  	c None",
". 	c #000000",
"+ 	c #3B3A3A",
"@ 	c #110D0E",
"# 	c #212020",
"$ 	c #5D5C5D",
"% 	c #696969",
"& 	c #BFBEBF",
"* 	c #FAFAFA",
"= 	c #F8F8F8",
"- 	c #EFEFEF",
"; 	c #949393",
"> 	c #2B2B2B",
", 	c #030303",
"' 	c #6A696A",
") 	c #B6B5B6",
"! 	c #FFFFFF",
"~ 	c #F6F6F6",
"{ 	c #A09E9F",
"] 	c #4C4B4C",
"^ 	c #686667",
"/ 	c #CAC8C8",
"( 	c #F4F4F4",
"_ 	c #919090",
": 	c #777576",
"< 	c #6C6C6C",
"[ 	c #6E6D6E",
"} 	c #C8C6C7",
"| 	c #F2F2F2",
"1 	c #949192",
"2 	c #1C1B1C",
"3 	c #ACABAC",
"4 	c #D0D0D0",
"5 	c #6D6D6D",
"6 	c #020202",
"7 	c #676767",
"8 	c #C9C8C8",
"9 	c #F1F1F1",
"0 	c #939091",
"a 	c #939293",
"b 	c #FBFBFB",
"c 	c #C3C2C2",
"d 	c #757474",
"e 	c #010101",
"f 	c #646364",
"g 	c #C7C6C6",
"h 	c #949293",
"i 	c #1F1E1F",
"j 	c #CDCCCC",
"k 	c #5E5D5E",
"l 	c #666566",
"m 	c #ABA9AA",
"n 	c #D0CECF",
"o 	c #CDCDCD",
"p 	c #CDCBCC",
"q 	c #CDCCCD",
"r 	c #A4A2A3",
"s 	c #232223",
"t 	c #939192",
"u 	c #FCFCFC",
"v 	c #B7B6B7",
"w 	c #706F70",
"x 	c #CCCBCB",
"y 	c #707070",
"z 	c #D0CFD0",
"A 	c #737172",
"B 	c #A3A2A2",
"C 	c #A09FA0",
"D 	c #A8A6A7",
"E 	c #9F9E9E",
"F 	c #AEACAC",
"G 	c #9F9F9F",
"H 	c #979596",
"I 	c #AFACAD",
"J 	c #9F9C9D",
"K 	c #A29FA0",
"L 	c #868484",
"M 	c #ACAAAB",
"N 	c #9B9899",
"O 	c #9F9D9E",
"P 	c #969495",
"Q 	c #A09D9E",
"R 	c #ADAAAB",
"S 	c #A19FA0",
"T 	c #9C9A9B",
"U 	c #A5A2A3",
"V 	c #AAA7A8",
"W 	c #AEADAD",
"X 	c #1C1C1C",
"Y 	c #9E9D9D",
"Z 	c #A19E9F",
"` 	c #9E9E9E",
" .	c #ADABAC",
"..	c #A9A6A7",
"+.	c #DBDBDB",
"@.	c #AEACAD",
"#.	c #252424",
"$.	c #9D9B9C",
"%.	c #F2F1F1",
"&.	c #ACABAB",
"*.	c #9F9E9F",
"=.	c #AAA8A9",
"-.	c #2D2D2D",
";.	c #2F2F2F",
">.	c #AFADAD",
",.	c #0E0E0E",
"'.	c #9A9999",
").	c #C4C4C4",
"!.	c #BDBCBD",
"~.	c #BBBBBB",
"{.	c #BCBBBC",
"].	c #BCBBBB",
"^.	c #BAB9B9",
"/.	c #6C6B6B",
"(.	c #999899",
"_.	c #4F4E4F",
":.	c #959394",
"<.	c #E8E8E8",
"[.	c #D8D8D8",
"}.	c #908E8F",
"|.	c #272727",
"1.	c #AAA9AA",
"2.	c #A8A8A8",
"3.	c #1E1E1E",
"4.	c #464545",
"5.	c #B4B3B3",
"6.	c #FDFDFD",
"7.	c #888888",
"8.	c #8D8B8C",
"9.	c #C8C8C8",
"0.	c #5D5D5D",
"a.	c #2E2D2D",
"b.	c #ABAAAB",
"c.	c #FEFEFE",
"d.	c #F3F3F3",
"e.	c #A4A3A4",
"f.	c #080708",
"g.	c #575656",
"h.	c #C5C4C4",
"i.	c #A2A1A1",
"j.	c #2C2B2B",
"k.	c #747374",
"l.	c #646464",
"m.	c #888687",
"n.	c #EBEBEB",
"o.	c #7E7D7D",
"p.	c #1A1A1A",
"q.	c #353435",
"r.	c #7F7E7E",
"s.	c #989697",
"t.	c #1B1B1B",
"u.	c #807F80",
"v.	c #BEBEBE",
"w.	c #F7F7F7",
"x.	c #D9D8D9",
"y.	c #7B7A7B",
"z.	c #424142",
"A.	c #9D9C9C",
"B.	c #DCDCDC",
"C.	c #696868",
"D.	c #ADACAD",
"E.	c #A2A1A2",
"F.	c #A3A1A2",
"G.	c #A2A0A1",
"H.	c #A3A1A1",
"I.	c #A1A0A1",
"J.	c #C2C1C1",
"K.	c #9D9A9B",
"L.	c #323132",
"M.	c #373636",
"N.	c #9B9A9A",
"O.	c #E2E2E2",
"P.	c #3E3D3E",
"Q.	c #E2E1E1",
"R.	c #424141",
"S.	c #363535",
"T.	c #A09F9F",
"U.	c #E2E1E2",
"V.	c #939292",
"W.	c #969595",
"X.	c #989798",
"Y.	c #999798",
"Z.	c #969596",
"`.	c #B0AFB0",
" +	c #989797",
".+	c #B3B2B3",
"++	c #B1B0B1",
"@+	c #999898",
"#+	c #B9B9B9",
"$+	c #B9B8B9",
"%+	c #ADACAC",
"&+	c #C7C7C7",
"*+	c #656465",
"=+	c #515151",
"-+	c #636363",
";+	c #686768",
">+	c #666565",
",+	c #656464",
"'+	c #656364",
")+	c #646363",
"!+	c #676667",
"~+	c #676666",
"{+	c #666666",
"]+	c #636263",
"^+	c #666465",
"/+	c #656565",
"(+	c #949394",
"_+	c #C6C5C6",
":+	c #EEEEEE",
"<+	c #EEEDEE",
"[+	c #E5E4E4",
"}+	c #EFEEEE",
"|+	c #E9E8E8",
"1+	c #E5E4E5",
"2+	c #DADADA",
"3+	c #E6E5E5",
"4+	c #D4D4D4",
"5+	c #6F6F6F",
"6+	c #5E5E5E",
"7+	c #979697",
"8+	c #E6E5E6",
"9+	c #C4C3C4",
"0+	c #E1E1E1",
"a+	c #E7E7E7",
"b+	c #F5F5F5",
"c+	c #D1D0D0",
"d+	c #605E5F",
"e+	c #616060",
"f+	c #E7E6E6",
"g+	c #767576",
"h+	c #393839",
"i+	c #383738",
"j+	c #9A9899",
"k+	c #CFCECE",
"l+	c #727171",
"m+	c #9C9A9A",
"n+	c #E8E7E8",
"o+	c #C8C7C8",
"p+	c #F0F0F0",
"q+	c #FFFEFF",
"r+	c #525152",
"s+	c #848383",
"t+	c #818081",
"u+	c #828081",
"v+	c #838383",
"w+	c #818080",
"x+	c #848182",
"y+	c #828181",
"z+	c #838283",
"A+	c #828182",
"B+	c #828282",
"C+	c #848384",
"D+	c #848283",
"E+	c #858485",
"F+	c #878687",
"G+	c #7C7B7B",
". . . . . . . . . . . . . . . . . . . . . . . . . . . . . . . . . . . . . . . . . . . . . . . .   ",
". . . . . . . . . . . . . . . . . . . . . . . . . . . . . . . . . . . . . . . . . . . . . . . .   ",
". . . . . . . . . . . . . . . . . . . . . . . . . . . . . . . . . . . . . . . . . . . . . . . .   ",
". . . . . . . . . . . . . . . . . . . . . . . . . . . . . . . . . . . . . . . . . . . . . . . .   ",
". . . . . . . . . . . . . . . . . . . . . . . . . . . . . . . . . . . . . . . . . . . . . . . .   ",
". . . . . . . . . . . . . . . . . . . . . . . . . . . . . . . . . . . . . . . . . . . . . . . .   ",
". . . . + @ . . . . . . . . . . . . . . . . . . . . . . . . . . . . . . . . . . . . . . # $ . .   ",
". . . . % & * = = = = = = = = = = = = = = = = = = = = = = = = = = = = = = = = = = = = - ; > . .   ",
". . . . , ' ) ! ! ! ! ! ! ! ! ! ! ! ! ! ! ! ! ! ! ! ! ! ! ! ! ! ! ! ! ! ! ! ! ! ! ! ~ { ] . . .   ",
". . . . . . ^ / ! ! ! ! ! ! ! ! ! ! ! ! ! ! ! ! ! ! ! ! ! ! ! ! ! ! ! ! ! ! ! ! ! ( _ > . . . .   ",
". . : < . . . [ } ! ! ! ! ! ! ! ! ! ! ! ! ! ! ! ! ! ! ! ! ! ! ! ! ! ! ! ! ! ! | ~ 1 2 . . . . .   ",
". . 3 4 5 . . 6 7 8 ! ! ! ! ! ! ! ! ! ! ! ! ! ! ! ! ! ! ! ! ! ! ! ! ! ! ! ! = 9 0 > . . . . . .   ",
". . a b c d e . . f g ! ! ! ! ! ! ! ! ! ! ! ! ! ! ! ! ! ! ! ! ! ! ! ! ! ! ! ( h i . . . . . . .   ",
". . a ! ! j k . . , l m n j o o o o o o o o o o o o o o o o o o o o o o p q r s . . . . . . . .   ",
". . t ! ! u v w 6 . . . . . . . . . . . . . . . . . . . . . . . . . . . . . . e . . . . . . . .   ",
". . t ! ! ! ! x y . . . . . . . . . . . . . . . . . . . . . . . . . . . . . . . . . . . . . . .   ",
". . t ! ! ! ! ! z A . . . . . . . . . . . . . . . . . . . . . . . . . . . . . . . . . . . . . .   ",
". . t ! ! ! ! ! ! B . . . . . . . . . . . . . . . . . . . . . . . . . . . . . . . . . . . . . .   ",
". . t ! ! ! ! ! ! C . . . . . . . . . . . . . . . . . . . . . . . . . . . . . . . . . . . . . .   ",
". . D ! ! ! ! ! ! E . . . . . . . . . . . . . . . . . . . . . . . . . . . . . . . . . . . . . .   ",
". . F ! ! ! ! ! ! G . . . . . . . . . . . . . . . . . . . . . . . . . . . . . . . . . . . . . .   ",
". . H ! ! ! ! ! ! G . . . . . . . . . . . . . . . . . . . . . . . . . . . . . . . . . . . . . .   ",
". . I ! ! ! ! ! ! G . . . . . . . . . . . . . . . . . . . . . . . . . . . . . . . . . . . . . .   ",
". . J ! ! ! ! ! ! G . . . . . . . . . . . . . . . . . . . . . . . . . . . . . . . . . . . . . .   ",
". . K ! ! ! ! ! ! G . . . . . . . . . . . . . . . . . . . . . . . . . . . . . . . . . . . . . .   ",
". . h ! ! ! ! ! ! G . . . . . . . . . . . . . . . . . . . . . . . . . . . . . . . . . . . . . .   ",
". . L ! ! ! ! ! ! G . . . . . . . . . . . . . . . . . . . . . . . . . . . . . . . . . . . . . .   ",
". . M ! ! ! ! ! ! G . . . . . . . . . . . . . . . . . . . . . . . . . . . . . . . . . . . . . .   ",
". . a ! ! ! ! ! ! G . . . . . . . . . . . . . . . . . . . . . . . . . . . . . . . . . . . . . .   ",
". . N ! ! ! ! ! ! G . . . . . . . . . . . . . . . . . . . . . . . . . . . . . . . . . . . . . .   ",
". . O ! ! ! ! ! ! G . . . . . . . . . . . . . . . . . . . . . . . . . . . . . . . . . . . . . .   ",
". . P ! ! ! ! ! ! G . . . . . . . . . . . . . . . . . . . . . . . . . . . . . . . . . . . . . .   ",
". . Q ! ! ! ! ! ! G . . . . . . . . . . . . . . . . . . . . . . . . . . . . . . . . . . . . . .   ",
". . R ! ! ! ! ! ! G . . . . . . . . . . . . . . . . . . . . . . . . . . . . . . . . . . . . . .   ",
". . S ! ! ! ! ! ! G . . . . . . . . . . . . . . . . . . . . . . . . . . . . . . . . . . . . . .   ",
". . T ! ! ! ! ! ! G . . . . . . . . . . . . . . . . . . . . . . . . . . . . . . . . . . . . . .   ",
". . U ! ! ! ! ! ! G . . . . . . . . . . . . . . . . . . . . . . . . . . . . . . . . . . . . . .   ",
". . V ! ! ! ! ! ! G . . . . . . . . . . . . . . . . . . . . . . . . . . . . . . . . . . . . . .   ",
". . h ! ! ! ! ! ! W X . . . . . . . . . . . . . . . . . . . . . . . . . . . . . . . . . . . . .   ",
". . K ! ! ! ! ! ! Y . . . . . . . . . . . . . . . . . . . . . . . . . . . . . . . . . . . . . .   ",
". . Q ! ! ! ! ! ! G . . . . . . . . . . . . . . . . . . . . . . . . . . . . . . . . . . . . . .   ",
". . P ! ! ! ! ! ! G . . . . . . . . . . . . . . . . . . . . . . . . . . . . . . . . . . . . . .   ",
". . Z ! ! ! ! ! ! ` . . . . . . . . . . . . . . . . . . . . . . . . . . . . . . . . . . . . . .   ",
". .  .! ! ! ! ! ! W X . . . . . . . . . . . . . . . . . . . . . . . . . . . . . . . . . . . . .   ",
". . ..! ! ! ! ! +.C . . . . . . . . . . . . . . . . . . . . . . . . . . . . . . . . . . . . . .   ",
". . Q ! ! ! ! - @.#.. . . . . . . . . . . . . . . . . . . . . . . . . . . . . . . . . . . . . .   ",
". . $.! ! ! %.&.. . . . . . . . . . . . . . . . . . . . . . . . . . . . . . . . . . . . . . . .   ",
". . *.! ! 9 =.X . . . -.;.. . . . . . . . . . . . . . . . . . . . . . . . . . . . . . . . . . .   ",
". . H ! - >.,.. . . '.).!.~.{.{.{.{.{.{.{.{.{.{.{.{.{.{.{.{.{.{.{.].{.{.{.~.^./.. . . . . . . .   ",
". . (.( M . . e _.:.<.! ! ! ! ! ! ! ! ! ! ! ! ! ! ! ! ! ! ! ! ! ! ! ! ! ! ! ! [.}.|.. . . . . .   ",
". . 1.2.3.. . 4.5.6.! ! ! ! ! ! ! ! ! ! ! ! ! ! ! ! ! ! ! ! ! ! ! ! ! ! ! ! ! ! 9 7.. 6 . . . .   ",
". . , , . e 8.9.! ! ! ! ! ! ! ! ! ! ! ! ! ! ! ! ! ! ! ! ! ! ! ! ! ! ! ! ! ! ! ! ! ! c 0.. . . .   ",
". . . . . a.b.c.! ! ! ! ! ! ! ! ! ! ! ! ! ! ! ! ! ! ! ! ! ! ! ! ! ! ! ! ! ! ! ! ! ! d.e.. . . .   ",
". . . . . f.g.h.<.! ! ! ! ! ! ! ! ! ! ! ! ! ! ! ! ! ! ! ! ! ! ! ! ! ! ! ! ! ! ! ! d.i.j.. . k.l.  ",
". . . . . . 6 . m.n.! ! ! ! ! ! ! ! ! ! ! ! ! ! ! ! ! ! ! ! ! ! ! ! ! ! ! ! ! ! 4 o.p.. e q.r.s.  ",
". . . . . . . . t.u.v.! ! ! ! ! ! ! ! ! ! ! ! ! ! ! ! ! ! ! ! ! ! ! ! ! ! ! w.x.y.. . e z.A.B.:.  ",
". . . . . . . . . . C.D.D.& i.E.F.G.E.E.E.G.i.E.G.i.H.E.E.F.i.E.E.i.F.G.I.J.K.L.. . . M.N.c.O.:.  ",
". . . . . . . . . . . . . . . . . . . . . . . . . . . . . . . . . . . . . . . e . e P.E b ! Q.:.  ",
". . . . . . . . . . . . . . . . . . . . . . . . . . . . . . . . . . . . . . . . . R.A.u ! ! O.:.  ",
". . . . . . . . . . . . . . . . . . . . . . . . . . . . . . . . . . . . . . . e S.T.c.! ! ! Q.:.  ",
". . . . . . . . . . . . . . . . . . . . . . . . . . . . . . . . . . . . . . . . h u ! ! ! ! U.V.  ",
". . . . . . . . . . . . . . . . . . . . . . . . . . . . . . . . . . . . . . . . W.! ! ! ! ! Q.:.  ",
". . . . . . . . . . . . . . . . . . . . . . . . . . . . . . . . . . . . . . . . W.! ! ! ! ! Q.:.  ",
". . . . . . . . . . . . . . . . . . . . . . . . . . . . . . . . . . . . . . . . X.! ! ! ! ! Q.:.  ",
". . . . . . . . . . . . . . . . . . . . . . . . . . . . . . . . . . . . . . . . Y.! ! ! ! ! Q.:.  ",
". . . . . . . . . . . . . . . . . . . . . . . . . . . . . . . . . . . . . . . . Z.! ! ! ! ! Q.:.  ",
". . . . . . . . . . . . . . . . . . . . . . . . . . . . . . . . . . . . . . . . Y.! ! ! ! ! Q.:.  ",
". . . . . . . . . . . . . . . . . . . . . . . . . . . . . . . . . . . . . . . . `.! ! ! ! ! Q.:.  ",
". . . . . . . . . . . . . . . . . . . . . . . . . . . . . . . . . . . . . . . . Y.! ! ! ! ! Q.:.  ",
". . . . . . . . . . . . . . . . . . . . . . . . . . . . . . . . . . . . . . . .  +! ! ! ! ! Q.:.  ",
". . . . . . . . . . . . . . . . . . . . . . . . . . . . . . . . . . . . . . . . Y.! ! ! ! ! Q.:.  ",
". . . . . . . . . . . . . . . . . . . . . . . . . . . . . . . . . . . . . . . . Y.! ! ! ! ! Q.:.  ",
". . . . . . . . . . . . . . . . . . . . . . . . . . . . . . . . . . . . . . . . X.! ! ! ! ! Q.:.  ",
". . . . . . . . . . . . . . . . . . . . . . . . . . . . . . . . . . . . . . . . W.! ! ! ! ! Q.:.  ",
". . . . . . . . . . . . . . . . . . . . . . . . . . . . . . . . . . . . . . . . .+! ! ! ! ! Q.:.  ",
". . . . . . . . . . . . . . . . . . . . . . . . . . . . . . . . . . . . . . . . Y.! ! ! ! ! Q.:.  ",
". . . . . . . . . . . . . . . . . . . . . . . . . . . . . . . . . . . . . . . . Y.! ! ! ! ! O.t   ",
". . . . . . . . . . . . . . . . . . . . . . . . . . . . . . . . . . . . . . . . X.! ! ! ! ! Q.:.  ",
". . . . . . . . . . . . . . . . . . . . . . . . . . . . . . . . . . . . . . . . X.! ! ! ! ! Q.:.  ",
". . . . . . . . . . . . . . . . . . . . . . . . . . . . . . . . . . . . . . . .  +! ! ! ! ! Q.:.  ",
". . . . . . . . . . . . . . . . . . . . . . . . . . . . . . . . . . . . . . . . Y.! ! ! ! ! U.h   ",
". . . . . . . . . . . . . . . . . . . . . . . . . . . . . . . . . . . . . . . . X.! ! ! ! ! U.h   ",
". . . . . . . . . . . . . . . . . . . . . . . . . . . . . . . . . . . . . . . . s.! ! ! ! ! Q.:.  ",
". . . . . . . . . . . . . . . . . . . . . . . . . . . . . . . . . . . . . . . . ++! ! ! ! ! O.:.  ",
". . . . . . . . . . . . . . . . . . . . . . . . . . . . . . . . . . . . . . . . @+! ! ! ! ! Q.:.  ",
". . . . . . . . . . . . . . . . . . . . . . . . . . . . . . . . . . . . . . . . #+! ! ! ! ! U.:.  ",
". . . . . . . . . . . . . . . . . . . . . . . . . . . . . . . . . . . . . . . . $+! ! ! ! ! O.:.  ",
". . . . . . . . . . . . . . . . . . . . . . . . . . . . . . . . . . . . . . . . %+! ! ! ! ! O.:.  ",
". . . . . . . . . . . . . . . . . . . . . . . . . . . . . . . . . . . . . . . 6 l.&+! ! ! ! Q.:.  ",
". . . . . . . . . . . . . . . . . . . . . . . . . . . . . . . . . . . . . . . . . *+h.! ! ! Q.:.  ",
". . . . . . . . . . . =+-+;+>+,+*+f -+'+)+!+f )+~+,+*+-+{+l.]+!+f *+-+'+^+>+_.. . , /+h.6.! Q.:.  ",
". . . . . . . . . . (+_+w.q <.n.:+:+<+:+<+[+}+9 Q.|+:+:+1+:+:+2+:+:+<+9 3+4+P 5+6 . . 6+&+! O.:.  ",
". . . . . . . . . 7+8+! ! ! ! ! ! ! ! ! ! ! ! ! ! ! ! ! ! ! ! ! ! ! ! ! ! ! ! n A . . . 7 9+0+:.  ",
". . . . . . . . X.a+! ! ! ! ! ! ! ! ! ! ! ! ! ! ! ! ! ! ! ! ! ! ! ! ! ! ! ! ! b+c+d+. . , e+&.E   ",
". . . . . . . N f+! ! ! ! ! ! ! ! ! ! ! ! ! ! ! ! ! ! ! ! ! ! ! ! ! ! ! ! ! ! ! ! x g+e . . h+i+  ",
". . . . . . j+a+! ! ! ! ! ! ! ! ! ! ! ! ! ! ! ! ! ! ! ! ! ! ! ! ! ! ! ! ! ! ! ! ! ! k+l+. . . .   ",
". . . . . m+n+! ! ! ! ! ! ! ! ! ! ! ! ! ! ! ! ! ! ! ! ! ! ! ! ! ! ! ! ! ! ! ! ! ! ! ! g g+. . .   ",
". . . . C o+c.c.b c.c.c.! :+( c.c.c.c.c.c.p+w.b 9 c.c.9 ! c.c.c.c.c.c.d.9 c.c.9 q+( u ! .+k . .   ",
". . . 6 r+s+t+u+v+w+x+y+y+z+A+B+z+z+z+z+z+t+z+C+B+A+z+z+u+z+D+z+B+A+z+y+C+z+A+z+D+E+F+G+F+] . .   ",
". . . . . . . . . . . . . . . . . . . . . . . . . . . . . . . . . . . . . . . . . . . . . . . .   ",
"                                                                                                  "};
