/* XPM */
static char * placar7_xpm[] = {
"51 103 185 2",
"  	c None",
". 	c #000000",
"+ 	c #2D2D2D",
"@ 	c #434343",
"# 	c #0A0909",
"$ 	c #0C0C0C",
"% 	c #0B0B0B",
"& 	c #0D0D0D",
"* 	c #010101",
"= 	c #ABABAB",
"- 	c #A8A8A8",
"; 	c #B4B4B4",
"> 	c #B5B5B5",
", 	c #B5B4B5",
"' 	c #B3B3B3",
") 	c #B5B4B4",
"! 	c #B4B3B3",
"~ 	c #B6B6B6",
"{ 	c #B6B5B5",
"] 	c #B2B2B2",
"^ 	c #B8B7B7",
"/ 	c #363636",
"( 	c #676667",
"_ 	c #9E9D9D",
": 	c #F7F7F7",
"< 	c #FFFFFF",
"[ 	c #B9B9B8",
"} 	c #555454",
"| 	c #595959",
"1 	c #7E7D7D",
"2 	c #F2F2F2",
"3 	c #565655",
"4 	c #5E5E5E",
"5 	c #9D9C9C",
"6 	c #F0F0F0",
"7 	c #4E4E4D",
"8 	c #5D5C5D",
"9 	c #EFEFEF",
"0 	c #4E4E4E",
"a 	c #969595",
"b 	c #626161",
"c 	c #020202",
"d 	c #1F1F1F",
"e 	c #A09E9F",
"f 	c #F1F1F1",
"g 	c #FEFEFE",
"h 	c #575657",
"i 	c #3A3B3A",
"j 	c #8C8C8C",
"k 	c #CAC9C9",
"l 	c #5D5D5D",
"m 	c #666566",
"n 	c #A3A2A2",
"o 	c #D2D1D1",
"p 	c #D0D0D0",
"q 	c #4B4A4A",
"r 	c #383938",
"s 	c #919090",
"t 	c #DBDBDB",
"u 	c #606060",
"v 	c #585858",
"w 	c #7F7E7E",
"x 	c #80807F",
"y 	c #7E7E7E",
"z 	c #7E7E7D",
"A 	c #7C7C7D",
"B 	c #5C5C5C",
"C 	c #161616",
"D 	c #8C8B8B",
"E 	c #DDDDDD",
"F 	c #3E3F3F",
"G 	c #919191",
"H 	c #F3F3F3",
"I 	c #5A5A5A",
"J 	c #2A2B2A",
"K 	c #8C8A8B",
"L 	c #F4F4F4",
"M 	c #5B5B5B",
"N 	c #898788",
"O 	c #939192",
"P 	c #CECECE",
"Q 	c #8B8989",
"R 	c #5F5F5F",
"S 	c #908E8F",
"T 	c #D6D6D6",
"U 	c #DFDFDF",
"V 	c #928F90",
"W 	c #C2C1C1",
"X 	c #D7D7D7",
"Y 	c #929090",
"Z 	c #C9C9C9",
"` 	c #616161",
" .	c #939292",
"..	c #CBCBCB",
"+.	c #636363",
"@.	c #BCBCBC",
"#.	c #CFCFCF",
"$.	c #606161",
"%.	c #D8D7D7",
"&.	c #949293",
"*.	c #D8D8D8",
"=.	c #D2D2D2",
"-.	c #EDEDED",
";.	c #EBEBEB",
">.	c #BBBABB",
",.	c #CECDCD",
"'.	c #918F8F",
").	c #C0BFBF",
"!.	c #DEDEDE",
"~.	c #8E8D8D",
"{.	c #DCDCDC",
"].	c #C2C2C2",
"^.	c #626262",
"/.	c #908F8F",
"(.	c #D4D4D4",
"_.	c #EAEAEA",
":.	c #929191",
"<.	c #8F8E8E",
"[.	c #E2E1E2",
"}.	c #828282",
"|.	c #EBEAEA",
"1.	c #858484",
"2.	c #020302",
"3.	c #888687",
"4.	c #E8E8E8",
"5.	c #818180",
"6.	c #646363",
"7.	c #0F0F0F",
"8.	c #868585",
"9.	c #D7D6D6",
"0.	c #1B1C1C",
"a.	c #868485",
"b.	c #A2A1A1",
"c.	c #666565",
"d.	c #242524",
"e.	c #313332",
"f.	c #999898",
"g.	c #565656",
"h.	c #111111",
"i.	c #9C9B9B",
"j.	c #605F60",
"k.	c #817F7F",
"l.	c #A6A5A5",
"m.	c #6C6B6C",
"n.	c #5C5B5B",
"o.	c #C3C3C3",
"p.	c #6E6D6D",
"q.	c #212322",
"r.	c #ECECEC",
"s.	c #C5C4C4",
"t.	c #706F6F",
"u.	c #464646",
"v.	c #898888",
"w.	c #C4C4C4",
"x.	c #6F6E6E",
"y.	c #030303",
"z.	c #1A1C1B",
"A.	c #C4C3C4",
"B.	c #6E6D6E",
"C.	c #AAA9A9",
"D.	c #807F7F",
"E.	c #EEEEEE",
"F.	c #C4C3C3",
"G.	c #737172",
"H.	c #727071",
"I.	c #747273",
"J.	c #6D6C6D",
"K.	c #787778",
"L.	c #6B6A6A",
"M.	c #A5A3A4",
"N.	c #727171",
"O.	c #AEACAD",
"P.	c #737272",
"Q.	c #838282",
"R.	c #706F70",
"S.	c #A2A0A1",
"T.	c #6E6C6D",
"U.	c #A4A3A3",
"V.	c #6D6D6D",
"W.	c #6B6B6B",
"X.	c #A4A2A3",
"Y.	c #A9A8A9",
"Z.	c #515151",
"`.	c #B0AEAF",
" +	c #636262",
". . . . . . . . . . . . . . . . . . . . . . . . + @ . . . . . . . . . . . . . . . . . . . . . .       ",
". . . . . . . . . . . . . . . . . . . . . . . . . . . . . . . . . . . . . . . . . . . . . . . .       ",
". . . . . . . . . . . . . . . . . . . . . . . . . . . . . . . . . . . . . . . . . . . . . . . .       ",
". . . . . . . . . . . . . . . . . . . . . . . . . . . . . . . . . . . . . . . . . . . . . . . .       ",
". . . . . . . . . . . . . . . . . . . . . . . . . . . . . . . . . . . . . . . . . . . . . . . .       ",
". . . . . . . . . . . . . . . . . . . . . . . . . . . . . . . . . . . . . . . . . . . . . . . .       ",
". . . . . . . . . . . . . . . . . . . . . . . . . . . . . . . . . . . . . . . . . . . . . . . .       ",
". # $ $ $ $ $ % $ % $ $ $ $ $ % $ $ % $ $ $ % $ $ $ $ % % $ $ $ % $ % % % $ $ % $ & * . . . . .       ",
". = - ; > ; , ' ) ! ; ; ; ; > ' ; ; ' ~ > ; ! ~ ; ; { ' ' { ; { ' ; ] ; ! { ; ' ; ^ / . . . . .       ",
". ( _ : < < < < < < < < < < < < < < < < < < < < < < < < < < < < < < < < < < < < [ } . . . . . .       ",
". . | 1 2 < < < < < < < < < < < < < < < < < < < < < < < < < < < < < < < < < < ' 3 . . . . . . .       ",
". . . 4 5 6 < < < < < < < < < < < < < < < < < < < < < < < < < < < < < < < < { 7 * . . . . . . .       ",
". . . . 8 , 9 < < < < < < < < < < < < < < < < < < < < < < < < < < < < < < ] 0 . . . . a b . . .       ",
". . . . c d e f < < < < < < < < < < < < < < < < < < < < < < < < < < < g ] h c . . i j k l . . .       ",
". . . . . . m n o p p p p p p p p p p p p p p p p p p p p p p p p p p > q . . . r s 2 t u . . .       ",
". . . . . . . v w x y x x x x w x w z x x x x x x x x x x x x x x x A B . . . C D 2 < E 4 . . .       ",
". . . . . . . . . . . . . . . . . . . . . . . . . . . . . . . . . . . . . . F G f < < H I . . .       ",
". . . . . . . . . . . . . . . . . . . . . . . . . . . . . . . . . . . . J I K L < < < 2 M . . .       ",
". . . . . . . . . . . . . . . . . . . . . . . . . . . . . . . . . . . . @ N 2 < < < < 2 M . . .       ",
". . . . . . . . . . . . . . . . . . . . . . . . . . . . . . . . . . . . O P < < < < < 2 M . . .       ",
". . . . . . . . . . . . . . . . . . . . . . . . . . . . . . . . . . . . Q g < < < < < t R . . .       ",
". . . . . . . . . . . . . . . . . . . . . . . . . . . . . . . . . . . . S T < < < < < U 4 . . .       ",
". . . . . . . . . . . . . . . . . . . . . . . . . . . . . . . . . . . . V W < < < < < H B . . .       ",
". . . . . . . . . . . . . . . . . . . . . . . . . . . . . . . . . . . . S W < < < < < X R . . .       ",
". . . . . . . . . . . . . . . . . . . . . . . . . . . . . . . . . . . . Y W < < < < < Z ` . . .       ",
". . . . . . . . . . . . . . . . . . . . . . . . . . . . . . . . . . . . Y W < < < < < P ` . . .       ",
". . . . . . . . . . . . . . . . . . . . . . . . . . . . . . . . . . . .  .W < < < < < ..+.. . .       ",
". . . . . . . . . . . . . . . . . . . . . . . . . . . . . . . . . . . . Y W < < < < < @.+.. . .       ",
". . . . . . . . . . . . . . . . . . . . . . . . . . . . . . . . . . . . S W < < < < < #.$.. . .       ",
". . . . . . . . . . . . . . . . . . . . . . . . . . . . . . . . . . . . V W < < < < < E u . . .       ",
". . . . . . . . . . . . . . . . . . . . . . . . . . . . . . . . . . . . V W < < < < < P ` . . .       ",
". . . . . . . . . . . . . . . . . . . . . . . . . . . . . . . . . . . . S W < < < < < %.u . . .       ",
". . . . . . . . . . . . . . . . . . . . . . . . . . . . . . . . . . . . &.W < < < < < X u . . .       ",
". . . . . . . . . . . . . . . . . . . . . . . . . . . . . . . . . . . . Y W < < < < < *.` . . .       ",
". . . . . . . . . . . . . . . . . . . . . . . . . . . . . . . . . . . . S W < < < < < =.u . . .       ",
". . . . . . . . . . . . . . . . . . . . . . . . . . . . . . . . . . . . Y W < < < < < -.l . . .       ",
". . . . . . . . . . . . . . . . . . . . . . . . . . . . . . . . . . . . S W < < < < < ;.B . . .       ",
". . . . . . . . . . . . . . . . . . . . . . . . . . . . . . . . . . . . V W < < < < < >.+.. . .       ",
". . . . . . . . . . . . . . . . . . . . . . . . . . . . . . . . . . . . V W < < < < < ,.` . . .       ",
". . . . . . . . . . . . . . . . . . . . . . . . . . . . . . . . . . . . '.).< < < < < !.u . . .       ",
". . . . . . . . . . . . . . . . . . . . . . . . . . . . . . . . . . . . ~.{.< < < < < ].^.. . .       ",
". . . . . . . . . . . . . . . . . . . . . . . . . . . . . . . . . . . . /.W < < < < < ..` . . .       ",
". . . . . . . . . . . . . . . . . . . . . . . . . . . . . . . . . . . . /.W < < < < < (.` . . .       ",
". . . . . . . . . . . . . . . . . . . . . . . . . . . . . . . . . . . . /.W < < < < < _.4 . . .       ",
". . . . . . . . . . . . . . . . . . . . . . . . . . . . . . . . . . . . :.).< < < < < #.u . . .       ",
". . . . . . . . . . . . . . . . . . . . . . . . . . . . . . . . . . . . <.[.< < < < < {.u . . .       ",
". . . . . . . . . . . . . . . . . . . . . . . . . . . . . . . . . . . . . }.|.< < < < {.u . . .       ",
". . . . . . . . . . . . . . . . . . . . . . . . . . . . . . . . . . . . . . 1._.< < < -.M . . .       ",
". . . . . . . . . . . . . . . . . . . . . . . . . . . . . . . . . . . . . . 2.3.4.< < E l . . .       ",
". . . . . . . . . . . . . . . . . . . . . . . . . . . . . . . . . . . . . . . . 5._.< %.6.. . .       ",
". . . . . . . . . . . . . . . . . . . . . . . . . . . . . . . . . . . . . . . . 7.8.4.9.4 . . .       ",
". . . . . . . . . . . . . . . . . . . . . . . . . . . . . . . . . . . . . . . . . 0.a.b.c.. . .       ",
". . . . . . . . . . . . . . . . . . . . . . . . . . . . . . . . . . . . . . . . . d.e.f.g.. . .       ",
". . . . . . . . . . . . . . . . . . . . . . . . . . . . . . . . . . . . . . . . . . h.. . . . .       ",
". . . . . . . . . . . . . . . . . . . . . . . . . . . . . . . . . . . . . . . . . . . . . . . .       ",
". . . . . . . . . . . . . . . . . . . . . . . . . . . . . . . . . . . . . . . . . . . i.j.. . .       ",
". . . . . . . . . . . . . . . . . . . . . . . . . . . . . . . . . . . . . . . . . . k.l.m.. . .       ",
". . . . . . . . . . . . . . . . . . . . . . . . . . . . . . . . . . . . . . . . n.1 ;.o.p.. . .       ",
". . . . . . . . . . . . . . . . . . . . . . . . . . . . . . . . . . . . . . . q.:.r.< s.t.. . .       ",
". . . . . . . . . . . . . . . . . . . . . . . . . . . . . . . . . . . . . . u.v.;.< < w.x.. . .       ",
". . . . . . . . . . . . . . . . . . . . . . . . . . . . . . . . . . . . y.z.8.-.< < < A.B.. . .       ",
". . . . . . . . . . . . . . . . . . . . . . . . . . . . . . . . . . . . . C.-.< < < < A.x.. . .       ",
". . . . . . . . . . . . . . . . . . . . . . . . . . . . . . . . . . . . D.E.< < < < < F.B.. . .       ",
". . . . . . . . . . . . . . . . . . . . . . . . . . . . . . . . . . . . G.< < < < < < F.B.. . .       ",
". . . . . . . . . . . . . . . . . . . . . . . . . . . . . . . . . . . . H.< < < < < < F.B.. . .       ",
". . . . . . . . . . . . . . . . . . . . . . . . . . . . . . . . . . . . I.< < < < < < w.x.. . .       ",
". . . . . . . . . . . . . . . . . . . . . . . . . . . . . . . . . . . . I.< < < < < < s.x.. . .       ",
". . . . . . . . . . . . . . . . . . . . . . . . . . . . . . . . . . . . I.< < < < < < A.x.. . .       ",
". . . . . . . . . . . . . . . . . . . . . . . . . . . . . . . . . . . . I.< < < < < < F.B.. . .       ",
". . . . . . . . . . . . . . . . . . . . . . . . . . . . . . . . . . . . I.< < < < < < A.x.. . .       ",
". . . . . . . . . . . . . . . . . . . . . . . . . . . . . . . . . . . . I.< < < < < < A.B.. . .       ",
". . . . . . . . . . . . . . . . . . . . . . . . . . . . . . . . . . . . I.< < < < < < w.x.. . .       ",
". . . . . . . . . . . . . . . . . . . . . . . . . . . . . . . . . . . . I.< < < < < < F.B.. . .       ",
". . . . . . . . . . . . . . . . . . . . . . . . . . . . . . . . . . . . I.< < < < < < F.B.. . .       ",
". . . . . . . . . . . . . . . . . . . . . . . . . . . . . . . . . . . . I.< < < < < < A.x.. . .       ",
". . . . . . . . . . . . . . . . . . . . . . . . . . . . . . . . . . . . I.< < < < < < s.x.. . .       ",
". . . . . . . . . . . . . . . . . . . . . . . . . . . . . . . . . . . . G.< < < < < < s.x.. . .       ",
". . . . . . . . . . . . . . . . . . . . . . . . . . . . . . . . . . . . I.< < < < < < o.J.. . .       ",
". . . . . . . . . . . . . . . . . . . . . . . . . . . . . . . . . . . . I.< < < < < < A.x.. . .       ",
". . . . . . . . . . . . . . . . . . . . . . . . . . . . . . . . . . . . I.< < < < < < A.x.. . .       ",
". . . . . . . . . . . . . . . . . . . . . . . . . . . . . . . . . . . . I.< < < < < < F.p.. . .       ",
". . . . . . . . . . . . . . . . . . . . . . . . . . . . . . . . . . . . I.< < < < < < s.B.. . .       ",
". . . . . . . . . . . . . . . . . . . . . . . . . . . . . . . . . . . . I.< < < < < < F.B.. . .       ",
". . . . . . . . . . . . . . . . . . . . . . . . . . . . . . . . . . . . I.< < < < < < A.x.. . .       ",
". . . . . . . . . . . . . . . . . . . . . . . . . . . . . . . . . . . . I.< < < < < < A.x.. . .       ",
". . . . . . . . . . . . . . . . . . . . . . . . . . . . . . . . . . . . I.< < < < < < F.B.. . .       ",
". . . . . . . . . . . . . . . . . . . . . . . . . . . . . . . . . . . . I.< < < < < < A.x.. . .       ",
". . . . . . . . . . . . . . . . . . . . . . . . . . . . . . . . . . . . I.< < < < < < A.x.. . .       ",
". . . . . . . . . . . . . . . . . . . . . . . . . . . . . . . . . . . . K.f < < < < < A.x.. . .       ",
". . . . . . . . . . . . . . . . . . . . . . . . . . . . . . . . . . . . L.M.9 < < < < A.x.. . .       ",
". . . . . . . . . . . . . . . . . . . . . . . . . . . . . . . . . . . . y.N.O.H < < < A.x.. . .       ",
". . . . . . . . . . . . . . . . . . . . . . . . . . . . . . . . . . . . . . P.Q.E.< < A.x.. . .       ",
". . . . . . . . . . . . . . . . . . . . . . . . . . . . . . . . . . . . . . . R.S.9 < w.B.. . .       ",
". . . . . . . . . . . . . . . . . . . . . . . . . . . . . . . . . . . . . . . c T.U.E.o.V.. . .       ",
". . . . . . . . . . . . . . . . . . . . . . . . . . . . . . . . . . . . . . . . . W.X.Y.t.. . .       ",
". . . . . . . . . . . . . . . . . . . . . . . . . . . . . . . . . . . . . . . . . c Z.`. +. . .       ",
". . . . . . . . . . . . . . . . . . . . . . . . . . . . . . . . . . . . . . . . . . . . . . . .       ",
". . . . . . . . . . . . . . . . . . . . . . . . . . . . . . . . . . . . . . . . . . . . . . . .       ",
". . . . . . . . . . . . . . . . . . . . . . . . . . . . . . . . . . . . . . . . . . . . . . . .       ",
". . . . . . . . . . . . . . . . . . . . . . . . . . . . . . . . . . . . . . . . . . . . . . . .       ",
"                                                                                                      ",
"                                                                                                      ",
"                                                                                                      "};
