/* XPM */
static char * placar9_xpm[] = {
"49 102 286 2",
"  	c None",
". 	c #000000",
"+ 	c #010101",
"@ 	c #959394",
"# 	c #8D8C8D",
"$ 	c #8B8A8A",
"% 	c #8B8A8B",
"& 	c #8C8B8C",
"* 	c #8B8B8B",
"= 	c #8D8B8C",
"- 	c #8E8C8D",
"; 	c #8D8C8C",
"> 	c #8C8B8B",
", 	c #8E8D8D",
"' 	c #8C8A8B",
") 	c #A8A7A7",
"! 	c #0C0C0C",
"~ 	c #908F90",
"{ 	c #E1E0E0",
"] 	c #F8F8F8",
"^ 	c #D0D0D0",
"/ 	c #747273",
"( 	c #9A999A",
"_ 	c #E9E9E9",
": 	c #FFFFFF",
"< 	c #D7D7D7",
"[ 	c #717070",
"} 	c #969596",
"| 	c #E5E5E5",
"1 	c #D6D5D6",
"2 	c #706E6F",
"3 	c #949293",
"4 	c #181818",
"5 	c #969595",
"6 	c #E7E7E7",
"7 	c #D8D7D7",
"8 	c #6E6D6E",
"9 	c #212121",
"0 	c #8A898A",
"a 	c #090909",
"b 	c #AEACAD",
"c 	c #AFAEAE",
"d 	c #2D2D2D",
"e 	c #939293",
"f 	c #E6E6E6",
"g 	c #D5D4D4",
"h 	c #706F6F",
"i 	c #918F90",
"j 	c #A3A2A2",
"k 	c #545354",
"l 	c #C1C0C1",
"m 	c #F4F4F4",
"n 	c #B4B2B3",
"o 	c #030303",
"p 	c #040304",
"q 	c #979696",
"r 	c #E7E6E6",
"s 	c #D5D5D5",
"t 	c #848484",
"u 	c #2D2C2D",
"v 	c #6D6C6D",
"w 	c #DDDDDC",
"x 	c #C5C5C5",
"y 	c #C0C0C0",
"z 	c #F2F2F2",
"A 	c #B2B1B1",
"B 	c #979697",
"C 	c #6F6E6E",
"D 	c #6F6F6E",
"E 	c #6E6D6D",
"F 	c #6F6E6D",
"G 	c #6E6E6D",
"H 	c #6D6C6C",
"I 	c #6E6C6C",
"J 	c #6F6C6D",
"K 	c #716F6F",
"L 	c #767576",
"M 	c #454646",
"N 	c #9B9A9B",
"O 	c #DBDBDB",
"P 	c #C4C3C4",
"Q 	c #545454",
"R 	c #C1C0C0",
"S 	c #F5F5F5",
"T 	c #B1B0B0",
"U 	c #282728",
"V 	c #333233",
"W 	c #929191",
"X 	c #C4C4C4",
"Y 	c #B3B2B3",
"Z 	c #191919",
"` 	c #121212",
" .	c #666465",
"..	c #DFDEDE",
"+.	c #F3F3F3",
"@.	c #B3B1B1",
"#.	c #3C3B3B",
"$.	c #515050",
"%.	c #9C999A",
"&.	c #DDDDDD",
"*.	c #5A595A",
"=.	c #898787",
"-.	c #555455",
";.	c #F7F6F6",
">.	c #656464",
",.	c #F7F7F7",
"'.	c #494747",
").	c #757575",
"!.	c #CECECE",
"~.	c #4A4849",
"{.	c #EEEEEE",
"].	c #716F70",
"^.	c #EBEBEB",
"/.	c #727071",
"(.	c #C4C3C3",
"_.	c #545353",
":.	c #C1C1C1",
"<.	c #4A4848",
"[.	c #F0F0F0",
"}.	c #EDEDED",
"|.	c #ECECEC",
"1.	c #727070",
"2.	c #4A4748",
"3.	c #545455",
"4.	c #4B4A4A",
"5.	c #D4D4D4",
"6.	c #636363",
"7.	c #575556",
"8.	c #A7A6A7",
"9.	c #FCFCFC",
"0.	c #D6D6D6",
"a.	c #7C7C7C",
"b.	c #454445",
"c.	c #9F9D9E",
"d.	c #FEFEFE",
"e.	c #C2C1C1",
"f.	c #7E7D7D",
"g.	c #616060",
"h.	c #9C9B9C",
"i.	c #FDFDFD",
"j.	c #7D7D7D",
"k.	c #5C5B5C",
"l.	c #7F7F7F",
"m.	c #807F7F",
"n.	c #7F7E7E",
"o.	c #7E7E7E",
"p.	c #7F7E7F",
"q.	c #7A797A",
"r.	c #262626",
"s.	c #020102",
"t.	c #393838",
"u.	c #9E9D9D",
"v.	c #FBFBFB",
"w.	c #7B7A7A",
"x.	c #696868",
"y.	c #B8B8B8",
"z.	c #C6C6C6",
"A.	c #C7C6C6",
"B.	c #C6C5C6",
"C.	c #C6C5C5",
"D.	c #ACABAB",
"E.	c #2E2E2E",
"F.	c #363536",
"G.	c #9B9A9A",
"H.	c #BCBCBC",
"I.	c #D7D6D6",
"J.	c #797879",
"K.	c #8C8C8C",
"L.	c #BBBBBB",
"M.	c #6E6E6E",
"N.	c #5C5C5C",
"O.	c #A2A1A1",
"P.	c #BEBDBD",
"Q.	c #A8A7A8",
"R.	c #7A7979",
"S.	c #4D4C4C",
"T.	c #767475",
"U.	c #DEDDDE",
"V.	c #CDCDCD",
"W.	c #777777",
"X.	c #535252",
"Y.	c #B3B2B2",
"Z.	c #4A4A4A",
"`.	c #060606",
" +	c #AEAEAE",
".+	c #E1E1E1",
"++	c #E8E7E8",
"@+	c #999999",
"#+	c #131212",
"$+	c #4B4B4B",
"%+	c #B9B8B9",
"&+	c #858485",
"*+	c #888687",
"=+	c #FAFAFA",
"-+	c #706F70",
";+	c #313131",
">+	c #626162",
",+	c #F6F6F6",
"'+	c #A4A2A3",
")+	c #605E5F",
"!+	c #AAA8A9",
"~+	c #585858",
"{+	c #5A5A5A",
"]+	c #898788",
"^+	c #EAEAEA",
"/+	c #949292",
"(+	c #454444",
"_+	c #5B595A",
":+	c #D3D2D3",
"<+	c #595959",
"[+	c #939292",
"}+	c #919091",
"|+	c #939192",
"1+	c #929192",
"2+	c #949393",
"3+	c #949394",
"4+	c #757374",
"5+	c #CCCBCB",
"6+	c #575657",
"7+	c #CBCBCB",
"8+	c #5C5A5B",
"9+	c #3C3C3C",
"0+	c #615F60",
"a+	c #575858",
"b+	c #7D7C7C",
"c+	c #565455",
"d+	c #565555",
"e+	c #575656",
"f+	c #585657",
"g+	c #585757",
"h+	c #555354",
"i+	c #575857",
"j+	c #7C7B7B",
"k+	c #CBCACB",
"l+	c #575757",
"m+	c #E8E7E7",
"n+	c #999798",
"o+	c #020202",
"p+	c #403F40",
"q+	c #565556",
"r+	c #565656",
"s+	c #3A3A3A",
"t+	c #929090",
"u+	c #CBCACA",
"v+	c #4B4A4B",
"w+	c #AEADAD",
"x+	c #BAB9BA",
"y+	c #BBBABB",
"z+	c #BBBABA",
"A+	c #B0AFB0",
"B+	c #2A2A2A",
"C+	c #E6E5E6",
"D+	c #CCCCCC",
"E+	c #403F3F",
"F+	c #EDECED",
"G+	c #B2B0B1",
"H+	c #1E1E1E",
"I+	c #949494",
"J+	c #494949",
"K+	c #B0B0B0",
"L+	c #F9F9F9",
"M+	c #ADACAD",
"N+	c #383737",
"O+	c #BCBBBB",
"P+	c #504F50",
"Q+	c #484848",
"R+	c #AFAFAF",
"S+	c #AFAEAF",
"T+	c #201F20",
"U+	c #444343",
"V+	c #414041",
"W+	c #EFEFEF",
"X+	c #323132",
"Y+	c #4E4E4E",
"Z+	c #B1B1B1",
"`+	c #373637",
" @	c #C3C2C3",
".@	c #C3C3C3",
"+@	c #AAA9A9",
"@@	c #9F9E9F",
"#@	c #040404",
"$@	c #7F7D7E",
"%@	c #7D7C7D",
"&@	c #7E7C7D",
"*@	c #7B797A",
"=@	c #666565",
". . . . . . . . . . . . . . . . . . . . . . . . . . . . . . . . . . . . . . . . . . . . . . . .   ",
". . . . . . . . . . . . . . . . . . . . . . . . . . . . . . . . . . . . . . . . . . . . . . . .   ",
". . . . . . . . . . . . . . . . . . . . . . . . . . . . . . . . . . . . . . . . . . . . . . . .   ",
". . . . . . . . . . . . . . . . . . . . . . . . . . . . . . . . . . . . . . . . . . . . . . . .   ",
". . . . . . . . . . . . . . . . . . . . . . . . . . . . . . . . . . . . . . . . . . . . . . . .   ",
". . . + . . . . . . . . . . . . . . . . . . . . . . . . . . . . . . . . . . . . . . . . . . . .   ",
". . . . @ # $ % & * = # - * # ; & & = = > , ; ' * # ; ; ; * = = # > % = = = = ' & * * , ) ! . .   ",
". . . . ~ { ] ] ] ] ] ] ] ] ] ] ] ] ] ] ] ] ] ] ] ] ] ] ] ] ] ] ] ] ] ] ] ] ] ] ] ] ] ^ / + . .   ",
". . . . . ( _ : : : : : : : : : : : : : : : : : : : : : : : : : : : : : : : : : : : < [ . . . .   ",
". . . . . . } | : : : : : : : : : : : : : : : : : : : : : : : : : : : : : : : : : 1 2 . . . . .   ",
". . 3 4 . . . 5 6 : : : : : : : : : : : : : : : : : : : : : : : : : : : : : : : 7 8 . . + 9 0 a   ",
". . b c d . . . e f : : : : : : : : : : : : : : : : : : : : : : : : : : : : : g h . . . . i j k   ",
". . l m n o . . p q r : : : : : : : : : : : : : : : : : : : : : : : : : : : s t . . . u v w x k   ",
". . y : z A u + . . B C D D D E E F E G E E F E E E E C H D D I E D D E J K L . . + M N O : P Q   ",
". . R : : S T U . . . . . . . . . . . . . . . . . . . . . . . . . . . . . . . . . V W O : : X Q   ",
". . y : : : m Y Z . . . . . . . . . . . . . . . . . . . . . . . . . . . . . . . `  ...: : : X Q   ",
". . R : : : : +.@.#.. . . . . . . . . . . . . . . . . . . . . . . . . . . . . $.%.&.: : : : X Q   ",
". . R : : : : : m *.. . . . . . . . . . . . . . . . . . . . . . . . . . . . . =.R : : : : : X -.  ",
". . R : : : : : ;.>.. . . . . . . . . . . . . . . . . . . . . . . . . . . . . v +.: : : : : P Q   ",
". . R : : : : : ,.'.. . . . . . . . . . . . . . . . . . . . . . . . . . . . . ).!.: : : : : X Q   ",
". . l : : : : : ,.~.. . . . . . . . . . . . . . . . . . . . . . . . . . . . . [ {.: : : : : X Q   ",
". . l : : : : : ,.~.. . . . . . . . . . . . . . . . . . . . . . . . . . . . . ].^.: : : : : X Q   ",
". . l : : : : : ,.~.. . . . . . . . . . . . . . . . . . . . . . . . . . . . . ].^.: : : : : X Q   ",
". . l : : : : : ,.~.. . . . . . . . . . . . . . . . . . . . . . . . . . . . . 2 ^.: : : : : X Q   ",
". . R : : : : : ,.~.. . . . . . . . . . . . . . . . . . . . . . . . . . . . . /.^.: : : : : P Q   ",
". . l : : : : : ,.~.. . . . . . . . . . . . . . . . . . . . . . . . . . . . . ].z : : : : : P Q   ",
". . l : : : : : ,.~.. . . . . . . . . . . . . . . . . . . . . . . . . . . . . ].^.: : : : : (._.  ",
". . :.: : : : : ,.~.. . . . . . . . . . . . . . . . . . . . . . . . . . . . . ].{.: : : : : X -.  ",
". . l : : : : : ,.~.. . . . . . . . . . . . . . . . . . . . . . . . . . . . . /.^.: : : : : X Q   ",
". . l : : : : : ,.<.. . . . . . . . . . . . . . . . . . . . . . . . . . . . . C ^.: : : : : X Q   ",
". . l : : : : : ,.~.. . . . . . . . . . . . . . . . . . . . . . . . . . . . . /.^.: : : : : X Q   ",
". . R : : : : : ,.~.. . . . . . . . . . . . . . . . . . . . . . . . . . . . . /.[.: : : : : P Q   ",
". . l : : : : : ,.~.. . . . . . . . . . . . . . . . . . . . . . . . . . . . . ].[.: : : : : P Q   ",
". . R : : : : : ,.~.. . . . . . . . . . . . . . . . . . . . . . . . . . . . . /.^.: : : : : X Q   ",
". . R : : : : : ,.~.. . . . . . . . . . . . . . . . . . . . . . . . . . . . . /.}.: : : : : X Q   ",
". . l : : : : : ,.~.. . . . . . . . . . . . . . . . . . . . . . . . . . . . . /.|.: : : : : X Q   ",
". . l : : : : : ,.~.. . . . . . . . . . . . . . . . . . . . . . . . . . . . . 1.{.: : : : : X Q   ",
". . R : : : : : ,.2.. . . . . . . . . . . . . . . . . . . . . . . . . . . . . ].{.: : : : : X Q   ",
". . R : : : : : ,.~.. . . . . . . . . . . . . . . . . . . . . . . . . . . . . /.^.: : : : : X Q   ",
". . R : : : : : ,.~.. . . . . . . . . . . . . . . . . . . . . . . . . . . . . 2 ^.: : : : : P Q   ",
". . R : : : : : ,.<.. . . . . . . . . . . . . . . . . . . . . . . . . . . . . [ ^.: : : : : P Q   ",
". . R : : : : : ,.<.. . . . . . . . . . . . . . . . . . . . . . . . . . . . . /.|.: : : : : X 3.  ",
". . R : : : : : ,.~.. . . . . . . . . . . . . . . . . . . . . . . . . . . . . ].[.: : : : : P Q   ",
". . R : : : : : ,.4.. . . . . . . . . . . . . . . . . . . . . . . . . . . . . 2 ^.: : : : : X 3.  ",
". . R : : : : : 5.6.. . . . . . . . . . . . . . . . . . . . . . . . . . . . . 7.8.9.: : : : X Q   ",
". . R : : : : 0.a.. . . . . . . . . . . . . . . . . . . . . . . . . . . . . . . b.c.d.: : : X Q   ",
". . R : : 9.e.f.. . . . . . . . . . . . . . . . . . . . . . . . . . . . . . . . . g.h.i.: : X Q   ",
". . l : : ^ j.. . o k.l.m.n.l.n.l.o.n.l.n.l.l.n.n.o.l.n.o.l.o.o.p.n.l.l.n.q.r.+ . s.t.u.v.: X -.  ",
". . R : 0.w.. . . x.y.z.A.z.z.B.B.z.B.z.z.B.z.B.z.B.B.z.C.z.C.B.z.z.z.B.A.B.D.E.. . . F.G.: P k   ",
". . H.I.J.. . . K.L.d.: : : : : : : : : : : : : : : : : : : : : : : : : : : ,.n M.. . . N.O.P.Q   ",
". . Q.R.. . S.T.U.: : : : : : : : : : : : : : : : : : : : : : : : : : : : : : i.V.W.4 . . X.Y.Z.  ",
". . `.. . E. +.+: : : : : : : : : : : : : : : : : : : : : : : : : : : : : : : : : ++@+#+. . $+.   ",
". . . . . /.^ : : : : : : : : : : : : : : : : : : : : : : : : : : : : : : : : : : : %+&+. . . .   ",
". . . . . . *+:.: : : : : : : : : : : : : : : : : : : : : : : : : : : : : : : : =+%+-+;+. r.' .   ",
". . . . . . . >+Y.S : : : : : : : : : : : : : : : : : : : : : : : : : : : : : ,+'+l.. . . )+!+~+  ",
". . . . . . . + {+]+^+: : : : : : : : : : : : : : : : : : : : : : : : : : : O /+(+. . . _+:+^ <+  ",
". . . . . . . . . . G.[+}+[+[+|+|+|+|+1+W W W |+|+|+|+|+|+|+/+[+W |+|+|+2+3+]+. . . + 4+:+: 5+6+  ",
". . . . . . . . . . . . . . . . . . . . . . . . . . . . . . . . . . . . . . . . . . 4+^ : : 7+~+  ",
". . . . . . . . . . . . . . . . . . . . . . . . . . . . . . . . . . . . . . . . . 8+s : : : 7+~+  ",
". . . . . . . . . . . . . . . . . . . . . . . . . . . . . . . . . . . . . . . 9+0+5.: : : : 7+a+  ",
". . . . . . . . . . . . . . . . . . . . . . . . . . . . . . . . . . . . . . . b+5.: : : : : 7+a+  ",
". . . . . . . . . . . . . . . . . . . . . . . . . . . . . . . . . . . . . . . c+: : : : : : 7+a+  ",
". . . . . . . . . . . . . . . . . . . . . . . . . . . . . . . . . . . . . . . d+: : : : : : 7+a+  ",
". . . . . . . . . . . . . . . . . . . . . . . . . . . . . . . . . . . . . . . e+: : : : : : 7+a+  ",
". . . . . . . . . . . . . . . . . . . . . . . . . . . . . . . . . . . . . . . 7.: : : : : : 7+~+  ",
". . . . . . . . . . . . . . . . . . . . . . . . . . . . . . . . . . . . . . . 6+: : : : : : 7+a+  ",
". . . . . . . . . . . . . . . . . . . . . . . . . . . . . . . . . . . . . . . f+: : : : : : 7+a+  ",
". . . . . . . . . . . . . . . . . . . . . . . . . . . . . . . . . . . . . . . f+: : : : : : 7+~+  ",
". . . . . . . . . . . . . . . . . . . . . . . . . . . . . . . . . . . . . . . f+: : : : : : 7+~+  ",
". . . . . . . . . . . . . . . . . . . . . . . . . . . . . . . . . . . . . . . f+: : : : : : 7+a+  ",
". . . . . . . . . . . . . . . . . . . . . . . . . . . . . . . . . . . . . . . f+: : : : : : 7+a+  ",
". . . . . . . . . . . . . . . . . . . . . . . . . . . . . . . . . . . . . . . f+: : : : : : 7+~+  ",
". . . . . . . . . . . . . . . . . . . . . . . . . . . . . . . . . . . . . . . f+: : : : : : 7+~+  ",
". . . . . . . . . . . . . . . . . . . . . . . . . . . . . . . . . . . . . . . f+: : : : : : 7+a+  ",
". . . . . . . . . . . . . . . . . . . . . . . . . . . . . . . . . . . . . . . f+: : : : : : 7+a+  ",
". . . . . . . . . . . . . . . . . . . . . . . . . . . . . . . . . . . . . . . f+: : : : : : 7+a+  ",
". . . . . . . . . . . . . . . . . . . . . . . . . . . . . . . . . . . . . . . f+: : : : : : 7+a+  ",
". . . . . . . . . . . . . . . . . . . . . . . . . . . . . . . . . . . . . . . f+: : : : : : 7+a+  ",
". . . . . . . . . . . . . . . . . . . . . . . . . . . . . . . . . . . . . . . f+: : : : : : 7+a+  ",
". . . . . . . . . . . . . . . . . . . . . . . . . . . . . . . . . . . . . . . f+: : : : : : 7+a+  ",
". . . . . . . . . . . . . . . . . . . . . . . . . . . . . . . . . . . . . . . 7.: : : : : : 7+a+  ",
". . . . . . . . . . . . . . . . . . . . . . . . . . . . . . . . . . . . . . . g+: : : : : : 7+a+  ",
". . . . . . . . . . . . . . . . . . . . . . . . . . . . . . . . . . . . . . . f+: : : : : : 7+a+  ",
". . . . . . . . . . . . . . . . . . . . . . . . . . . . . . . . . . . . . . . e+: : : : : : 7+a+  ",
". . . . . . . . . . . . . . . . . . . . . . . . . . . . . . . . . . . . . . . c+: : : : : : 7+a+  ",
". . . . . . . . . . . . . . . . . . . . . . . . . . . . . . . . . . . . . . . c+: : : : : : 7+~+  ",
". . . . . . . . . . . . . . . . . . . . . . . . . . . . . . . . . . . . . . . h+: : : : : : 5+i+  ",
". . . . . . . . . . . . . . . . . . . . . . . . . . . . . . . . . . . . . . . j+7+: : : : : k+l+  ",
". . . . . . . . . . . . . . . . . . . . . . . . . . . . . . . . . . . . . . . . q m+: : : : 5+l+  ",
". . . . . . . . . . . . . . . . . . . . . . . . . . . . . . . . . . . . . . . . . n+..: : : k+l+  ",
". . . . . . . . . o+p+k q+q+e+q+q+r+q+r+q+r+q+q+q+q+q+q+q+q+q+q+q+q+q+q+c+r+s++ . . t+f : : u+l+  ",
". . . . . . . . + v+w+x+y+y+L.y+y+y+y+L.y+y+y+y+y+y+y+y+y+y+y+y+y+y+y+y+z+L.A+B+. . . e C+: D+l+  ",
". . . . . . . . E+c 9.: : : : : : : : : : : : : : : : : : : : : : : : : : : F+G+H+. . . I+| 7+~+  ",
". . . . . . o+J+K+L+: : : : : : : : : : : : : : : : : : : : : : : : : : : : : < M+N+. . . [+O+P+  ",
". . . . . . Q+R+9.: : : : : : : : : : : : : : : : : : : : : : : : : : : : : : : {.S+T+. . . U+a   ",
". . . . + V+T 9.: : : : : : : : : : : : : : : : : : : : : : : : : : : : : : : : : W+A+X++ . . .   ",
". . . o+Y+Z+=+: : : : : : : : : : : : : : : : : : : : : : : : : : : : : : : : : : : |.( `+. . .   ",
". . . . *+:. @.@.@.@(. @.@.@.@.@.@ @.@.@.@.@.@.@.@ @.@.@.@.@.@.@.@.@.@.@.@.@.@.@.@.@.@+@@@#@. .   ",
". . . . M.$@a.a.%@f.a.a.a.a.a.a.a.a.a.&@a.a.a.a.a.a.a.a.a.a.a.a.a.j+a.a.a.a.a.a.a.a.a.*@=@. . .   ",
". . . . . . . . . . . . . . . . . . . . . . . . . . . . . . . . . . . . . . . . . . . . . . . .   ",
"                                                                                                  ",
"                                                                                                  "};
