/* XPM */
static char * placar2_xpm[] = {
"50 102 245 2",
"  	c None",
". 	c #000000",
"+ 	c #101010",
"@ 	c #2C2B2B",
"# 	c #2A2A2A",
"$ 	c #2C2C2C",
"% 	c #2C2C2B",
"& 	c #2B2B2B",
"* 	c #5D5C5C",
"= 	c #AEADAD",
"- 	c #B6B6B6",
"; 	c #BAB9B9",
"> 	c #B9B9B9",
", 	c #B8B7B7",
"' 	c #B9B8B8",
") 	c #B9B8B9",
"! 	c #B1B0B1",
"~ 	c #606060",
"{ 	c #1D1D1D",
"] 	c #939293",
"^ 	c #EFEFEF",
"/ 	c #FFFFFF",
"( 	c #F0EFEF",
"_ 	c #979596",
": 	c #202020",
"< 	c #A7A6A6",
"[ 	c #EEEEEE",
"} 	c #ABA9AA",
"| 	c #060606",
"1 	c #817F80",
"2 	c #DEDEDE",
"3 	c #A4A3A3",
"4 	c #000100",
"5 	c #010101",
"6 	c #9D9D9D",
"7 	c #EDEDED",
"8 	c #A4A2A2",
"9 	c #0D0D0D",
"0 	c #949393",
"a 	c #A5A4A4",
"b 	c #F0F0F0",
"c 	c #969596",
"d 	c #161616",
"e 	c #989797",
"f 	c #E4E4E4",
"g 	c #9E9E9E",
"h 	c #191818",
"i 	c #A6A5A5",
"j 	c #DADADA",
"k 	c #D5D5D5",
"l 	c #D4D4D4",
"m 	c #CBCACB",
"n 	c #191819",
"o 	c #A2A0A1",
"p 	c #EDECEC",
"q 	c #F9F9F9",
"r 	c #1C1C1C",
"s 	c #6E6D6D",
"t 	c #999898",
"u 	c #989898",
"v 	c #999899",
"w 	c #989798",
"x 	c #9A9999",
"y 	c #979797",
"z 	c #747474",
"A 	c #1E1D1D",
"B 	c #A09E9E",
"C 	c #EBEBEB",
"D 	c #9E9D9D",
"E 	c #0C0B0C",
"F 	c #979697",
"G 	c #9F9E9E",
"H 	c #9B9A9A",
"I 	c #EAEAEA",
"J 	c #9F9D9E",
"K 	c #9E9E9D",
"L 	c #C3C2C3",
"M 	c #9F9E9F",
"N 	c #C4C3C3",
"O 	c #9F9F9F",
"P 	c #9C9C9C",
"Q 	c #C4C4C4",
"R 	c #B1B0B0",
"S 	c #666566",
"T 	c #DAD9DA",
"U 	c #656464",
"V 	c #DAD9D9",
"W 	c #9E9D9E",
"X 	c #676667",
"Y 	c #DCDCDC",
"Z 	c #9D9C9D",
"` 	c #6D6C6C",
" .	c #6C6B6C",
"..	c #6E6E6D",
"+.	c #6E6E6E",
"@.	c #707070",
"#.	c #6F6F6F",
"$.	c #6D6D6D",
"%.	c #706F6F",
"&.	c #6F6E6E",
"*.	c #6B6A6A",
"=.	c #696969",
"-.	c #696768",
";.	c #DBDADB",
">.	c #333233",
",.	c #767475",
"'.	c #DEDDDE",
").	c #BCBBBB",
"!.	c #BFBEBE",
"~.	c #BFBFBF",
"{.	c #BEBEBE",
"].	c #BFBEBF",
"^.	c #C3C3C3",
"/.	c #C8C7C7",
"(.	c #DCDBDB",
"_.	c #D7D7D7",
":.	c #D2D2D2",
"<.	c #696868",
"[.	c #191919",
"}.	c #F5F5F5",
"|.	c #DFDFDF",
"1.	c #B4B4B4",
"2.	c #212121",
"3.	c #676566",
"4.	c #D6D6D6",
"5.	c #A8A7A7",
"6.	c #F3F3F3",
"7.	c #8F8E8E",
"8.	c #626162",
"9.	c #727070",
"0.	c #9D9C9C",
"a.	c #636162",
"b.	c #C1C0C1",
"c.	c #FBFBFB",
"d.	c #C9C8C8",
"e.	c #5F5E5F",
"f.	c #010001",
"g.	c #1D1C1C",
"h.	c #969495",
"i.	c #FCFCFC",
"j.	c #9B9999",
"k.	c #737372",
"l.	c #595959",
"m.	c #4F4F4F",
"n.	c #969595",
"o.	c #E5E5E5",
"p.	c #E7E7E7",
"q.	c #979696",
"r.	c #575656",
"s.	c #020202",
"t.	c #8F8C8D",
"u.	c #7A7979",
"v.	c #878586",
"w.	c #E9E8E8",
"x.	c #9A9A9A",
"y.	c #0B0A0B",
"z.	c #4C4A4B",
"A.	c #BBBABA",
"B.	c #C5C4C4",
"C.	c #525151",
"D.	c #838182",
"E.	c #ECECEC",
"F.	c #646363",
"G.	c #878687",
"H.	c #807F7F",
"I.	c #807F80",
"J.	c #727071",
"K.	c #838181",
"L.	c #7C7B7C",
"M.	c #5C5B5B",
"N.	c #828181",
"O.	c #8F8E8F",
"P.	c #0B0B0B",
"Q.	c #818181",
"R.	c #7F7E7E",
"S.	c #858384",
"T.	c #838282",
"U.	c #868585",
"V.	c #888888",
"W.	c #878686",
"X.	c #828282",
"Y.	c #848283",
"Z.	c #828182",
"`.	c #848182",
" +	c #878787",
".+	c #868686",
"++	c #888787",
"@+	c #898788",
"#+	c #8B8A8A",
"$+	c #838283",
"%+	c #414141",
"&+	c #FEFEFE",
"*+	c #A5A4A5",
"=+	c #363536",
"-+	c #FDFDFD",
";+	c #A2A1A2",
">+	c #474647",
",+	c #5F5F5F",
"'+	c #A7A5A6",
")+	c #414040",
"!+	c #A19F9F",
"~+	c #BAB9BA",
"{+	c #BBBABB",
"]+	c #B8B8B8",
"^+	c #ABAAAA",
"/+	c #414140",
"(+	c #3F3E3E",
"_+	c #252424",
":+	c #F8F8F8",
"<+	c #B3B2B2",
"[+	c #353535",
"}+	c #9C9B9C",
"|+	c #4A4949",
"1+	c #272526",
"2+	c #8E8C8D",
"3+	c #F4F4F4",
"4+	c #F7F7F7",
"5+	c #B4B3B3",
"6+	c #3B3A3A",
"7+	c #464646",
"8+	c #333332",
"9+	c #3E3E3E",
"0+	c #201F1F",
"a+	c #908F8F",
"b+	c #B2B0B1",
"c+	c #30302F",
"d+	c #8E8D8D",
"e+	c #F6F6F6",
"f+	c #3C3C3B",
"g+	c #272627",
"h+	c #FAFAFA",
"i+	c #373637",
"j+	c #343333",
"k+	c #373536",
"l+	c #333232",
"m+	c #383536",
"n+	c #363535",
"o+	c #363435",
"p+	c #353434",
"q+	c #353334",
"r+	c #353435",
"s+	c #373535",
"t+	c #313030",
"u+	c #666464",
"v+	c #585757",
". . . . . . . . . . . . . . . . . . . . . . . . . . . . . . . . . . . . . . . . . . . . . . . .     ",
". . . . . . . . . . . . . . . . . . . . . . . . . . . . . . . . . . . . . . . . . . . . . . . .     ",
". . . . . . . . . . . . . . . . . . . . . . . . . . . . . . . . . . . . . . . . . . . . . . . .     ",
". . . . . . . . . . . . . . . . . . . . . . . . . . . . . . . . . . . . . . . . . . . . . . . .     ",
". . . . . . . . . . . . . . . . . . . . . . . . . . . . . . . . . . . . . . . . . . . . . . . .     ",
". . . + @ # $ % & $ @ $ $ @ @ @ @ $ @ $ $ @ @ $ @ @ @ $ $ @ @ @ @ $ @ @ @ @ $ $ $ @ & $ + . . .     ",
". . . * = - ; > , ; ' ' > ' ' ' ' ) ' ' > ' ' > ' ' ' ' ' ' ' ' ' ' ' ' ' ' > > > ' , ! ~ . . .     ",
". . . { ] ^ / / / / / / / / / / / / / / / / / / / / / / / / / / / / / / / / / / / / ( _ : . . .     ",
". . . . . < [ / / / / / / / / / / / / / / / / / / / / / / / / / / / / / / / / / / ^ } . . . . .     ",
". . . . . | 1 2 / / / / / / / / / / / / / / / / / / / / / / / / / / / / / / / / ^ 3 4 . . . . 5     ",
". . . . . . . 6 7 / / / / / / / / / / / / / / / / / / / / / / / / / / / / / / ^ 8 9 . . . 0 3 .     ",
". . . . . . . . a ^ / / / / / / / / / / / / / / / / / / / / / / / / / / / / b c . . . d e f g .     ",
". . . . . . . . h i j k l l l l l l l l l l l l l l l l l l l l l l l l k m } n . . . o p q g .     ",
". . . . . . . . . r s 0 t t e t t u t t e v e e t t t t t t w t t e v x y z A . . . B C / q D .     ",
". . . . . . . . . . . . . . . . . . . . . . . . . . . . . . . . . . . . . . . . E F C / / q G .     ",
". . . . . . . . . . . . . . . . . . . . . . . . . . . . . . . . . . . . . . . . H C / / / q G .     ",
". . . . . . . . . . . . . . . . . . . . . . . . . . . . . . . . . . . . . . . x I / / / / q J .     ",
". . . . . . . . . . . . . . . . . . . . . . . . . . . . . . . . . . . . . . . < / / / / / q K .     ",
". . . . . . . . . . . . . . . . . . . . . . . . . . . . . . . . . . . . . . . L / / / / / q M .     ",
". . . . . . . . . . . . . . . . . . . . . . . . . . . . . . . . . . . . . . . N / / / / / q O .     ",
". . . . . . . . . . . . . . . . . . . . . . . . . . . . . . . . . . . . . . . N / / / / / q G .     ",
". . . . . . . . . . . . . . . . . . . . . . . . . . . . . . . . . . . . . . . N / / / / / q O .     ",
". . . . . . . . . . . . . . . . . . . . . . . . . . . . . . . . . . . . . . . N / / / / / q O .     ",
". . . . . . . . . . . . . . . . . . . . . . . . . . . . . . . . . . . . . . . N / / / / / q G .     ",
". . . . . . . . . . . . . . . . . . . . . . . . . . . . . . . . . . . . . . . N / / / / / q G .     ",
". . . . . . . . . . . . . . . . . . . . . . . . . . . . . . . . . . . . . . . N / / / / / q P .     ",
". . . . . . . . . . . . . . . . . . . . . . . . . . . . . . . . . . . . . . . N / / / / / q g .     ",
". . . . . . . . . . . . . . . . . . . . . . . . . . . . . . . . . . . . . . . N / / / / / q O .     ",
". . . . . . . . . . . . . . . . . . . . . . . . . . . . . . . . . . . . . . . N / / / / / q O .     ",
". . . . . . . . . . . . . . . . . . . . . . . . . . . . . . . . . . . . . . . N / / / / / q O .     ",
". . . . . . . . . . . . . . . . . . . . . . . . . . . . . . . . . . . . . . . N / / / / / q O .     ",
". . . . . . . . . . . . . . . . . . . . . . . . . . . . . . . . . . . . . . . N / / / / / q J .     ",
". . . . . . . . . . . . . . . . . . . . . . . . . . . . . . . . . . . . . . . N / / / / / q O .     ",
". . . . . . . . . . . . . . . . . . . . . . . . . . . . . . . . . . . . . . . N / / / / / q O .     ",
". . . . . . . . . . . . . . . . . . . . . . . . . . . . . . . . . . . . . . . N / / / / / q M .     ",
". . . . . . . . . . . . . . . . . . . . . . . . . . . . . . . . . . . . . . . N / / / / / q O .     ",
". . . . . . . . . . . . . . . . . . . . . . . . . . . . . . . . . . . . . . . N / / / / / q M .     ",
". . . . . . . . . . . . . . . . . . . . . . . . . . . . . . . . . . . . . . . N / / / / / q M .     ",
". . . . . . . . . . . . . . . . . . . . . . . . . . . . . . . . . . . . . . . N / / / / / q O .     ",
". . . . . . . . . . . . . . . . . . . . . . . . . . . . . . . . . . . . . . . N / / / / / q O .     ",
". . . . . . . . . . . . . . . . . . . . . . . . . . . . . . . . . . . . . . . N / / / / / q O .     ",
". . . . . . . . . . . . . . . . . . . . . . . . . . . . . . . . . . . . . . . N / / / / / q O .     ",
". . . . . . . . . . . . . . . . . . . . . . . . . . . . . . . . . . . . . . . Q / / / / / q O .     ",
". . . . . . . . . . . . . . . . . . . . . . . . . . . . . . . . . . . . . . . R / / / / / q J .     ",
". . . . . . . . . . . . . . . . . . . . . . . . . . . . . . . . . . . . . . . S T / / / / q G .     ",
". . . . . . . . . . . . . . . . . . . . . . . . . . . . . . . . . . . . . . . . U V / / / q W .     ",
". . . . . . . . . . . . . . . . . . . . . . . . . . . . . . . . . . . . . . . . . X Y / / q Z .     ",
". . . . . . . . . . `  .s ......+.@.#.$.%.#.&.#.&.&.#...$.s +.+.$.` +.*.=.#.. . . . -.;./ q O .     ",
". . . . . . . . >.,.'.).!.!.!.!.!.~.~.{.~.~.].~.~.].~.!.{.!.!.!.^./.!.(._.:.` . . . . <.(.q O .     ",
". . . . . . . [.i }./ / / / / / / / / / / / / / / / / / / / / / / / / / / / |.1.2.. . . 3.4.O .     ",
". . . . . . %.5.6./ / / / / / / / / / / / / / / / / / / / / / / / / / / / / / 6.7.8.. . . 9.0..     ",
". . . . . a.b./ / / / / / / / / / / / / / / / / / / / / / / / / / / / / / / / / c.d.e.f.. g.: .     ",
". . . . . h./ / / / / / / / / / / / / / / / / / / / / / / / / / / / / / / / / / / i.j.. . . . .     ",
". k.l.. 5 m.n.o./ / / / / / / / / / / / / / / / / / / / / / / / / / / / / / / / p.q.r.s.. . . .     ",
". t.u.s.. . . v.w./ / / / / / / / / / / / / / / / / / / / / / / / / / / / / / Y x.. . . . . . .     ",
". 1 o.c y.. . . z.A./ / / / / / / / / / / / / / / / / / / / / / / / / / / / B.C.. . . . . . . .     ",
". D.q E.u.. . . . F.G.H.H.H.H.H.H.I.H.H.H.H.H.H.H.H.H.H.H.H.H.H.H.I.H.H.H.7.J.. . . . . . . . .     ",
". K.q / C L.M.. . . . . . . . . . . . . . . . . . . . . . . . . . . . . . . . . . . . . . . . .     ",
". N.q / / C O.P.. . . . . . . . . . . . . . . . . . . . . . . . . . . . . . . . . . . . . . . .     ",
". Q.q / / / E.R.. . . . . . . . . . . . . . . . . . . . . . . . . . . . . . . . . . . . . . . .     ",
". Q.q / / / / I S.. . . . . . . . . . . . . . . . . . . . . . . . . . . . . . . . . . . . . . .     ",
". T.q / / / / / U.. . . . . . . . . . . . . . . . . . . . . . . . . . . . . . . . . . . . . . .     ",
". T.q / / / / / V.. . . . . . . . . . . . . . . . . . . . . . . . . . . . . . . . . . . . . . .     ",
". Q.q / / / / / W.. . . . . . . . . . . . . . . . . . . . . . . . . . . . . . . . . . . . . . .     ",
". Q.q / / / / / V.. . . . . . . . . . . . . . . . . . . . . . . . . . . . . . . . . . . . . . .     ",
". Q.q / / / / / V.. . . . . . . . . . . . . . . . . . . . . . . . . . . . . . . . . . . . . . .     ",
". X.q / / / / / W.. . . . . . . . . . . . . . . . . . . . . . . . . . . . . . . . . . . . . . .     ",
". X.q / / / / / W.. . . . . . . . . . . . . . . . . . . . . . . . . . . . . . . . . . . . . . .     ",
". Y.q / / / / / V.. . . . . . . . . . . . . . . . . . . . . . . . . . . . . . . . . . . . . . .     ",
". Q.q / / / / / V.. . . . . . . . . . . . . . . . . . . . . . . . . . . . . . . . . . . . . . .     ",
". Q.q / / / / / V.. . . . . . . . . . . . . . . . . . . . . . . . . . . . . . . . . . . . . . .     ",
". Z.q / / / / / W.. . . . . . . . . . . . . . . . . . . . . . . . . . . . . . . . . . . . . . .     ",
". `.q / / / / /  +. . . . . . . . . . . . . . . . . . . . . . . . . . . . . . . . . . . . . . .     ",
". Q.q / / / / / V.. . . . . . . . . . . . . . . . . . . . . . . . . . . . . . . . . . . . . . .     ",
". Q.q / / / / / U.. . . . . . . . . . . . . . . . . . . . . . . . . . . . . . . . . . . . . . .     ",
". Q.q / / / / /  +. . . . . . . . . . . . . . . . . . . . . . . . . . . . . . . . . . . . . . .     ",
". T.q / / / / / V.. . . . . . . . . . . . . . . . . . . . . . . . . . . . . . . . . . . . . . .     ",
". Q.q / / / / / V.. . . . . . . . . . . . . . . . . . . . . . . . . . . . . . . . . . . . . . .     ",
". Q.q / / / / / W.. . . . . . . . . . . . . . . . . . . . . . . . . . . . . . . . . . . . . . .     ",
". Q.q / / / / / .+. . . . . . . . . . . . . . . . . . . . . . . . . . . . . . . . . . . . . . .     ",
". Q.q / / / / / V.. . . . . . . . . . . . . . . . . . . . . . . . . . . . . . . . . . . . . . .     ",
". T.q / / / / / V.. . . . . . . . . . . . . . . . . . . . . . . . . . . . . . . . . . . . . . .     ",
". Q.q / / / / / ++. . . . . . . . . . . . . . . . . . . . . . . . . . . . . . . . . . . . . . .     ",
". Q.q / / / / / U.. . . . . . . . . . . . . . . . . . . . . . . . . . . . . . . . . . . . . . .     ",
". Q.q / / / / / V.. . . . . . . . . . . . . . . . . . . . . . . . . . . . . . . . . . . . . . .     ",
". Q.q / / / / / .+. . . . . . . . . . . . . . . . . . . . . . . . . . . . . . . . . . . . . . .     ",
". X.q / / / / / @+. . . . . . . . . . . . . . . . . . . . . . . . . . . . . . . . . . . . . . .     ",
". K.q / / / / / #+. . . . . . . . . . . . . . . . . . . . . . . . . . . . . . . . . . . . . . .     ",
". $+q / / / c.o %+s.. . . . . . . . . . . . . . . . . . . . . . . . . . . . . . . . . . . . . .     ",
". N.q / / &+*+=+5 . . . . . . . . . . . . . . . . . . . . . . . . . . . . . . . . . . . . . . .     ",
". Q.q / -+;+>+,+. 5 . . . . . . . . . . . . . . . . . . . . . . . . . . . . 5 . . . . . . . . .     ",
". Q.q c.'+)+s.. 5 & !+' ~+~+~+~+~+~+~+~+; ~+~+~+~+~+~+; ~+~+~+~+~+~+~+{+]+^+/+5 . . . . . . . .     ",
". $+q i (+. . . _+7.:+/ / / / / / / / / / / / / / / / / / / / / / / / / / q <+[+. . . . . . . .     ",
". V.}+|+5 . 5 1+2+3+/ / / / / / / / / / / / / / / / / / / / / / / / / / / / 4+5+6+5 . . . . . .     ",
". y 7+s.. . 8+3 3+i./ / / / / / / / / / / / / / / / / / / / / / / / / / / / / 4+! 9+. . . . . .     ",
". . . . . 0+a+4+/ / / / / / / / / / / / / / / / / / / / / / / / / / / / / / / / q b+@ . . . . .     ",
". . . 5 c+d+}./ / / / / / / / / / / / / / / / / / / / / / / / / / / / / / / / / / e+b+f+5 . . .     ",
". . . g+0 h+/ / / / / / / / / / / / / / / / / / / / / / / / / / / / / / / / / / / / c.5+9+. . .     ",
". . . <.i+j+k+l+k+m+m+m+n+o+p+q+n+n+o+q+q+q+r+o+n+p+o+n+n+q+n+n+n+n+o+q+q+q+s+m+m+k+t+u+v+. . .     ",
". . . . . . . . . . . . . . . . . . . . . . . . . . . . . . . . . . . . . . . . . . . . . . . .     ",
". . . . . . . . . . . . . . . . . . . . . . . . . . . . . . . . . . . . . . . . . . . . . . . .     ",
"                                                                                                    "};
