/* XPM */
static char * placar6_xpm[] = {
"50 102 286 2",
"  	c None",
". 	c #000000",
"+ 	c #605F60",
"@ 	c #989797",
"# 	c #8D8C8C",
"$ 	c #8D8B8C",
"% 	c #8C8A8A",
"& 	c #8B8A8A",
"* 	c #8C8B8C",
"= 	c #8E8D8D",
"- 	c #8D8C8D",
"; 	c #8C8B8B",
"> 	c #8B898A",
", 	c #8E8C8D",
"' 	c #8D8A8B",
") 	c #939293",
"! 	c #818281",
"~ 	c #5E5D5E",
"{ 	c #8C8A8B",
"] 	c #E8E8E8",
"^ 	c #F8F8F8",
"/ 	c #EFEFEF",
"( 	c #9B999A",
"_ 	c #727171",
": 	c #010101",
"< 	c #3A3A3A",
"[ 	c #888686",
"} 	c #F0F0F0",
"| 	c #FFFFFF",
"1 	c #F6F6F6",
"2 	c #9F9E9F",
"3 	c #7D7E7D",
"4 	c #141213",
"5 	c #9E9D9D",
"6 	c #EEEEEE",
"7 	c #F4F4F4",
"8 	c #A4A3A3",
"9 	c #7C7B7B",
"0 	c #717071",
"a 	c #696969",
"b 	c #3A3A3B",
"c 	c #929091",
"d 	c #F5F5F5",
"e 	c #9B9A9B",
"f 	c #797878",
"g 	c #787676",
"h 	c #848383",
"i 	c #838384",
"j 	c #080708",
"k 	c #363636",
"l 	c #838283",
"m 	c #F3F3F3",
"n 	c #9F9E9E",
"o 	c #797979",
"p 	c #CECECE",
"q 	c #C0C1C1",
"r 	c #626162",
"s 	c #3A393A",
"t 	c #868585",
"u 	c #EDEDED",
"v 	c #A3A3A3",
"w 	c #777676",
"x 	c #BABABA",
"y 	c #686667",
"z 	c #7C7A7B",
"A 	c #6D6B6C",
"B 	c #706F6F",
"C 	c #6F6E6E",
"D 	c #6F6D6E",
"E 	c #6E6C6D",
"F 	c #6F6D6D",
"G 	c #848283",
"H 	c #747474",
"I 	c #BDBCBC",
"J 	c #575656",
"K 	c #797778",
"L 	c #BAB9B9",
"M 	c #6D6C6D",
"N 	c #BEBDBD",
"O 	c #6C6A6B",
"P 	c #050505",
"Q 	c #353434",
"R 	c #797978",
"S 	c #B7B7B7",
"T 	c #333333",
"U 	c #787777",
"V 	c #B9B8B8",
"W 	c #343434",
"X 	c #B7B6B7",
"Y 	c #787677",
"Z 	c #B6B6B6",
"` 	c #787778",
" .	c #B5B5B5",
"..	c #323232",
"+.	c #333233",
"@.	c #9A9999",
"#.	c #1E1E1E",
"$.	c #8F8D8E",
"%.	c #1C1C1C",
"&.	c #EFEEEE",
"*.	c #979696",
"=.	c #0E0F0F",
"-.	c #010001",
";.	c #727172",
">.	c #7E7D7E",
",.	c #7F7F7F",
"'.	c #7F7E7E",
").	c #7B797A",
"!.	c #EDECEC",
"~.	c #989798",
"{.	c #A9A8A8",
"].	c #AEADAE",
"^.	c #C6C6C6",
"/.	c #C7C6C6",
"(.	c #C6C5C6",
"_.	c #C6C5C5",
":.	c #A3A4A4",
"<.	c #B1B0B0",
"[.	c #908F8F",
"}.	c #5D5D5D",
"|.	c #9C9A9B",
"1.	c #D1D1D1",
"2.	c #D8D8D8",
"3.	c #919091",
"4.	c #5A5959",
"5.	c #7F7E7F",
"6.	c #262526",
"7.	c #545454",
"8.	c #E5E5E5",
"9.	c #AAAAAA",
"0.	c #6D6C6C",
"a.	c #040303",
"b.	c #020202",
"c.	c #040404",
"d.	c #969696",
"e.	c #AFAEAE",
"f.	c #B0AFAF",
"g.	c #A09FA0",
"h.	c #060606",
"i.	c #313232",
"j.	c #B0B0B0",
"k.	c #AEADAD",
"l.	c #5B5A5A",
"m.	c #646364",
"n.	c #606160",
"o.	c #888788",
"p.	c #EBEAEB",
"q.	c #F1F1F1",
"r.	c #A9A8A9",
"s.	c #6B6A6A",
"t.	c #4F4F4F",
"u.	c #7A7979",
"v.	c #6E6D6D",
"w.	c #9E9C9D",
"x.	c #9D9B9C",
"y.	c #CBCBCB",
"z.	c #CCCCCC",
"A.	c #918F90",
"B.	c #434343",
"C.	c #999798",
"D.	c #747273",
"E.	c #6F6E6F",
"F.	c #F2F2F2",
"G.	c #A3A2A2",
"H.	c #5D5C5C",
"I.	c #030303",
"J.	c #6A6969",
"K.	c #C9C8C9",
"L.	c #F7F7F7",
"M.	c #777677",
"N.	c #353535",
"O.	c #4D4C4C",
"P.	c #B2B2B2",
"Q.	c #DCDCDC",
"R.	c #EBEBEB",
"S.	c #AEAEAE",
"T.	c #5B5B5B",
"U.	c #757374",
"V.	c #ABA9AA",
"W.	c #929192",
"X.	c #939192",
"Y.	c #939292",
"Z.	c #929191",
"`.	c #8E8B8C",
" +	c #737272",
".+	c #454444",
"++	c #AFAFAF",
"@+	c #E1E1E1",
"#+	c #B5B4B5",
"$+	c #585758",
"%+	c #E2E2E2",
"&+	c #706E6F",
"*+	c #525151",
"=+	c #B2B1B2",
"-+	c #FCFCFC",
";+	c #454545",
">+	c #FDFDFD",
",+	c #717070",
"'+	c #706E6E",
")+	c #FAFAFA",
"!+	c #BAB9BA",
"~+	c #2E2D2D",
"{+	c #FDFDFC",
"]+	c #727071",
"^+	c #706D6E",
"/+	c #C3C2C3",
"(+	c #ADADAD",
"_+	c #FEFEFE",
":+	c #C1C2C2",
"<+	c #383939",
"[+	c #ADACAC",
"}+	c #C2C2C2",
"|+	c #39393A",
"1+	c #393939",
"2+	c #716F70",
"3+	c #FBFBFB",
"4+	c #716F6F",
"5+	c #C2C2C3",
"6+	c #ACABAB",
"7+	c #FBFCFC",
"8+	c #3A3939",
"9+	c #F9F9F9",
"0+	c #C3C2C2",
"a+	c #A5A5A5",
"b+	c #292A29",
"c+	c #FBFCFB",
"d+	c #939393",
"e+	c #2C2C2D",
"f+	c #3D3C3C",
"g+	c #989697",
"h+	c #989898",
"i+	c #464546",
"j+	c #ECECEC",
"k+	c #9A9899",
"l+	c #2E2E2E",
"m+	c #646363",
"n+	c #545253",
"o+	c #555555",
"p+	c #565556",
"q+	c #565656",
"r+	c #555455",
"s+	c #575657",
"t+	c #565555",
"u+	c #525152",
"v+	c #0A0A0A",
"w+	c #212222",
"x+	c #726F70",
"y+	c #969495",
"z+	c #BBBBBB",
"A+	c #BBBABB",
"B+	c #BBBABA",
"C+	c #B2B1B1",
"D+	c #535253",
"E+	c #4F4E4F",
"F+	c #A1A0A0",
"G+	c #0D0D0D",
"H+	c #7F7D7E",
"I+	c #CACACA",
"J+	c #919090",
"K+	c #3F3E3F",
"L+	c #BFBEBE",
"M+	c #525051",
"N+	c #838182",
"O+	c #858484",
"P+	c #302F2F",
"Q+	c #313131",
"R+	c #A5A4A4",
"S+	c #BEBEBE",
"T+	c #5A5858",
"U+	c #373636",
"V+	c #BCBCBC",
"W+	c #5C5C5C",
"X+	c #999898",
"Y+	c #B6B5B6",
"Z+	c #C0C0C0",
"`+	c #636262",
" @	c #898889",
".@	c #7A7A7A",
"+@	c #C5C5C5",
"@@	c #C3C3C3",
"#@	c #C4C4C4",
"$@	c #858384",
"%@	c #9D9C9C",
"&@	c #575858",
"*@	c #7C7C7C",
"=@	c #7D7C7D",
". . . . . . . . . . . . . . . . . . . . . . . . . . . . . . . . . . . . . . . . . . . . . . . .     ",
". . . . . . . . . . . . . . . . . . . . . . . . . . . . . . . . . . . . . . . . . . . . . . . .     ",
". . . . . . . . . . . . . . . . . . . . . . . . . . . . . . . . . . . . . . . . . . . . . . . .     ",
". . . . . . . . . . . . . . . . . . . . . . . . . . . . . . . . . . . . . . . . . . . . . . . .     ",
". . . . . . . . . . . . . . . . . . . . . . . . . . . . . . . . . . . . . . . . . . . . . . . .     ",
". . . . . . . . . . . . . . . . . . . . . . . . . . . . . . . . . . . . . . . . . . . . . . . .     ",
". . . . + @ # $ $ % & $ * # # $ = $ # = - # ; > , & # $ $ , ; $ & $ $ $ $ $ $ ' # = ; * ) ! . .     ",
". . . . ~ { ] ^ ^ ^ ^ ^ ^ ^ ^ ^ ^ ^ ^ ^ ^ ^ ^ ^ ^ ^ ^ ^ ^ ^ ^ ^ ^ ^ ^ ^ ^ ^ ^ ^ ^ ^ ^ / ( _ . .     ",
". . . . : < [ } | | | | | | | | | | | | | | | | | | | | | | | | | | | | | | | | | | 1 2 3 . . .     ",
". . . . . . 4 5 6 | | | | | | | | | | | | | | | | | | | | | | | | | | | | | | | | 7 8 9 . . . .     ",
". . 0 a . . . b c / | | | | | | | | | | | | | | | | | | | | | | | | | | | | | | d e f . . . . .     ",
". . g h i j . : k l 6 | | | | | | | | | | | | | | | | | | | | | | | | | | | | m n o . . . . . .     ",
". . f p q r . . . s t u | | | | | | | | | | | | | | | | | | | | | | | | | | d v w . . . . . . .     ",
". . f p | x y . . . s z A B C C D D E E C F D E E D D E D C D E C C E F B C G H : . . . . . . .     ",
". . f p | | I J . . . . . . . . . . . . . . . . . . . . . . . . . . . . . . . . . . . . . . . .     ",
". . K p | | | L M . . . . . . . . . . . . . . . . . . . . . . . . . . . . . . . . . . . . . . .     ",
". . f p | | | | N O P . . . . . . . . . . . . . . . . . . . . . . . . . . . . . . . . . . . . .     ",
". . f p | | | | | L Q . . . . . . . . . . . . . . . . . . . . . . . . . . . . . . . . . . . . .     ",
". . R p | | | | | S T . . . . . . . . . . . . . . . . . . . . . . . . . . . . . . . . . . . . .     ",
". . U p | | | | | V W . . . . . . . . . . . . . . . . . . . . . . . . . . . . . . . . . . . . .     ",
". . f p | | | | | X T . . . . . . . . . . . . . . . . . . . . . . . . . . . . . . . . . . . . .     ",
". . f p | | | | | X T . . . . . . . . . . . . . . . . . . . . . . . . . . . . . . . . . . . . .     ",
". . f p | | | | | X T . . . . . . . . . . . . . . . . . . . . . . . . . . . . . . . . . . . . .     ",
". . Y p | | | | | X T . . . . . . . . . . . . . . . . . . . . . . . . . . . . . . . . . . . . .     ",
". . f p | | | | | Z T . . . . . . . . . . . . . . . . . . . . . . . . . . . . . . . . . . . . .     ",
". . ` p | | | | | S T . . . . . . . . . . . . . . . . . . . . . . . . . . . . . . . . . . . . .     ",
". . U p | | | | |  .... . . . . . . . . . . . . . . . . . . . . . . . . . . . . . . . . . . . .     ",
". . f p | | | | | X T . . . . . . . . . . . . . . . . . . . . . . . . . . . . . . . . . . . . .     ",
". . f p | | | | | X T . . . . . . . . . . . . . . . . . . . . . . . . . . . . . . . . . . . . .     ",
". . f p | | | | | X T . . . . . . . . . . . . . . . . . . . . . . . . . . . . . . . . . . . . .     ",
". . K p | | | | | X T . . . . . . . . . . . . . . . . . . . . . . . . . . . . . . . . . . . . .     ",
". . ` p | | | | | X T . . . . . . . . . . . . . . . . . . . . . . . . . . . . . . . . . . . . .     ",
". . Y p | | | | | X T . . . . . . . . . . . . . . . . . . . . . . . . . . . . . . . . . . . . .     ",
". . Y p | | | | | X T . . . . . . . . . . . . . . . . . . . . . . . . . . . . . . . . . . . . .     ",
". . f p | | | | | Z T . . . . . . . . . . . . . . . . . . . . . . . . . . . . . . . . . . . . .     ",
". . K p | | | | | X T . . . . . . . . . . . . . . . . . . . . . . . . . . . . . . . . . . . . .     ",
". . U p | | | | | S T . . . . . . . . . . . . . . . . . . . . . . . . . . . . . . . . . . . . .     ",
". . o p | | | | | X T . . . . . . . . . . . . . . . . . . . . . . . . . . . . . . . . . . . . .     ",
". . ` p | | | | | X T . . . . . . . . . . . . . . . . . . . . . . . . . . . . . . . . . . . . .     ",
". . f p | | | | | X T . . . . . . . . . . . . . . . . . . . . . . . . . . . . . . . . . . . . .     ",
". . U p | | | | | X T . . . . . . . . . . . . . . . . . . . . . . . . . . . . . . . . . . . . .     ",
". . ` p | | | | | X T . . . . . . . . . . . . . . . . . . . . . . . . . . . . . . . . . . . . .     ",
". . ` p | | | | | X T . . . . . . . . . . . . . . . . . . . . . . . . . . . . . . . . . . . . .     ",
". . K p | | | | | Z +.. . . . . . . . . . . . . . . . . . . . . . . . . . . . . . . . . . . . .     ",
". . f p | | | | / @.#.. . . . . . . . . . . . . . . . . . . . . . . . . . . . . . . . . . . . .     ",
". . K p | | | u $.%.. . . . . . . . . . . . . . . . . . . . . . . . . . . . . . . . . . . . . .     ",
". . f p | | &.*.. . . . . . . . . . . . . . . . . . . . . . . . . . . . . . . . . . . . . . . .     ",
". . f p | 6 * =.-.. . ;.>.,.,.'.'.'.'.,.'.,.,.'.'.,.,.,.,.,.,.,.'.'.,.'.,.'.H . . . . . . . . .     ",
". . ).p !.~.. . . . {.].^./.(._.(._.(.^._.(.(.(.(.(.(.(.^.(.^.(._._.^._.(._.X :.. . . . . . . .     ",
". . U <.[.. : : }.|.1.| | | | | | | | | | | | | | | | | | | | | | | | | | | | 2.3.4.. . . . . .     ",
". . { 5.6.. . 7.X 8.| | | | | | | | | | | | | | | | | | | | | | | | | | | | | | / 9.0.. . . . .     ",
". . a.b.. c.d.e.| | | | | | | | | | | | | | | | | | | | | | | | | | | | | | | | | | f.g.h.. . .     ",
". . . . . i.j.u | | | | | | | | | | | | | | | | | | | | | | | | | | | | | | | | | | m k.l.. . .     ",
". . 0 m.. . n.o.p.| | | | | | | | | | | | | | | | | | | | | | | | | | | | | | | | q.r.s.. . t.u.    ",
". . v.w.J . . . x.y.| | | | | | | | | | | | | | | | | | | | | | | | | | | | | | z.A.. b.: B.C.D.    ",
". . E.F.G.H.I.. #.J.K.q.| | | | | | | | | | | | | | | | | | | | | | | | | | L.z.M.N.. b.O.P.Q.v.    ",
". . D R.L.S.T.. . . U.V.) A.W.X.Y.Y.X.Y.Y.Z.X.Y.Y.Z.Y.Y.X.W.Y.X.W.Y.Y.Y.Y.Z.`. +. . . .+++L.@+D     ",
". . D | | | #+$+: . . . . . . . . . . . . . . . . . . . . . . . . . . . . . . : . b.O.f.^ | %+&+    ",
". . F | | | | <.}.: . . . . . . . . . . . . . . . . . . . . . . . . . . . . . . : *+=+-+| | %+E.    ",
". . C | | | | | k.l.. . . . . . . . . . . . . . . . . . . . . . . . . . . . . : ;+e.>+| | | %+,+    ",
". . '+| | | | | )+!+~+. . . . . . . . . . . . . . . . . . . . . . . . . . . . . =+{+| | | | %+]+    ",
". . ^+| | | | | | /+s . . . . . . . . . . . . . . . . . . . . . . . . . . . . . (+| | | | | %+,+    ",
". . C _+| | | | | :+<+. . . . . . . . . . . . . . . . . . . . . . . . . . . . . [+| | | | | %+0     ",
". . D _+| | | | | :+<+. . . . . . . . . . . . . . . . . . . . . . . . . . . . . (+| | | | | %+,+    ",
". . C -+| | | | | }+|+. . . . . . . . . . . . . . . . . . . . . . . . . . . . . (+| | | | | %+,+    ",
". . E.| | | | | | }+s . . . . . . . . . . . . . . . . . . . . . . . . . . . . . [+| | | | | %+,+    ",
". . '+| | | | | | :+1+. . . . . . . . . . . . . . . . . . . . . . . . . . . . . (+| | | | | %+2+    ",
". . D 3+| | | | | /+s . . . . . . . . . . . . . . . . . . . . . . . . . . . . . (+| | | | | %+4+    ",
". . D -+| | | | | }+|+. . . . . . . . . . . . . . . . . . . . . . . . . . . . . (+| | | | | %+&+    ",
". . D | | | | | | }+1+. . . . . . . . . . . . . . . . . . . . . . . . . . . . . (+| | | | | %+]+    ",
". . D | | | | | | }+1+. . . . . . . . . . . . . . . . . . . . . . . . . . . . . [+| | | | | %+B     ",
". . D -+| | | | | /+s . . . . . . . . . . . . . . . . . . . . . . . . . . . . . [+| | | | | %+]+    ",
". . D -+| | | | | :+<+. . . . . . . . . . . . . . . . . . . . . . . . . . . . . (+| | | | | %+]+    ",
". . D _+| | | | | :+<+. . . . . . . . . . . . . . . . . . . . . . . . . . . . . [+| | | | | %+&+    ",
". . D | | | | | | :+<+. . . . . . . . . . . . . . . . . . . . . . . . . . . . . [+| | | | | %+&+    ",
". . D _+| | | | | 5+s . . . . . . . . . . . . . . . . . . . . . . . . . . . . . 6+| | | | | %+&+    ",
". . D 7+| | | | | }+|+. . . . . . . . . . . . . . . . . . . . . . . . . . . . . [+| | | | | %+,+    ",
". . '+| | | | | | :+<+. . . . . . . . . . . . . . . . . . . . . . . . . . . . . (+| | | | | %+,+    ",
". . E.| | | | | | :+1+. . . . . . . . . . . . . . . . . . . . . . . . . . . . . (+| | | | | %+]+    ",
". . D | | | | | | }+8+. . . . . . . . . . . . . . . . . . . . . . . . . . . . . 6+| | | | | %+]+    ",
". . &+| | | | | | :+|+. . . . . . . . . . . . . . . . . . . . . . . . . . . . . (+| | | | | %+]+    ",
". . &+| | | | | | /+s . . . . . . . . . . . . . . . . . . . . . . . . . . . . . (+| | | | | %+,+    ",
". . D 9+| | | | | }+|+. . . . . . . . . . . . . . . . . . . . . . . . . . . . . (+| | | | | %+,+    ",
". . D >+| | | | | }+|+. . . . . . . . . . . . . . . . . . . . . . . . . . . . . (+| | | | | %+0     ",
". . &+| | | | | | 0+8+. . . . . . . . . . . . . . . . . . . . . . . . . . . . . (+| | | | | %+]+    ",
". . C | | | | | | }+|+. . . . . . . . . . . . . . . . . . . . . . . . . . . . . (+| | | | | %+,+    ",
". . &+| | | | | | }+1+. . . . . . . . . . . . . . . . . . . . . . . . . . . . . k.| | | | | %+,+    ",
". . '+| | | | | d a+b+. . . . . . . . . . . . . . . . . . . . . . . . . . . . . x.6 | | | | %+,+    ",
". . F c+| | | m d+e+. . . . . . . . . . . . . . . . . . . . . . . . . . . . . : f+g+u | | | %+,+    ",
". . D L.| | m h+i+. . . . . . . . . . . . . . . . . . . . . . . . . . . . . . . . . `.j+| | %+E.    ",
". . C )+| 7 k+l+. . . m+n+J o+o+o+p+o+o+p+p+o+o+q+p+o+p+p+o+o+p+p+r+s+o+p+t+u+v+. : w+@ u | @+x+    ",
". . A 3+q.y+l+. . . ~.k.L z+A+B+B+A+B+x B+A+B+B+A+A+B+B+A+B+B+A+A+x z+B+A+B+C+D+: . . E+F+j+} '.    ",
". . &+@+e G+. . I.).r.| | | | | | | | | | | | | | | | | | | | | | | | | | | | L t+. . . 1+H+I+E.    ",
". . 9 J+K+. . . C.C+| | | | | | | | | | | | | | | | | | | | | | | | | | | | | | L+M+. . . . N+O+    ",
". . P+Q+. . . R+k._+| | | | | | | | | | | | | | | | | | | | | | | | | | | | | | | S+T+. . . U+Q     ",
". . . . . I.$ k.| | | | | | | | | | | | | | | | | | | | | | | | | | | | | | | | | | V+W+. . . .     ",
". . . . . X+Y+_+| | | | | | | | | | | | | | | | | | | | | | | | | | | | | | | | | | | Z+`+. . .     ",
". . . .  @.@+@@@/+@@@@@@/+@@/+@@@@@@@@@@@@@@@@@@@@@@@@@@@@@@@@@@@@@@@@@@/+@@@@@@@@@@@@#@$@%@. .     ",
". . . . &@*@>.*@*@=@*@*@*@*@*@*@*@*@*@*@*@*@*@*@*@*@*@*@*@*@*@*@=@*@*@*@*@*@*@=@*@*@*@*@=@`+. .     ",
". . . . . . . . . . . . . . . . . . . . . . . . . . . . . . . . . . . . . . . . . . . . . . . .     ",
"                                                                                                    ",
"                                                                                                    "};
